font.ufo
<glyph name="exclam" format="1">
  <advance width="239"/>
  <unicode hex="0021"/>
  <outline>
    <contour>
      <point x="65" y="692" type="line"/>
      <point x="65" y="519" type="line"/>
      <point x="84" y="223" type="line"/>
      <point x="156" y="223" type="line"/>
      <point x="174" y="519" type="line"/>
      <point x="174" y="692" type="line"/>
    </contour>
    <contour>
      <point x="56" y="57" type="curve" smooth="yes"/>
      <point x="56" y="19"/>
      <point x="82" y="-8"/>
      <point x="117" y="-8" type="curve" smooth="yes"/>
      <point x="153" y="-8"/>
      <point x="179" y="19"/>
      <point x="179" y="57" type="curve" smooth="yes"/>
      <point x="179" y="94"/>
      <point x="153" y="121"/>
      <point x="117" y="121" type="curve" smooth="yes"/>
      <point x="82" y="121"/>
      <point x="56" y="94"/>
    </contour>
  </outline>
</glyph>
<glyph name="numbersign" format="1">
  <advance width="724"/>
  <unicode hex="0023"/>
  <outline>
    <contour>
      <point x="440.19" y="259" type="line"/>
      <point x="261.82" y="259" type="line"/>
      <point x="283.32" y="434.0" type="line"/>
      <point x="461.94" y="434.0" type="line"/>
    </contour>
    <contour>
      <point x="408.0" y="0" type="line"/>
      <point x="493.0" y="0" type="line"/>
      <point x="514.25429" y="173" type="line"/>
      <point x="656" y="173" type="line"/>
      <point x="664" y="259" type="line"/>
      <point x="524.82" y="259" type="line"/>
      <point x="546.32" y="434.0" type="line"/>
      <point x="689" y="434.0" type="line"/>
      <point x="696.0" y="521" type="line"/>
      <point x="557.00857" y="521" type="line"/>
      <point x="579" y="700.0" type="line"/>
      <point x="495.0" y="700.0" type="line"/>
      <point x="472.75286" y="521" type="line"/>
      <point x="294.00857" y="521" type="line"/>
      <point x="316" y="700.0" type="line"/>
      <point x="232.0" y="700.0" type="line"/>
      <point x="209.75286" y="521" type="line"/>
      <point x="68" y="521" type="line"/>
      <point x="60.0" y="434.0" type="line"/>
      <point x="198.94" y="434.0" type="line"/>
      <point x="177.19" y="259" type="line"/>
      <point x="35" y="259" type="line"/>
      <point x="27.0" y="173" type="line"/>
      <point x="166.50143" y="173" type="line"/>
      <point x="145" y="0" type="line"/>
      <point x="230.0" y="0" type="line"/>
      <point x="251.25429" y="173" type="line"/>
      <point x="429.50143" y="173" type="line"/>
    </contour>
  </outline>
</glyph>
<glyph name="dollar" format="1">
  <advance width="621"/>
  <unicode hex="0024"/>
  <note>
    dollar
  </note>
  <outline>
    <contour>
      <point x="275" y="591" type="curve"/>
      <point x="275" y="434" type="line"/>
      <point x="230" y="452"/>
      <point x="199" y="477"/>
      <point x="199" y="521" type="curve" smooth="yes"/>
      <point x="199" y="559"/>
      <point x="228" y="583"/>
    </contour>
    <contour>
      <point x="363" y="283" type="line"/>
      <point x="411" y="264"/>
      <point x="445" y="239"/>
      <point x="445" y="192" type="curve" smooth="yes"/>
      <point x="445" y="150"/>
      <point x="415" y="121"/>
      <point x="363" y="111" type="curve"/>
    </contour>
    <contour>
      <point x="363" y="589" type="line"/>
      <point x="409" y="581"/>
      <point x="463" y="562"/>
      <point x="518" y="529" type="curve"/>
      <point x="567" y="633" type="line"/>
      <point x="512" y="670"/>
      <point x="439" y="696"/>
      <point x="363" y="703" type="curve"/>
      <point x="363" y="834" type="line"/>
      <point x="275" y="834" type="line"/>
      <point x="275" y="703" type="line"/>
      <point x="149" y="689"/>
      <point x="67" y="617"/>
      <point x="67" y="510" type="curve" smooth="yes"/>
      <point x="67" y="377"/>
      <point x="175" y="340"/>
      <point x="275" y="311" type="curve"/>
      <point x="275" y="110" type="line"/>
      <point x="209" y="120"/>
      <point x="137" y="154"/>
      <point x="77" y="209" type="curve"/>
      <point x="26" y="107" type="line"/>
      <point x="90" y="49"/>
      <point x="179" y="6"/>
      <point x="275" y="-3" type="curve"/>
      <point x="275" y="-142" type="line"/>
      <point x="363" y="-142" type="line"/>
      <point x="363" y="-1" type="line"/>
      <point x="490" y="14"/>
      <point x="576" y="87"/>
      <point x="576" y="198" type="curve" smooth="yes"/>
      <point x="577" y="335"/>
      <point x="465" y="373"/>
      <point x="363" y="405" type="curve"/>
    </contour>
  </outline>
</glyph>
<glyph name="ampersand" format="1">
  <advance width="663"/>
  <unicode hex="0026"/>
  <outline>
    <contour>
      <point x="597.0" y="-19.0" type="curve"/>
      <point x="656" y="41" type="line"/>
      <point x="614.899862362" y="80.8246161255"/>
      <point x="576.953205654" y="117.475665454"/>
      <point x="542.09171" y="151.34612" type="curve"/>
      <point x="569.943124355" y="189.908428862"/>
      <point x="594.518289842" y="234.777724408"/>
      <point x="615.0" y="285.0" type="curve"/>
      <point x="540" y="341" type="line"/>
      <point x="522.648256369" y="293.206600876"/>
      <point x="501.589735181" y="250.510020892"/>
      <point x="477.72716" y="214.24967" type="curve"/>
      <point x="417.129021217" y="273.952936745"/>
      <point x="368.253817175" y="323.925051093"/>
      <point x="330.58433" y="367.14118" type="curve"/>
      <point x="416.029688405" y="411.771440537"/>
      <point x="500.0" y="461.72149638"/>
      <point x="500.0" y="558.0" type="curve" smooth="yes"/>
      <point x="500" y="644"/>
      <point x="428" y="705"/>
      <point x="324" y="705" type="curve" smooth="yes"/>
      <point x="214" y="705"/>
      <point x="142" y="640"/>
      <point x="142" y="547" type="curve" smooth="yes"/>
      <point x="142.0" y="496.587022938"/>
      <point x="163.251290961" y="446.639402613"/>
      <point x="208.442" y="385.4901" type="curve"/>
      <point x="129.34628485" y="342.829024894"/>
      <point x="57.0" y="289.83102029"/>
      <point x="57.0" y="191.0" type="curve" smooth="yes"/>
      <point x="57" y="78"/>
      <point x="153" y="-5"/>
      <point x="277" y="-5" type="curve" smooth="yes"/>
      <point x="353.852086657" y="-5.0"/>
      <point x="426.184089215" y="28.4486223375"/>
      <point x="487.87554" y="88.23693" type="curve"/>
      <point x="521.571025646" y="55.0942737497"/>
      <point x="557.91862116" y="19.4668917518"/>
    </contour>
    <contour>
      <point x="233.0" y="548.0" type="curve" smooth="yes"/>
      <point x="233" y="596"/>
      <point x="269" y="633"/>
      <point x="325" y="633" type="curve" smooth="yes"/>
      <point x="376" y="633"/>
      <point x="409" y="603"/>
      <point x="409" y="557" type="curve" smooth="yes"/>
      <point x="409.0" y="495.592989047"/>
      <point x="352.298347218" y="459.637288149"/>
      <point x="284.4098" y="424.50348" type="curve"/>
      <point x="249.77814996" y="472.310275316"/>
      <point x="233.0" y="511.416652693"/>
    </contour>
    <contour>
      <point x="281.0" y="82.0" type="curve" smooth="yes"/>
      <point x="209" y="82"/>
      <point x="152" y="130"/>
      <point x="152" y="200" type="curve" smooth="yes"/>
      <point x="152.0" y="257.099796579"/>
      <point x="197.450031876" y="294.086648018"/>
      <point x="255.49962" y="327.28836" type="curve"/>
      <point x="298.839352377" y="277.313493817"/>
      <point x="355.195440035" y="219.611636026"/>
      <point x="425.59351" y="149.72803" type="curve"/>
      <point x="381.806526453" y="106.404897162"/>
      <point x="332.360318017" y="82.0"/>
    </contour>
  </outline>
</glyph>
<glyph name="parenright" format="1">
  <advance width="308"/>
  <unicode hex="0029"/>
  <outline>
    <contour>
      <point x="40" y="742" type="line"/>
      <point x="113" y="628"/>
      <point x="158" y="475"/>
      <point x="158" y="309" type="curve" smooth="yes"/>
      <point x="158" y="143"/>
      <point x="113" y="-10"/>
      <point x="40" y="-124" type="curve"/>
      <point x="144" y="-124" type="line"/>
      <point x="223" y="-10"/>
      <point x="266" y="143"/>
      <point x="266" y="309" type="curve" smooth="yes"/>
      <point x="266" y="475"/>
      <point x="223" y="628"/>
      <point x="144" y="742" type="curve"/>
    </contour>
  </outline>
</glyph>
<glyph name="asterisk" format="1">
  <advance width="348"/>
  <unicode hex="002A"/>
  <outline>
    <contour>
      <point x="322" y="514" type="line"/>
      <point x="231" y="565" type="line"/>
      <point x="322" y="614" type="line"/>
      <point x="292" y="670" type="line"/>
      <point x="203" y="618" type="line"/>
      <point x="204" y="720" type="line"/>
      <point x="143" y="720" type="line"/>
      <point x="144" y="618" type="line"/>
      <point x="55" y="671" type="line"/>
      <point x="25" y="614" type="line"/>
      <point x="115" y="565" type="line"/>
      <point x="25" y="514" type="line"/>
      <point x="55" y="459" type="line"/>
      <point x="145" y="511" type="line"/>
      <point x="143" y="409" type="line"/>
      <point x="204" y="409" type="line"/>
      <point x="202" y="511" type="line"/>
      <point x="292" y="458" type="line"/>
    </contour>
  </outline>
</glyph>
<glyph name="plus" format="1">
  <advance width="498"/>
  <unicode hex="002B"/>
  <outline>
    <contour>
      <point x="463.0" y="285" type="line"/>
      <point x="463.0" y="364.0" type="line"/>
      <point x="287" y="364.0" type="line"/>
      <point x="287" y="539" type="line"/>
      <point x="212.0" y="539" type="line"/>
      <point x="212.0" y="364.0" type="line"/>
      <point x="35" y="364.0" type="line"/>
      <point x="35" y="285" type="line"/>
      <point x="212.0" y="285" type="line"/>
      <point x="212.0" y="110.0" type="line"/>
      <point x="287" y="110.0" type="line"/>
      <point x="287" y="285" type="line"/>
    </contour>
  </outline>
</glyph>
<glyph name="comma" format="1">
  <advance width="214"/>
  <unicode hex="002C"/>
  <outline>
    <contour>
      <point x="95.0" y="-82" type="line"/>
      <point x="152" y="4" type="line" smooth="yes"/>
      <point x="162" y="20"/>
      <point x="169" y="37"/>
      <point x="169" y="57" type="curve" smooth="yes"/>
      <point x="169" y="97"/>
      <point x="141" y="121"/>
      <point x="108" y="121" type="curve" smooth="yes"/>
      <point x="73" y="121"/>
      <point x="47" y="94"/>
      <point x="47" y="57" type="curve" smooth="yes"/>
      <point x="47.0" y="35.5929312712"/>
      <point x="55.604113964" y="16.4304140112"/>
      <point x="73.49876" y="4.83924" type="curve"/>
      <point x="36" y="-82" type="line"/>
    </contour>
  </outline>
</glyph>
<glyph name="hyphen" format="1">
  <advance width="368"/>
  <unicode hex="002D"/>
  <outline>
    <contour>
      <point x="61" y="344" type="line"/>
      <point x="61" y="265" type="line"/>
      <point x="307" y="265" type="line"/>
      <point x="307" y="344" type="line"/>
    </contour>
  </outline>
</glyph>
<glyph name="period" format="1">
  <advance width="214"/>
  <unicode hex="002E"/>
  <outline>
    <contour>
      <point x="46" y="57" type="curve" smooth="yes"/>
      <point x="46" y="19"/>
      <point x="72" y="-8"/>
      <point x="107" y="-8" type="curve" smooth="yes"/>
      <point x="143" y="-8"/>
      <point x="169" y="19"/>
      <point x="169" y="57" type="curve" smooth="yes"/>
      <point x="169" y="94"/>
      <point x="143" y="121"/>
      <point x="107" y="121" type="curve" smooth="yes"/>
      <point x="72" y="121"/>
      <point x="46" y="94"/>
    </contour>
  </outline>
</glyph>
<glyph name="slash" format="1">
  <advance width="331"/>
  <unicode hex="002F"/>
  <outline>
    <contour>
      <point x="297" y="816" type="line"/>
      <point x="-20" y="-117" type="line"/>
      <point x="78" y="-117" type="line"/>
      <point x="394" y="816" type="line"/>
    </contour>
  </outline>
</glyph>
<glyph name="zero" format="1">
  <advance width="617"/>
  <unicode hex="0030"/>
  <note>
    zero
  </note>
  <outline>
    <contour>
      <point x="45" y="351" type="curve" smooth="yes"/>
      <point x="45" y="123"/>
      <point x="139" y="-3"/>
      <point x="309" y="-3" type="curve" smooth="yes"/>
      <point x="478" y="-3"/>
      <point x="572" y="123"/>
      <point x="572" y="351" type="curve" smooth="yes"/>
      <point x="572" y="578"/>
      <point x="478" y="704"/>
      <point x="309" y="704" type="curve" smooth="yes"/>
      <point x="139" y="704"/>
      <point x="45" y="578"/>
    </contour>
    <contour>
      <point x="455" y="351" type="curve" smooth="yes"/>
      <point x="455" y="173"/>
      <point x="406" y="89"/>
      <point x="309" y="89" type="curve" smooth="yes"/>
      <point x="211" y="89"/>
      <point x="162" y="173"/>
      <point x="162" y="351" type="curve" smooth="yes"/>
      <point x="162" y="529"/>
      <point x="211" y="612"/>
      <point x="309" y="612" type="curve" smooth="yes"/>
      <point x="406" y="612"/>
      <point x="455" y="529"/>
    </contour>
  </outline>
</glyph>
<glyph name="one" format="1">
  <advance width="617"/>
  <unicode hex="0031"/>
  <note>
    one
  </note>
  <outline>
    <contour>
      <point x="375" y="0" type="line"/>
      <point x="375" y="701" type="line"/>
      <point x="106" y="701" type="line"/>
      <point x="106" y="595" type="line"/>
      <point x="257" y="595" type="line"/>
      <point x="257" y="0" type="line"/>
    </contour>
  </outline>
</glyph>
<glyph name="two" format="1">
  <advance width="617"/>
  <unicode hex="0032"/>
  <note>
    two
  </note>
  <outline>
    <contour>
      <point x="40" y="606" type="curve"/>
      <point x="88" y="515" type="line"/>
      <point x="148" y="569"/>
      <point x="222" y="602"/>
      <point x="285" y="602" type="curve" smooth="yes"/>
      <point x="362" y="602"/>
      <point x="408" y="569"/>
      <point x="408" y="512" type="curve" smooth="yes"/>
      <point x="408" y="472"/>
      <point x="372" y="416"/>
      <point x="319" y="363" type="curve" smooth="yes"/>
      <point x="52" y="87" type="line"/>
      <point x="52" y="0" type="line"/>
      <point x="565" y="0" type="line"/>
      <point x="565" y="106" type="line"/>
      <point x="207" y="106" type="line"/>
      <point x="399" y="300" type="line" smooth="yes"/>
      <point x="476" y="380"/>
      <point x="531" y="459"/>
      <point x="531" y="529" type="curve" smooth="yes"/>
      <point x="531" y="637"/>
      <point x="438" y="706"/>
      <point x="301" y="706" type="curve" smooth="yes"/>
      <point x="209" y="706"/>
      <point x="118" y="668"/>
    </contour>
  </outline>
</glyph>
<glyph name="three" format="1">
  <advance width="617"/>
  <unicode hex="0033"/>
  <note>
    three
  </note>
  <outline>
    <contour>
      <point x="290" y="409" type="line"/>
      <point x="515" y="626" type="line"/>
      <point x="515" y="700" type="line"/>
      <point x="55" y="700" type="line"/>
      <point x="56" y="595" type="line"/>
      <point x="368" y="595" type="line"/>
      <point x="163" y="398" type="line"/>
      <point x="163" y="330" type="line"/>
      <point x="265" y="330" type="line" smooth="yes"/>
      <point x="372" y="330"/>
      <point x="435" y="291"/>
      <point x="435" y="215" type="curve" smooth="yes"/>
      <point x="435" y="142"/>
      <point x="373" y="94"/>
      <point x="267" y="94" type="curve" smooth="yes"/>
      <point x="196" y="94"/>
      <point x="125" y="120"/>
      <point x="70" y="167" type="curve"/>
      <point x="21" y="71" type="line"/>
      <point x="85" y="25"/>
      <point x="182" y="-5"/>
      <point x="275" y="-5" type="curve" smooth="yes"/>
      <point x="444" y="-5"/>
      <point x="550" y="86"/>
      <point x="550" y="217" type="curve" smooth="yes"/>
      <point x="550" y="328"/>
      <point x="462" y="395"/>
      <point x="331" y="406" type="curve" smooth="yes"/>
    </contour>
  </outline>
</glyph>
<glyph name="four" format="1">
  <advance width="599"/>
  <unicode hex="0034"/>
  <note>
    four
  </note>
  <outline>
    <contour>
      <point x="383" y="700" type="line"/>
      <point x="269" y="700" type="line"/>
      <point x="30" y="260" type="line"/>
      <point x="30" y="172" type="line"/>
      <point x="364" y="172" type="line"/>
      <point x="364" y="0" type="line"/>
      <point x="474" y="0" type="line"/>
      <point x="474" y="172" type="line"/>
      <point x="576" y="172" type="line"/>
      <point x="576" y="277" type="line"/>
      <point x="474" y="277" type="line"/>
      <point x="474" y="443" type="line"/>
      <point x="364" y="443" type="line"/>
      <point x="364" y="277" type="line"/>
      <point x="156" y="277" type="line"/>
    </contour>
  </outline>
</glyph>
<glyph name="five" format="1">
  <advance width="617"/>
  <unicode hex="0035"/>
  <note>
    five
  </note>
  <outline>
    <contour>
      <point x="90" y="701" type="line"/>
      <point x="90" y="330" type="line"/>
      <point x="140" y="336"/>
      <point x="238" y="340"/>
      <point x="283" y="340" type="curve" smooth="yes"/>
      <point x="379" y="340"/>
      <point x="438" y="296"/>
      <point x="438" y="224" type="curve" smooth="yes"/>
      <point x="438" y="146"/>
      <point x="379" y="98"/>
      <point x="281" y="98" type="curve" smooth="yes"/>
      <point x="215" y="98"/>
      <point x="142" y="125"/>
      <point x="83" y="172" type="curve"/>
      <point x="35" y="76" type="line"/>
      <point x="107" y="28"/>
      <point x="208" y="-4"/>
      <point x="294" y="-4" type="curve" smooth="yes"/>
      <point x="458" y="-4"/>
      <point x="564" y="89"/>
      <point x="564" y="232" type="curve" smooth="yes"/>
      <point x="564" y="354"/>
      <point x="462" y="444"/>
      <point x="303" y="444" type="curve" smooth="yes"/>
      <point x="276" y="444"/>
      <point x="230" y="444"/>
      <point x="199" y="443" type="curve"/>
      <point x="199" y="595" type="line"/>
      <point x="534" y="595" type="line"/>
      <point x="534" y="701" type="line"/>
    </contour>
  </outline>
</glyph>
<glyph name="seven" format="1">
  <advance width="617"/>
  <unicode hex="0037"/>
  <note>
    seven
  </note>
  <outline>
    <contour>
      <point x="48" y="701" type="line"/>
      <point x="48" y="497" type="line"/>
      <point x="153" y="497" type="line"/>
      <point x="154" y="595" type="line"/>
      <point x="450" y="595" type="line"/>
      <point x="161" y="0" type="line"/>
      <point x="286" y="0" type="line"/>
      <point x="581" y="611" type="line"/>
      <point x="581" y="701" type="line"/>
    </contour>
  </outline>
</glyph>
<glyph name="nine" format="1">
  <advance width="617"/>
  <unicode hex="0039"/>
  <note>
    nine
  </note>
  <outline>
    <contour>
      <point x="151" y="470" type="curve" smooth="yes"/>
      <point x="151" y="555"/>
      <point x="208" y="605"/>
      <point x="292" y="605" type="curve" smooth="yes"/>
      <point x="393" y="605"/>
      <point x="437" y="535"/>
      <point x="436" y="474" type="curve" smooth="yes"/>
      <point x="437" y="402"/>
      <point x="382" y="340"/>
      <point x="287" y="340" type="curve" smooth="yes"/>
      <point x="203" y="340"/>
      <point x="151" y="390"/>
    </contour>
    <contour>
      <point x="570" y="365" type="curve" smooth="yes"/>
      <point x="570" y="580"/>
      <point x="462" y="706"/>
      <point x="286" y="706" type="curve" smooth="yes"/>
      <point x="138" y="706"/>
      <point x="41" y="616"/>
      <point x="41" y="471" type="curve" smooth="yes"/>
      <point x="41" y="335"/>
      <point x="126" y="247"/>
      <point x="265" y="247" type="curve" smooth="yes"/>
      <point x="353" y="247"/>
      <point x="418" y="281"/>
      <point x="455" y="347" type="curve"/>
      <point x="459" y="195"/>
      <point x="396" y="93"/>
      <point x="261" y="93" type="curve" smooth="yes"/>
      <point x="208" y="93"/>
      <point x="150" y="109"/>
      <point x="107" y="137" type="curve"/>
      <point x="61" y="48" type="line"/>
      <point x="118" y="16"/>
      <point x="200" y="-5"/>
      <point x="269" y="-5" type="curve" smooth="yes"/>
      <point x="453" y="-5"/>
      <point x="570" y="141"/>
    </contour>
  </outline>
</glyph>
<glyph name="less" format="1">
  <advance width="498"/>
  <unicode hex="003C"/>
  <outline>
    <contour>
      <point x="35" y="376" type="line"/>
      <point x="35" y="275" type="line"/>
      <point x="463" y="89" type="line"/>
      <point x="463" y="178" type="line"/>
      <point x="112" y="326" type="line"/>
      <point x="463" y="473" type="line"/>
      <point x="463" y="562" type="line"/>
    </contour>
  </outline>
</glyph>
<glyph name="equal" format="1">
  <advance width="498"/>
  <unicode hex="003D"/>
  <outline>
    <contour>
      <point x="35" y="469" type="line"/>
      <point x="35" y="390" type="line"/>
      <point x="463" y="390" type="line"/>
      <point x="463" y="469" type="line"/>
    </contour>
    <contour>
      <point x="35" y="259" type="line"/>
      <point x="35" y="180" type="line"/>
      <point x="463" y="180" type="line"/>
      <point x="463" y="259" type="line"/>
    </contour>
  </outline>
</glyph>
<glyph name="greater" format="1">
  <advance width="498"/>
  <unicode hex="003E"/>
  <outline>
    <contour>
      <point x="463" y="280" type="line"/>
      <point x="463" y="381" type="line"/>
      <point x="35" y="567" type="line"/>
      <point x="35" y="478" type="line"/>
      <point x="386" y="330" type="line"/>
      <point x="35" y="183" type="line"/>
      <point x="35" y="94" type="line"/>
    </contour>
  </outline>
</glyph>
<glyph name="question" format="1">
  <advance width="442"/>
  <unicode hex="003F"/>
  <outline>
    <contour>
      <point x="95" y="495" type="line"/>
      <point x="98" y="563"/>
      <point x="138" y="597"/>
      <point x="203" y="597" type="curve" smooth="yes"/>
      <point x="264" y="597"/>
      <point x="306" y="569"/>
      <point x="306" y="511" type="curve" smooth="yes"/>
      <point x="306" y="390"/>
      <point x="167" y="390"/>
      <point x="167" y="228" type="curve"/>
      <point x="255" y="228" type="line"/>
      <point x="255" y="363"/>
      <point x="412" y="370"/>
      <point x="412" y="529" type="curve" smooth="yes"/>
      <point x="412" y="637"/>
      <point x="332" y="695"/>
      <point x="213" y="695" type="curve" smooth="yes"/>
      <point x="88" y="695"/>
      <point x="9" y="623"/>
      <point x="5" y="496" type="curve"/>
    </contour>
    <contour>
      <point x="146" y="57" type="curve" smooth="yes"/>
      <point x="146" y="19"/>
      <point x="172" y="-8"/>
      <point x="207" y="-8" type="curve" smooth="yes"/>
      <point x="243" y="-8"/>
      <point x="269" y="19"/>
      <point x="269" y="57" type="curve" smooth="yes"/>
      <point x="269" y="94"/>
      <point x="243" y="121"/>
      <point x="207" y="121" type="curve" smooth="yes"/>
      <point x="172" y="121"/>
      <point x="146" y="94"/>
    </contour>
  </outline>
</glyph>
<glyph name="A" format="1">
  <advance width="738"/>
  <unicode hex="0041"/>
  <outline>
    <contour>
      <point x="768" y="10" type="move" name="ogonek"/>
    </contour>
    <contour>
      <point x="369" y="700" type="move" name="abvm"/>
    </contour>
    <contour>
      <point x="368.0" y="574" type="line"/>
      <point x="499.66028" y="263" type="line"/>
      <point x="235.79791" y="263" type="line"/>
    </contour>
    <contour>
      <point x="611" y="0" type="line"/>
      <point x="738.0" y="0" type="line"/>
      <point x="432.0" y="700.0" type="line"/>
      <point x="310" y="700.0" type="line"/>
      <point x="1" y="0" type="line"/>
      <point x="124.0" y="0" type="line"/>
      <point x="191.16376" y="158" type="line"/>
      <point x="544.1115" y="158" type="line"/>
    </contour>
  </outline>
</glyph>
<glyph name="G" format="1">
  <advance width="749"/>
  <unicode hex="0047"/>
  <outline>
    <contour>
      <point x="387" y="0" type="move" name="blwm"/>
    </contour>
    <contour>
      <point x="387" y="700" type="move" name="abvm"/>
    </contour>
    <contour>
      <point x="674" y="86" type="curve"/>
      <point x="674" y="344" type="line"/>
      <point x="571" y="344" type="line"/>
      <point x="571" y="149.00757" type="line"/>
      <point x="520.90555154" y="119.075426935"/>
      <point x="462.22502096" y="101.0"/>
      <point x="410.0" y="101.0" type="curve" smooth="yes"/>
      <point x="267" y="101"/>
      <point x="154" y="210"/>
      <point x="154" y="350" type="curve" smooth="yes"/>
      <point x="154" y="489"/>
      <point x="266" y="598"/>
      <point x="409" y="598" type="curve" smooth="yes"/>
      <point x="482" y="598"/>
      <point x="557" y="568"/>
      <point x="611" y="518" type="curve"/>
      <point x="678" y="605" type="line"/>
      <point x="609" y="665"/>
      <point x="509" y="703"/>
      <point x="409" y="703" type="curve" smooth="yes"/>
      <point x="197" y="703"/>
      <point x="34" y="550"/>
      <point x="34" y="350" type="curve" smooth="yes"/>
      <point x="34" y="150"/>
      <point x="195" y="-5"/>
      <point x="402" y="-5" type="curve" smooth="yes"/>
      <point x="498" y="-5"/>
      <point x="603" y="32"/>
    </contour>
  </outline>
</glyph>
<glyph name="H" format="1">
  <advance width="791"/>
  <unicode hex="0048"/>
  <outline>
    <contour>
      <point x="396" y="350" type="move" name="center"/>
    </contour>
    <contour>
      <point x="400" y="700" type="move" name="abvm"/>
    </contour>
    <contour>
      <point x="581" y="700" type="line"/>
      <point x="581" y="396" type="line"/>
      <point x="210" y="396" type="line"/>
      <point x="210" y="700" type="line"/>
      <point x="92" y="699.995" type="line"/>
      <point x="92" y="0" type="line"/>
      <point x="210" y="0" type="line"/>
      <point x="210" y="290" type="line"/>
      <point x="581" y="290" type="line"/>
      <point x="581" y="0" type="line"/>
      <point x="699" y="0" type="line"/>
      <point x="699" y="700" type="line"/>
    </contour>
  </outline>
</glyph>
<glyph name="K" format="1">
  <advance width="718"/>
  <unicode hex="004B"/>
  <outline>
    <contour>
      <point x="353" y="0" type="move" name="blwm"/>
    </contour>
    <contour>
      <point x="353" y="700" type="move" name="abvm"/>
    </contour>
    <contour>
      <point x="210.0" y="178.0" type="line"/>
      <point x="328.57021" y="308.85338" type="line"/>
      <point x="559" y="0" type="line"/>
      <point x="701.0" y="0" type="line"/>
      <point x="412.01508" y="400.94265" type="line"/>
      <point x="683" y="700.0" type="line"/>
      <point x="544" y="700.0" type="line"/>
      <point x="210.0" y="338" type="line"/>
      <point x="210.0" y="700.0" type="line"/>
      <point x="92.0" y="699.995" type="line"/>
      <point x="92.0" y="0" type="line"/>
      <point x="210.0" y="0" type="line"/>
    </contour>
  </outline>
</glyph>
<glyph name="L" format="1">
  <advance width="534"/>
  <unicode hex="004C"/>
  <outline>
    <contour>
      <point x="290" y="0" type="move" name="blwm"/>
    </contour>
    <contour>
      <point x="153" y="700" type="move" name="abvm"/>
    </contour>
    <contour>
      <point x="92" y="699.995" type="line"/>
      <point x="92" y="0" type="line"/>
      <point x="513" y="0" type="line"/>
      <point x="513" y="107" type="line"/>
      <point x="210" y="107" type="line"/>
      <point x="210" y="700" type="line"/>
    </contour>
  </outline>
</glyph>
<glyph name="M" format="1">
  <advance width="925"/>
  <unicode hex="004D"/>
  <outline>
    <contour>
      <point x="693" y="700" type="line"/>
      <point x="463" y="235" type="line"/>
      <point x="232" y="700" type="line"/>
      <point x="92" y="700" type="line"/>
      <point x="92" y="0" type="line"/>
      <point x="203" y="0" type="line"/>
      <point x="203" y="523" type="line"/>
      <point x="424" y="73" type="line"/>
      <point x="501" y="73" type="line"/>
      <point x="722" y="523" type="line"/>
      <point x="723" y="0" type="line"/>
      <point x="832" y="0" type="line"/>
      <point x="832" y="700" type="line"/>
    </contour>
  </outline>
</glyph>
<glyph name="Q" format="1">
  <advance width="825"/>
  <unicode hex="0051"/>
  <outline>
    <contour>
      <point x="627" y="-154" type="curve" smooth="yes"/>
      <point x="692" y="-154"/>
      <point x="763" y="-125"/>
      <point x="817" y="-77" type="curve"/>
      <point x="770.0" y="6.0" type="line"/>
      <point x="724" y="-30"/>
      <point x="678" y="-52"/>
      <point x="641" y="-52" type="curve" smooth="yes"/>
      <point x="600.678784945" y="-52.0"/>
      <point x="561.768854945" y="-28.0081540626"/>
      <point x="524.27021" y="12.86287" type="curve"/>
      <point x="672.520231824" y="59.0535291099"/>
      <point x="776.0" y="190.15457453"/>
      <point x="776.0" y="350.0" type="curve" smooth="yes"/>
      <point x="776" y="550"/>
      <point x="614" y="703"/>
      <point x="405" y="703" type="curve" smooth="yes"/>
      <point x="196" y="703"/>
      <point x="34" y="551"/>
      <point x="34" y="350" type="curve" smooth="yes"/>
      <point x="34.0" y="150.342013686"/>
      <point x="195.44641157" y="-4.46974719138"/>
      <point x="403.9282" y="-4.99386" type="curve"/>
      <point x="457" y="-97"/>
      <point x="537" y="-154"/>
    </contour>
    <contour>
      <point x="655" y="350" type="curve" smooth="yes"/>
      <point x="655" y="211"/>
      <point x="543" y="101"/>
      <point x="406" y="101" type="curve" smooth="yes"/>
      <point x="269" y="101"/>
      <point x="154" y="211"/>
      <point x="154" y="350" type="curve" smooth="yes"/>
      <point x="154" y="489"/>
      <point x="268" y="597"/>
      <point x="406" y="597" type="curve" smooth="yes"/>
      <point x="543" y="597"/>
      <point x="655" y="489"/>
    </contour>
  </outline>
</glyph>
<glyph name="R" format="1">
  <advance width="723"/>
  <unicode hex="0052"/>
  <outline>
    <contour>
      <point x="360" y="0" type="move" name="blwm"/>
    </contour>
    <contour>
      <point x="355" y="700" type="move" name="abvm"/>
    </contour>
    <contour>
      <point x="546" y="458" type="curve" smooth="yes"/>
      <point x="546" y="363"/>
      <point x="485" y="317"/>
      <point x="377" y="317" type="curve" smooth="yes"/>
      <point x="210" y="317" type="line"/>
      <point x="210" y="594" type="line"/>
      <point x="377" y="594" type="line" smooth="yes"/>
      <point x="485" y="594"/>
      <point x="546" y="550"/>
    </contour>
    <contour>
      <point x="210.0" y="211.0" type="line"/>
      <point x="376.0" y="211.0" type="line" smooth="yes"/>
      <point x="387.052055192" y="211.0"/>
      <point x="397.814380281" y="211.350725914"/>
      <point x="408.28062" y="212.04691" type="curve"/>
      <point x="536" y="0" type="line"/>
      <point x="671" y="0" type="line"/>
      <point x="513.62095" y="234.25962" type="line"/>
      <point x="606.711225583" y="270.877607272"/>
      <point x="658.0" y="349.506477852"/>
      <point x="658.0" y="461.0" type="curve" smooth="yes"/>
      <point x="658" y="613"/>
      <point x="555" y="700"/>
      <point x="376" y="700" type="curve" smooth="yes"/>
      <point x="92.0" y="699.995" type="line"/>
      <point x="92.0" y="0" type="line"/>
      <point x="210.0" y="0" type="line"/>
    </contour>
  </outline>
</glyph>
<glyph name="T" format="1">
  <advance width="579"/>
  <unicode hex="0054"/>
  <outline>
    <contour>
      <point x="276" y="0" type="move" name="blwm"/>
    </contour>
    <contour>
      <point x="283" y="350" type="move" name="center"/>
    </contour>
    <contour>
      <point x="297" y="700" type="move" name="abvm"/>
    </contour>
    <contour>
      <point x="9" y="700" type="line"/>
      <point x="9" y="594" type="line"/>
      <point x="230" y="594" type="line"/>
      <point x="230" y="0" type="line"/>
      <point x="348" y="0" type="line"/>
      <point x="348" y="594" type="line"/>
      <point x="570" y="594" type="line"/>
      <point x="570" y="700" type="line"/>
    </contour>
  </outline>
</glyph>
<glyph name="U" format="1">
  <advance width="764"/>
  <unicode hex="0055"/>
  <outline>
    <contour>
      <point x="543" y="10" type="move" name="ogonek"/>
    </contour>
    <contour>
      <point x="382" y="700" type="move" name="abvm"/>
    </contour>
    <contour>
      <point x="569" y="700" type="line"/>
      <point x="569" y="290" type="line" smooth="yes"/>
      <point x="569" y="171"/>
      <point x="498" y="101"/>
      <point x="384" y="101" type="curve" smooth="yes"/>
      <point x="270" y="101"/>
      <point x="196" y="172"/>
      <point x="196" y="290" type="curve" smooth="yes"/>
      <point x="196" y="700" type="line"/>
      <point x="78" y="700" type="line"/>
      <point x="78" y="290" type="line" smooth="yes"/>
      <point x="78" y="107"/>
      <point x="195" y="-5"/>
      <point x="384" y="-5" type="curve" smooth="yes"/>
      <point x="572" y="-5"/>
      <point x="687" y="107"/>
      <point x="687" y="290" type="curve" smooth="yes"/>
      <point x="687" y="700" type="line"/>
    </contour>
  </outline>
</glyph>
<glyph name="V" format="1">
  <advance width="690"/>
  <unicode hex="0056"/>
  <outline>
    <contour>
      <point x="564" y="700" type="line"/>
      <point x="346" y="131" type="line"/>
      <point x="130" y="700" type="line"/>
      <point x="3" y="700" type="line"/>
      <point x="282" y="0" type="line"/>
      <point x="404" y="0" type="line"/>
      <point x="687" y="700" type="line"/>
    </contour>
  </outline>
</glyph>
<glyph name="Y" format="1">
  <advance width="637"/>
  <unicode hex="0059"/>
  <outline>
    <contour>
      <point x="318" y="700" type="move" name="abvm"/>
    </contour>
    <contour>
      <point x="380.0" y="0" type="line"/>
      <point x="380.0" y="234.54545" type="line"/>
      <point x="636" y="700.0" type="line"/>
      <point x="516" y="700.0" type="line"/>
      <point x="320" y="359.0" type="line"/>
      <point x="120.0" y="700.0" type="line"/>
      <point x="1" y="700.0" type="line"/>
      <point x="262" y="230.03215" type="line"/>
      <point x="262" y="0" type="line"/>
    </contour>
  </outline>
</glyph>
<glyph name="Z" format="1">
  <advance width="666"/>
  <unicode hex="005A"/>
  <outline>
    <contour>
      <point x="342" y="700" type="move" name="abvm"/>
    </contour>
    <contour>
      <point x="50" y="700" type="line"/>
      <point x="50" y="594" type="line"/>
      <point x="464" y="594" type="line"/>
      <point x="37" y="85" type="line"/>
      <point x="37" y="0" type="line"/>
      <point x="628" y="0" type="line"/>
      <point x="628" y="106" type="line"/>
      <point x="197" y="106" type="line"/>
      <point x="623" y="615" type="line"/>
      <point x="623" y="700" type="line"/>
    </contour>
  </outline>
</glyph>
<glyph name="bracketleft" format="1">
  <advance width="345"/>
  <unicode hex="005B"/>
  <outline>
    <contour>
      <point x="92" y="742" type="line"/>
      <point x="92" y="-124" type="line"/>
      <point x="318" y="-124" type="line"/>
      <point x="318" y="-32" type="line"/>
      <point x="195" y="-32" type="line"/>
      <point x="195" y="650" type="line"/>
      <point x="318" y="650" type="line"/>
      <point x="318" y="742" type="line"/>
    </contour>
  </outline>
</glyph>
<glyph name="backslash" format="1">
  <advance width="331"/>
  <unicode hex="005C"/>
  <outline>
    <contour>
      <point x="-63" y="816" type="line"/>
      <point x="253" y="-117" type="line"/>
      <point x="351" y="-117" type="line"/>
      <point x="34" y="816" type="line"/>
    </contour>
  </outline>
</glyph>
<glyph name="asciicircum" format="1">
  <advance width="543"/>
  <unicode hex="005E"/>
  <outline>
    <contour>
      <point x="322" y="526" type="line"/>
      <point x="221" y="526" type="line"/>
      <point x="35" y="132" type="line"/>
      <point x="124" y="132" type="line"/>
      <point x="272" y="455" type="line"/>
      <point x="419" y="132" type="line"/>
      <point x="508" y="132" type="line"/>
    </contour>
  </outline>
</glyph>
<glyph name="underscore" format="1">
  <advance width="566"/>
  <unicode hex="005F"/>
  <outline>
    <contour>
      <point x="0" y="-134" type="line"/>
      <point x="0" y="-204" type="line"/>
      <point x="566" y="-204" type="line"/>
      <point x="566" y="-134" type="line"/>
    </contour>
  </outline>
</glyph>
<glyph name="a" format="1">
  <advance width="586"/>
  <unicode hex="0061"/>
  <outline>
    <contour>
      <point x="546" y="10" type="move" name="ogonek"/>
    </contour>
    <contour>
      <point x="290" y="532" type="move" name="abvm"/>
    </contour>
    <contour>
      <point x="252.0" y="86.0" type="curve" smooth="yes"/>
      <point x="188" y="86"/>
      <point x="149" y="117"/>
      <point x="149" y="165" type="curve" smooth="yes"/>
      <point x="149" y="216"/>
      <point x="184" y="236"/>
      <point x="259" y="236" type="curve" smooth="yes"/>
      <point x="403.29762" y="236.0" type="line"/>
      <point x="403.44125" y="187.73939" type="line"/>
      <point x="396.648732869" y="129.233466679"/>
      <point x="333.522976366" y="86.0"/>
    </contour>
    <contour>
      <point x="404.0" y="0" type="line"/>
      <point x="517" y="0" type="line"/>
      <point x="516" y="349.0" type="line" smooth="yes"/>
      <point x="515" y="466"/>
      <point x="438" y="536"/>
      <point x="301" y="536" type="curve" smooth="yes"/>
      <point x="200" y="536"/>
      <point x="146" y="513"/>
      <point x="72" y="469" type="curve"/>
      <point x="119.0" y="389.0" type="line"/>
      <point x="172" y="425"/>
      <point x="225" y="443"/>
      <point x="276" y="443" type="curve" smooth="yes"/>
      <point x="360" y="443"/>
      <point x="403" y="403"/>
      <point x="403" y="336" type="curve"/>
      <point x="403.04762" y="320" type="line"/>
      <point x="242.0" y="320" type="line" smooth="yes"/>
      <point x="114" y="319"/>
      <point x="41" y="257"/>
      <point x="41" y="160" type="curve" smooth="yes"/>
      <point x="41" y="66"/>
      <point x="113" y="-5"/>
      <point x="228" y="-5" type="curve" smooth="yes"/>
      <point x="305.31956647" y="-5.0"/>
      <point x="366.078702582" y="18.1846025006"/>
      <point x="403.80779" y="64.58268" type="curve"/>
    </contour>
  </outline>
</glyph>
<glyph name="b" format="1">
  <advance width="680"/>
  <unicode hex="0062"/>
  <outline>
    <contour>
      <point x="393.0" y="-4.0" type="curve" smooth="yes"/>
      <point x="545" y="-4"/>
      <point x="645" y="105"/>
      <point x="645" y="264" type="curve" smooth="yes"/>
      <point x="645" y="426"/>
      <point x="542" y="536"/>
      <point x="391" y="536" type="curve" smooth="yes"/>
      <point x="307.660683481" y="536.0"/>
      <point x="243.68124645" y="502.035299145"/>
      <point x="205.0" y="439.63075" type="curve"/>
      <point x="205.0" y="742.0" type="line"/>
      <point x="90.0" y="742.0" type="line"/>
      <point x="90.0" y="0" type="line"/>
      <point x="205.0" y="0" type="line"/>
      <point x="205.0" y="91.75793" type="line"/>
      <point x="243.719352997" y="30.2104914891"/>
      <point x="308.028785504" y="-4.0"/>
    </contour>
    <contour>
      <point x="529" y="268" type="curve" smooth="yes"/>
      <point x="529" y="166"/>
      <point x="462" y="94"/>
      <point x="367" y="94" type="curve" smooth="yes"/>
      <point x="272" y="94"/>
      <point x="205" y="165"/>
      <point x="205" y="268" type="curve" smooth="yes"/>
      <point x="205" y="368"/>
      <point x="272" y="440"/>
      <point x="367" y="440" type="curve" smooth="yes"/>
      <point x="462" y="440"/>
      <point x="529" y="367"/>
    </contour>
  </outline>
</glyph>
<glyph name="d" format="1">
  <advance width="682"/>
  <unicode hex="0064"/>
  <outline>
    <contour>
      <point x="-12" y="0" type="move" name="center"/>
    </contour>
    <contour>
      <point x="477" y="264" type="curve" smooth="yes"/>
      <point x="477" y="163"/>
      <point x="410" y="91"/>
      <point x="314" y="91" type="curve" smooth="yes"/>
      <point x="217" y="91"/>
      <point x="151" y="163"/>
      <point x="150" y="264" type="curve" smooth="yes"/>
      <point x="151" y="366"/>
      <point x="218" y="439"/>
      <point x="314" y="439" type="curve" smooth="yes"/>
      <point x="410" y="439"/>
      <point x="477" y="367"/>
    </contour>
    <contour>
      <point x="477.0" y="0" type="line"/>
      <point x="592" y="0" type="line"/>
      <point x="592" y="742.0" type="line"/>
      <point x="477.0" y="742.0" type="line"/>
      <point x="477.0" y="440.31135" type="line"/>
      <point x="438.186909726" y="502.407425497"/>
      <point x="373.606884369" y="537.0"/>
      <point x="288.0" y="537.0" type="curve" smooth="yes"/>
      <point x="138" y="537"/>
      <point x="35" y="428"/>
      <point x="35" y="268" type="curve" smooth="yes"/>
      <point x="35" y="106"/>
      <point x="137" y="-5"/>
      <point x="290" y="-5" type="curve" smooth="yes"/>
      <point x="374.693187893" y="-5.0"/>
      <point x="438.523078888" y="29.3234884453"/>
      <point x="477.0" y="91.34363" type="curve"/>
    </contour>
  </outline>
</glyph>
<glyph name="e" format="1">
  <advance width="588"/>
  <unicode hex="0065"/>
  <outline>
    <contour>
      <point x="301" y="0" type="move" name="blwm"/>
    </contour>
    <contour>
      <point x="529" y="10" type="move" name="ogonek"/>
    </contour>
    <contour>
      <point x="299" y="532" type="move" name="abvm"/>
    </contour>
    <contour>
      <point x="305.0" y="444.0" type="curve" smooth="yes"/>
      <point x="392" y="444"/>
      <point x="449" y="392"/>
      <point x="453" y="306" type="curve"/>
      <point x="148.54579" y="306" type="line"/>
      <point x="161.308092568" y="390.899182915"/>
      <point x="221.050183566" y="444.0"/>
    </contour>
    <contour>
      <point x="527" y="86" type="curve"/>
      <point x="466.0" y="151" type="line"/>
      <point x="427" y="111"/>
      <point x="374" y="89"/>
      <point x="316" y="89" type="curve" smooth="yes"/>
      <point x="231.661620154" y="89.0"/>
      <point x="168.662127254" y="139.502032436"/>
      <point x="150.99735" y="222.0" type="curve"/>
      <point x="553" y="222.0" type="line"/>
      <point x="567" y="414"/>
      <point x="491" y="536"/>
      <point x="304" y="536" type="curve" smooth="yes"/>
      <point x="146" y="535"/>
      <point x="35" y="426"/>
      <point x="35" y="265" type="curve" smooth="yes"/>
      <point x="35" y="105"/>
      <point x="143" y="-4"/>
      <point x="307" y="-4" type="curve" smooth="yes"/>
      <point x="399" y="-4"/>
      <point x="475" y="29.005"/>
    </contour>
  </outline>
</glyph>
<glyph name="f" format="1">
  <advance width="343"/>
  <unicode hex="0066"/>
  <outline>
    <contour>
      <point x="360.0" y="426.0" type="line"/>
      <point x="360.0" y="512" type="line"/>
      <point x="221.0" y="512" type="line"/>
      <point x="221.0" y="575" type="line"/>
      <point x="221" y="625"/>
      <point x="254" y="647"/>
      <point x="293" y="647" type="curve"/>
      <point x="317" y="647"/>
      <point x="344" y="638"/>
      <point x="366" y="622" type="curve"/>
      <point x="410.0" y="710.0" type="line"/>
      <point x="376" y="735"/>
      <point x="333" y="747"/>
      <point x="290" y="747" type="curve"/>
      <point x="198" y="747"/>
      <point x="107" y="688"/>
      <point x="107" y="564" type="curve" smooth="yes"/>
      <point x="107.0" y="512" type="line"/>
      <point x="37" y="512" type="line"/>
      <point x="37" y="426.0" type="line"/>
      <point x="107.0" y="426.0" type="line"/>
      <point x="107.0" y="0" type="line"/>
      <point x="221.0" y="0" type="line"/>
      <point x="221.0" y="426.0" type="line"/>
    </contour>
  </outline>
</glyph>
<glyph name="h" format="1">
  <advance width="669"/>
  <unicode hex="0068"/>
  <outline>
    <contour>
      <point x="620" y="0" type="move" name="blwm"/>
    </contour>
    <contour>
      <point x="335" y="267" type="move" name="center"/>
    </contour>
    <contour>
      <point x="146" y="742" type="move" name="abvm"/>
    </contour>
    <contour>
      <point x="261" y="535" type="move" name="topright"/>
    </contour>
    <contour>
      <point x="205.0" y="262" type="line"/>
      <point x="205" y="356"/>
      <point x="262" y="427"/>
      <point x="357" y="428" type="curve" smooth="yes"/>
      <point x="437" y="428"/>
      <point x="485" y="379"/>
      <point x="485" y="299" type="curve" smooth="yes"/>
      <point x="485.0" y="0" type="line"/>
      <point x="600" y="0" type="line"/>
      <point x="600" y="331" type="line" smooth="yes"/>
      <point x="600" y="458"/>
      <point x="526" y="536"/>
      <point x="402" y="536" type="curve" smooth="yes"/>
      <point x="311.293453408" y="536.0"/>
      <point x="242.520758862" y="503.306145064"/>
      <point x="205.0" y="428.03611" type="curve"/>
      <point x="205.0" y="742.0" type="line"/>
      <point x="90.0" y="742.0" type="line"/>
      <point x="90.0" y="0" type="line"/>
      <point x="205.0" y="0" type="line"/>
    </contour>
  </outline>
</glyph>
<glyph name="i" format="1">
  <advance width="284"/>
  <unicode hex="0069"/>
  <outline>
    <contour>
      <point x="142" y="532" type="move" name="_abvm"/>
    </contour>
    <contour>
      <point x="249" y="10" type="move" name="ogonek"/>
    </contour>
    <contour>
      <point x="142" y="532" type="move" name="abvm"/>
    </contour>
    <contour>
      <point x="75" y="684" type="curve" smooth="yes"/>
      <point x="75" y="644"/>
      <point x="103" y="615"/>
      <point x="142" y="615" type="curve" smooth="yes"/>
      <point x="180" y="615"/>
      <point x="208" y="644"/>
      <point x="208" y="684" type="curve" smooth="yes"/>
      <point x="208" y="725"/>
      <point x="180" y="754"/>
      <point x="142" y="754" type="curve" smooth="yes"/>
      <point x="103" y="754"/>
      <point x="75" y="725"/>
    </contour>
    <contour>
      <point x="85" y="532" type="line"/>
      <point x="85" y="0" type="line"/>
      <point x="199" y="0" type="line"/>
      <point x="199" y="532" type="line"/>
    </contour>
  </outline>
</glyph>
<glyph name="k" format="1">
  <advance width="595"/>
  <unicode hex="006B"/>
  <outline>
    <contour>
      <point x="123" y="0" type="move" name="blwm"/>
    </contour>
    <contour>
      <point x="148" y="742" type="move" name="abvm"/>
    </contour>
    <contour>
      <point x="266" y="532" type="move" name="topright"/>
    </contour>
    <contour>
      <point x="451.0" y="0" type="line"/>
      <point x="587" y="0" type="line"/>
      <point x="374.79218" y="326.40036" type="line"/>
      <point x="572" y="532" type="line"/>
      <point x="440.0" y="532" type="line"/>
      <point x="205.0" y="294.11066" type="line"/>
      <point x="205.0" y="742.0" type="line"/>
      <point x="90.0" y="742.0" type="line"/>
      <point x="90.0" y="0" type="line"/>
      <point x="205.0" y="0" type="line"/>
      <point x="205.0" y="149.38298" type="line"/>
      <point x="295.2931" y="243.51834" type="line"/>
    </contour>
  </outline>
</glyph>
<glyph name="l" format="1">
  <advance width="295"/>
  <unicode hex="006C"/>
  <outline>
    <contour>
      <point x="148" y="0" type="move" name="blwm"/>
    </contour>
    <contour>
      <point x="148" y="742" type="move" name="abvm"/>
    </contour>
    <contour>
      <point x="266" y="532" type="move" name="topright"/>
    </contour>
    <contour>
      <point x="90" y="742" type="line"/>
      <point x="90" y="0" type="line"/>
      <point x="205" y="0" type="line"/>
      <point x="205" y="742" type="line"/>
    </contour>
  </outline>
</glyph>
<glyph name="m" format="1">
  <advance width="1043"/>
  <unicode hex="006D"/>
  <outline>
    <contour>
      <point x="199.0" y="263" type="line"/>
      <point x="199" y="356"/>
      <point x="255" y="426"/>
      <point x="347" y="429" type="curve" smooth="yes"/>
      <point x="425" y="429"/>
      <point x="472" y="380"/>
      <point x="472" y="299" type="curve" smooth="yes"/>
      <point x="472.0" y="0" type="line"/>
      <point x="587" y="0" type="line"/>
      <point x="587" y="263" type="line"/>
      <point x="587" y="356"/>
      <point x="642" y="426"/>
      <point x="733" y="429" type="curve" smooth="yes"/>
      <point x="811" y="429"/>
      <point x="859" y="380"/>
      <point x="859" y="299" type="curve" smooth="yes"/>
      <point x="859.0" y="0" type="line"/>
      <point x="974.0" y="0" type="line"/>
      <point x="974.0" y="331" type="line" smooth="yes"/>
      <point x="974" y="458"/>
      <point x="901" y="536"/>
      <point x="779" y="536" type="curve" smooth="yes"/>
      <point x="682.450387218" y="536.0"/>
      <point x="610.864711326" y="497.330372267"/>
      <point x="576.57166" y="407.62711" type="curve"/>
      <point x="552.356585793" y="488.65495241"/>
      <point x="487.049493742" y="536.0"/>
      <point x="392.0" y="536.0" type="curve" smooth="yes"/>
      <point x="303.56404401" y="536.0"/>
      <point x="236.072576253" y="503.556577051"/>
      <point x="199.0" y="429.17963" type="curve"/>
      <point x="199.0" y="532" type="line"/>
      <point x="85" y="532" type="line"/>
      <point x="85" y="0" type="line"/>
      <point x="199.0" y="0" type="line"/>
    </contour>
  </outline>
</glyph>
<glyph name="n" format="1">
  <advance width="663"/>
  <unicode hex="006E"/>
  <outline>
    <contour>
      <point x="336" y="0" type="move" name="blwm"/>
    </contour>
    <contour>
      <point x="346" y="532" type="move" name="abvm"/>
    </contour>
    <contour>
      <point x="351.0" y="428.0" type="curve" smooth="yes"/>
      <point x="431" y="428"/>
      <point x="479" y="379"/>
      <point x="479" y="299" type="curve" smooth="yes"/>
      <point x="479.0" y="0" type="line"/>
      <point x="594" y="0" type="line"/>
      <point x="594" y="331" type="line" smooth="yes"/>
      <point x="594" y="458"/>
      <point x="520" y="536"/>
      <point x="396" y="536" type="curve" smooth="yes"/>
      <point x="306.093416551" y="536.0"/>
      <point x="237.735511168" y="503.880272318"/>
      <point x="200.0" y="430.03586" type="curve"/>
      <point x="200.0" y="532" type="line"/>
      <point x="85" y="532" type="line"/>
      <point x="85" y="0" type="line"/>
      <point x="200.0" y="0" type="line"/>
      <point x="200.0" y="283.04078" type="line"/>
      <point x="207.979368576" y="366.492762033"/>
      <point x="263.296028108" y="427.076800296"/>
    </contour>
  </outline>
</glyph>
<glyph name="r" format="1">
  <advance width="394"/>
  <unicode hex="0072"/>
  <outline>
    <contour>
      <point x="140" y="0" type="move" name="blwm"/>
    </contour>
    <contour>
      <point x="203" y="532" type="move" name="abvm"/>
    </contour>
    <contour>
      <point x="384.0" y="426.0" type="curve"/>
      <point x="384.0" y="536" type="line"/>
      <point x="299.574466365" y="536.0"/>
      <point x="235.876864069" y="498.063974718"/>
      <point x="200.0" y="426.3223" type="curve"/>
      <point x="200.0" y="532" type="line"/>
      <point x="85" y="532" type="line"/>
      <point x="85" y="0" type="line"/>
      <point x="200.0" y="0" type="line"/>
      <point x="200.0" y="277.60691" type="line"/>
      <point x="208.917081395" y="368.737451469"/>
      <point x="276.968689497" y="431.584242287"/>
    </contour>
  </outline>
</glyph>
<glyph name="t" format="1">
  <advance width="407"/>
  <unicode hex="0074"/>
  <outline>
    <contour>
      <point x="245" y="0" type="move" name="blwm"/>
    </contour>
    <contour>
      <point x="204" y="266" type="move" name="center"/>
    </contour>
    <contour>
      <point x="386" y="34" type="curve"/>
      <point x="357.0" y="122.0" type="line"/>
      <point x="326" y="107"/>
      <point x="301" y="99"/>
      <point x="277" y="99" type="curve"/>
      <point x="241" y="99"/>
      <point x="220" y="116"/>
      <point x="220" y="171" type="curve"/>
      <point x="220.0" y="426.0" type="line"/>
      <point x="377.0" y="426.0" type="line"/>
      <point x="377.0" y="512" type="line"/>
      <point x="220.0" y="512" type="line"/>
      <point x="220.0" y="658" type="line"/>
      <point x="106.0" y="658" type="line"/>
      <point x="106.0" y="512" type="line"/>
      <point x="31.0" y="512" type="line"/>
      <point x="31.0" y="426.0" type="line"/>
      <point x="106.0" y="426.0" type="line"/>
      <point x="106.0" y="150" type="line"/>
      <point x="106" y="41"/>
      <point x="175" y="-5"/>
      <point x="255" y="-5" type="curve"/>
      <point x="300" y="-5"/>
      <point x="344" y="9"/>
    </contour>
  </outline>
</glyph>
<glyph name="u" format="1">
  <advance width="653"/>
  <unicode hex="0075"/>
  <outline>
    <contour>
      <point x="594" y="10" type="move" name="ogonek"/>
    </contour>
    <contour>
      <point x="323" y="532" type="move" name="abvm"/>
    </contour>
    <contour>
      <point x="453.0" y="0" type="line"/>
      <point x="568" y="0" type="line"/>
      <point x="568" y="532" type="line"/>
      <point x="453.0" y="532" type="line"/>
      <point x="453.0" y="270" type="line"/>
      <point x="453" y="177"/>
      <point x="399" y="106"/>
      <point x="307" y="104" type="curve" smooth="yes"/>
      <point x="230" y="104"/>
      <point x="183" y="153"/>
      <point x="183" y="233" type="curve" smooth="yes"/>
      <point x="183.0" y="532" type="line"/>
      <point x="68" y="532" type="line"/>
      <point x="68" y="201.0" type="line" smooth="yes"/>
      <point x="68" y="74"/>
      <point x="141" y="-4"/>
      <point x="263" y="-4" type="curve" smooth="yes"/>
      <point x="350.409820191" y="-3.35728073389"/>
      <point x="416.752149575" y="29.5063068244"/>
      <point x="453.0" y="104.44272" type="curve"/>
    </contour>
  </outline>
</glyph>
<glyph name="v" format="1">
  <advance width="525"/>
  <unicode hex="0076"/>
  <outline>
    <contour>
      <point x="415" y="532" type="line"/>
      <point x="269" y="113" type="line"/>
      <point x="121" y="532" type="line"/>
      <point x="1" y="532" type="line"/>
      <point x="207" y="0" type="line"/>
      <point x="326" y="0" type="line"/>
      <point x="530" y="532" type="line"/>
    </contour>
  </outline>
</glyph>
<glyph name="z" format="1">
  <advance width="537"/>
  <unicode hex="007A"/>
  <outline>
    <contour>
      <point x="268" y="532" type="move" name="abvm"/>
    </contour>
    <contour>
      <point x="54" y="532" type="line"/>
      <point x="54" y="438" type="line"/>
      <point x="349" y="438" type="line"/>
      <point x="45" y="78" type="line"/>
      <point x="45" y="0" type="line"/>
      <point x="500" y="-1" type="line"/>
      <point x="500" y="93" type="line"/>
      <point x="187" y="94" type="line"/>
      <point x="491" y="454" type="line"/>
      <point x="491" y="531" type="line"/>
    </contour>
  </outline>
</glyph>
<glyph name="braceleft" format="1">
  <advance width="329"/>
  <unicode hex="007B"/>
  <outline>
    <contour>
      <point x="308" y="-126.0" type="line"/>
      <point x="308" y="-34" type="line"/>
      <point x="238" y="-34"/>
      <point x="213" y="-13"/>
      <point x="213" y="37" type="curve" smooth="yes"/>
      <point x="213.0" y="201.0" type="line" smooth="yes"/>
      <point x="213.0" y="264.208606505"/>
      <point x="195.00640449" y="295.178687722"/>
      <point x="144.73742" y="308.18044" type="curve"/>
      <point x="195.00640449" y="321.83930278"/>
      <point x="213.0" y="352.925522173"/>
      <point x="213.0" y="417.0" type="curve" smooth="yes"/>
      <point x="213.0" y="581" type="line" smooth="yes"/>
      <point x="213" y="630"/>
      <point x="238" y="651"/>
      <point x="308" y="651" type="curve"/>
      <point x="308" y="743.0" type="line"/>
      <point x="265" y="743.0" type="line" smooth="yes"/>
      <point x="153" y="743"/>
      <point x="110" y="708"/>
      <point x="110" y="615" type="curve" smooth="yes"/>
      <point x="110.0" y="409.0" type="line" smooth="yes"/>
      <point x="110" y="371"/>
      <point x="96" y="356"/>
      <point x="66" y="356" type="curve" smooth="yes"/>
      <point x="35" y="356.0" type="line"/>
      <point x="35" y="261" type="line"/>
      <point x="66" y="261" type="line" smooth="yes"/>
      <point x="96" y="261"/>
      <point x="110" y="246"/>
      <point x="110" y="208" type="curve" smooth="yes"/>
      <point x="110.0" y="1" type="line" smooth="yes"/>
      <point x="110" y="-91"/>
      <point x="153" y="-126"/>
      <point x="265" y="-126" type="curve" smooth="yes"/>
    </contour>
  </outline>
</glyph>
<glyph name="bar" format="1">
  <advance width="269"/>
  <unicode hex="007C"/>
  <outline>
    <contour>
      <point x="91" y="810" type="line"/>
      <point x="91" y="-116" type="line"/>
      <point x="178" y="-116" type="line"/>
      <point x="178" y="810" type="line"/>
    </contour>
  </outline>
</glyph>
<glyph name="braceright" format="1">
  <advance width="339"/>
  <unicode hex="007D"/>
  <outline>
    <contour>
      <point x="47.0" y="-126.0" type="line"/>
      <point x="90.0" y="-126.0" type="line" smooth="yes"/>
      <point x="202" y="-126"/>
      <point x="245" y="-91"/>
      <point x="245" y="1" type="curve" smooth="yes"/>
      <point x="245.0" y="208.0" type="line" smooth="yes"/>
      <point x="245" y="246"/>
      <point x="259" y="261"/>
      <point x="289" y="261" type="curve" smooth="yes"/>
      <point x="320" y="261" type="line"/>
      <point x="320" y="356.0" type="line"/>
      <point x="289" y="356.0" type="line"/>
      <point x="259" y="356"/>
      <point x="245" y="371"/>
      <point x="245" y="409" type="curve" smooth="yes"/>
      <point x="245.0" y="615" type="line" smooth="yes"/>
      <point x="245" y="708"/>
      <point x="202" y="743"/>
      <point x="90" y="743" type="curve" smooth="yes"/>
      <point x="47.0" y="743.0" type="line"/>
      <point x="47.0" y="651" type="line"/>
      <point x="117" y="651"/>
      <point x="142" y="630"/>
      <point x="142" y="581" type="curve" smooth="yes"/>
      <point x="142" y="417.0" type="line" smooth="yes"/>
      <point x="142.0" y="352.925522173"/>
      <point x="159.99359551" y="321.83930278"/>
      <point x="210.26258" y="308.18044" type="curve"/>
      <point x="159.99359551" y="295.178687722"/>
      <point x="142.0" y="264.208606505"/>
      <point x="142.0" y="201.0" type="curve" smooth="yes"/>
      <point x="142" y="37" type="line" smooth="yes"/>
      <point x="142" y="-13"/>
      <point x="117" y="-34"/>
      <point x="47" y="-34" type="curve"/>
    </contour>
  </outline>
</glyph>
<glyph name="exclamdown" format="1">
  <advance width="239"/>
  <unicode hex="00A1"/>
  <outline>
    <contour>
      <point x="179" y="474" type="curve" smooth="yes"/>
      <point x="179" y="512"/>
      <point x="153" y="539"/>
      <point x="118" y="539" type="curve" smooth="yes"/>
      <point x="82" y="539"/>
      <point x="56" y="512"/>
      <point x="56" y="474" type="curve" smooth="yes"/>
      <point x="56" y="437"/>
      <point x="82" y="410"/>
      <point x="118" y="410" type="curve" smooth="yes"/>
      <point x="153" y="410"/>
      <point x="179" y="437"/>
    </contour>
    <contour>
      <point x="170" y="-161" type="line"/>
      <point x="170" y="12" type="line"/>
      <point x="151" y="308" type="line"/>
      <point x="79" y="308" type="line"/>
      <point x="61" y="12" type="line"/>
      <point x="61" y="-161" type="line"/>
    </contour>
  </outline>
</glyph>
<glyph name="cent" format="1">
  <advance width="564"/>
  <unicode hex="00A2"/>
  <note>
    cent
  </note>
  <outline>
    <contour>
      <point x="346" y="-2" type="line"/>
      <point x="426" y="7"/>
      <point x="488" y="42"/>
      <point x="529" y="95" type="curve"/>
      <point x="465.0" y="159" type="line"/>
      <point x="436" y="125"/>
      <point x="396" y="104"/>
      <point x="346" y="97" type="curve"/>
      <point x="346" y="433.0" type="line"/>
      <point x="393" y="425"/>
      <point x="431" y="405"/>
      <point x="460" y="375" type="curve"/>
      <point x="523" y="449.0" type="line"/>
      <point x="481" y="496"/>
      <point x="421" y="526"/>
      <point x="346" y="534" type="curve"/>
      <point x="346" y="684" type="line"/>
      <point x="259" y="684" type="line"/>
      <point x="259" y="533" type="line"/>
      <point x="125" y="514"/>
      <point x="35" y="410"/>
      <point x="35" y="265" type="curve" smooth="yes"/>
      <point x="35" y="120"/>
      <point x="125" y="17"/>
      <point x="259" y="-1" type="curve"/>
      <point x="259" y="-142" type="line"/>
      <point x="346" y="-142" type="line"/>
    </contour>
    <contour>
      <point x="259" y="102.0" type="line"/>
      <point x="193" y="122"/>
      <point x="150" y="183"/>
      <point x="150" y="265" type="curve" smooth="yes"/>
      <point x="150" y="347"/>
      <point x="193" y="408"/>
      <point x="259" y="428" type="curve"/>
    </contour>
  </outline>
</glyph>
<glyph name="currency" format="1">
  <advance width="711"/>
  <unicode hex="00A4"/>
  <note>
    currency
  </note>
  <outline>
    <contour>
      <point x="576" y="470" type="curve"/>
      <point x="676" y="570" type="line"/>
      <point x="611" y="639" type="line"/>
      <point x="508" y="537" type="line"/>
      <point x="464" y="566"/>
      <point x="412" y="583"/>
      <point x="355" y="583" type="curve" smooth="yes"/>
      <point x="299" y="583"/>
      <point x="246" y="566"/>
      <point x="203" y="536" type="curve"/>
      <point x="100" y="639" type="line"/>
      <point x="35" y="570" type="line"/>
      <point x="135" y="470" type="line"/>
      <point x="105" y="427"/>
      <point x="87" y="375"/>
      <point x="87" y="319" type="curve" smooth="yes"/>
      <point x="87" y="263"/>
      <point x="106" y="210"/>
      <point x="137" y="168" type="curve"/>
      <point x="35" y="65" type="line"/>
      <point x="100" y="-4" type="line"/>
      <point x="206" y="102" type="line"/>
      <point x="249" y="74"/>
      <point x="300" y="57"/>
      <point x="355" y="57" type="curve" smooth="yes"/>
      <point x="410" y="57"/>
      <point x="462" y="74"/>
      <point x="505" y="102" type="curve"/>
      <point x="611" y="-4" type="line"/>
      <point x="676" y="65" type="line"/>
      <point x="574" y="167" type="line"/>
      <point x="606" y="210"/>
      <point x="625" y="263"/>
      <point x="625" y="319" type="curve" smooth="yes"/>
      <point x="625" y="375"/>
      <point x="607" y="427"/>
    </contour>
    <contour>
      <point x="179" y="319" type="curve" smooth="yes"/>
      <point x="179" y="411"/>
      <point x="258" y="486"/>
      <point x="355" y="486" type="curve" smooth="yes"/>
      <point x="454" y="486"/>
      <point x="534" y="411"/>
      <point x="534" y="319" type="curve" smooth="yes"/>
      <point x="534" y="229"/>
      <point x="454" y="155"/>
      <point x="355" y="155" type="curve" smooth="yes"/>
      <point x="258" y="155"/>
      <point x="179" y="229"/>
    </contour>
  </outline>
</glyph>
<glyph name="yen" format="1">
  <advance width="628"/>
  <unicode hex="00A5"/>
  <note>
    yen
  </note>
  <outline>
    <contour>
      <point x="636" y="700" type="line"/>
      <point x="516" y="700" type="line"/>
      <point x="320" y="359" type="line"/>
      <point x="120" y="700" type="line"/>
      <point x="1" y="700" type="line"/>
      <point x="210" y="322" type="line"/>
      <point x="75" y="322" type="line"/>
      <point x="75" y="272" type="line"/>
      <point x="238" y="272" type="line"/>
      <point x="262" y="230" type="line"/>
      <point x="262" y="189" type="line"/>
      <point x="75" y="189" type="line"/>
      <point x="75" y="139" type="line"/>
      <point x="262" y="139" type="line"/>
      <point x="262" y="0" type="line"/>
      <point x="380" y="0" type="line"/>
      <point x="380" y="139" type="line"/>
      <point x="575" y="139" type="line"/>
      <point x="575" y="189" type="line"/>
      <point x="380" y="189" type="line"/>
      <point x="380" y="234" type="line"/>
      <point x="401" y="272" type="line"/>
      <point x="575" y="272" type="line"/>
      <point x="575" y="322" type="line"/>
      <point x="429" y="322" type="line"/>
    </contour>
  </outline>
</glyph>
<glyph name="brokenbar" format="1">
  <advance width="269"/>
  <unicode hex="00A6"/>
  <outline>
    <contour>
      <point x="91" y="810" type="line"/>
      <point x="91" y="464" type="line"/>
      <point x="178" y="464" type="line"/>
      <point x="178" y="810" type="line"/>
    </contour>
    <contour>
      <point x="91" y="230" type="line"/>
      <point x="91" y="-116" type="line"/>
      <point x="178" y="-116" type="line"/>
      <point x="178" y="230" type="line"/>
    </contour>
  </outline>
</glyph>
<glyph name="dieresis" format="1">
  <advance width="388"/>
  <unicode hex="00A8"/>
  <outline>
    <contour>
      <point x="175" y="532" type="move" name="_abvm"/>
    </contour>
    <contour>
      <point x="26.064" y="689.072" type="curve" smooth="yes"/>
      <point x="26.064" y="652.752"/>
      <point x="51.488" y="626.42"/>
      <point x="86.9" y="626.42" type="curve" smooth="yes"/>
      <point x="121.404" y="626.42"/>
      <point x="146.828" y="652.752"/>
      <point x="146.828" y="689.072" type="curve" smooth="yes"/>
      <point x="146.828" y="726.3"/>
      <point x="121.404" y="752.632"/>
      <point x="86.9" y="752.632" type="curve" smooth="yes"/>
      <point x="51.488" y="752.632"/>
      <point x="26.064" y="726.3"/>
    </contour>
    <contour>
      <point x="203.064" y="689.072" type="curve" smooth="yes"/>
      <point x="203.064" y="652.752"/>
      <point x="228.488" y="626.42"/>
      <point x="263.9" y="626.42" type="curve" smooth="yes"/>
      <point x="298.404" y="626.42"/>
      <point x="323.828" y="652.752"/>
      <point x="323.828" y="689.072" type="curve" smooth="yes"/>
      <point x="323.828" y="726.3"/>
      <point x="298.404" y="752.632"/>
      <point x="263.9" y="752.632" type="curve" smooth="yes"/>
      <point x="228.488" y="752.632"/>
      <point x="203.064" y="726.3"/>
    </contour>
  </outline>
</glyph>
<glyph name="logicalnot" format="1">
  <advance width="563"/>
  <unicode hex="00AC"/>
  <outline>
    <contour>
      <point x="487.0" y="145" type="line"/>
      <point x="487.0" y="404.0" type="line"/>
      <point x="35" y="404.0" type="line"/>
      <point x="35" y="325" type="line"/>
      <point x="402.0" y="325" type="line"/>
      <point x="402.0" y="145" type="line"/>
    </contour>
  </outline>
</glyph>
<glyph name="registered" format="1">
  <advance width="745"/>
  <unicode hex="00AE"/>
  <outline>
    <contour>
      <point x="34" y="348" type="curve" smooth="yes"/>
      <point x="34" y="163"/>
      <point x="181" y="9"/>
      <point x="371" y="9" type="curve" smooth="yes"/>
      <point x="562" y="9"/>
      <point x="711" y="165"/>
      <point x="711" y="350" type="curve" smooth="yes"/>
      <point x="711" y="536"/>
      <point x="563" y="689"/>
      <point x="373" y="689" type="curve" smooth="yes"/>
      <point x="182" y="689"/>
      <point x="34" y="533"/>
    </contour>
    <contour>
      <point x="654" y="350" type="curve" smooth="yes"/>
      <point x="654" y="197"/>
      <point x="531" y="69"/>
      <point x="371" y="69" type="curve" smooth="yes"/>
      <point x="212" y="69"/>
      <point x="91" y="195"/>
      <point x="91" y="348" type="curve" smooth="yes"/>
      <point x="91" y="501"/>
      <point x="213" y="629"/>
      <point x="373" y="629" type="curve" smooth="yes"/>
      <point x="532" y="629"/>
      <point x="654" y="503"/>
    </contour>
    <contour>
      <point x="463" y="411" type="curve" smooth="yes"/>
      <point x="463" y="366"/>
      <point x="432" y="340"/>
      <point x="380" y="340" type="curve" smooth="yes"/>
      <point x="301" y="340" type="line"/>
      <point x="301" y="480" type="line"/>
      <point x="380" y="480" type="line" smooth="yes"/>
      <point x="432" y="480"/>
      <point x="463" y="456"/>
    </contour>
    <contour>
      <point x="301" y="292" type="line"/>
      <point x="380.0" y="292" type="line" smooth="yes"/>
      <point x="385.091397835" y="292.0"/>
      <point x="390.052246736" y="292.150633385"/>
      <point x="394.88061" y="292.46655" type="curve"/>
      <point x="458.0" y="190.0" type="line"/>
      <point x="524" y="190.0" type="line"/>
      <point x="446.29678" y="302.94072" type="line"/>
      <point x="492.234543205" y="320.523444366"/>
      <point x="517.0" y="358.680459899"/>
      <point x="517.0" y="412.0" type="curve" smooth="yes"/>
      <point x="517" y="486"/>
      <point x="468" y="528"/>
      <point x="380" y="528" type="curve" smooth="yes"/>
      <point x="244.0" y="528" type="line"/>
      <point x="244.0" y="190.0" type="line"/>
      <point x="301" y="190.0" type="line"/>
    </contour>
  </outline>
</glyph>
<glyph name="mu" format="1">
  <advance width="675"/>
  <unicode hex="00B5"/>
  <outline>
    <contour>
      <point x="285.0" y="-4.0" type="curve" smooth="yes"/>
      <point x="372.409820191" y="-3.35728073389"/>
      <point x="438.752149575" y="29.5063068244"/>
      <point x="475.0" y="104.44272" type="curve"/>
      <point x="475.0" y="0" type="line"/>
      <point x="590" y="0" type="line"/>
      <point x="590" y="532" type="line"/>
      <point x="475.0" y="532" type="line"/>
      <point x="475.0" y="270" type="line"/>
      <point x="475" y="177"/>
      <point x="421" y="106"/>
      <point x="329" y="104" type="curve" smooth="yes"/>
      <point x="252" y="104"/>
      <point x="205" y="153"/>
      <point x="205" y="233" type="curve" smooth="yes"/>
      <point x="205.0" y="532" type="line"/>
      <point x="90.0" y="532" type="line"/>
      <point x="90.0" y="-194.0" type="line"/>
      <point x="205.0" y="-194.0" type="line"/>
      <point x="205.0" y="9.44901" type="line"/>
      <point x="228.535729198" y="0.617135979666"/>
      <point x="255.317610349" y="-4.0"/>
    </contour>
  </outline>
</glyph>
<glyph name="paragraph" format="1">
  <advance width="615"/>
  <unicode hex="00B6"/>
  <outline>
    <contour>
      <point x="224" y="742" type="line" smooth="yes"/>
      <point x="62" y="742"/>
      <point x="-1" y="645"/>
      <point x="-1" y="545" type="curve" smooth="yes"/>
      <point x="-1" y="471"/>
      <point x="37" y="356"/>
      <point x="186" y="356" type="curve" smooth="yes"/>
      <point x="217" y="356" type="line"/>
      <point x="217" y="-109" type="line"/>
      <point x="304" y="-109" type="line"/>
      <point x="304" y="670" type="line"/>
      <point x="435" y="670" type="line"/>
      <point x="435" y="-109" type="line"/>
      <point x="523" y="-109" type="line"/>
      <point x="523" y="742" type="line"/>
    </contour>
  </outline>
</glyph>
<glyph name="periodcentered" format="1">
  <advance width="214"/>
  <unicode hex="00B7"/>
  <outline>
    <contour>
      <point x="46" y="279" type="curve" smooth="yes"/>
      <point x="46" y="241"/>
      <point x="72" y="214"/>
      <point x="107" y="214" type="curve" smooth="yes"/>
      <point x="143" y="214"/>
      <point x="169" y="241"/>
      <point x="169" y="279" type="curve" smooth="yes"/>
      <point x="169" y="316"/>
      <point x="143" y="343"/>
      <point x="107" y="343" type="curve" smooth="yes"/>
      <point x="72" y="343"/>
      <point x="46" y="316"/>
    </contour>
  </outline>
</glyph>
<glyph name="onesuperior" format="1">
  <advance width="262"/>
  <unicode hex="00B9"/>
  <outline>
    <contour>
      <point x="182" y="700" type="line"/>
      <point x="16" y="700" type="line"/>
      <point x="16" y="631" type="line"/>
      <point x="99" y="631" type="line"/>
      <point x="99" y="287" type="line"/>
      <point x="182" y="287" type="line"/>
    </contour>
  </outline>
</glyph>
<glyph name="questiondown" format="1">
  <advance width="443"/>
  <unicode hex="00BF"/>
  <outline>
    <contour>
      <point x="297" y="474" type="curve" smooth="yes"/>
      <point x="297" y="512"/>
      <point x="271" y="539"/>
      <point x="236" y="539" type="curve" smooth="yes"/>
      <point x="200" y="539"/>
      <point x="174" y="512"/>
      <point x="174" y="474" type="curve" smooth="yes"/>
      <point x="174" y="437"/>
      <point x="200" y="410"/>
      <point x="236" y="410" type="curve" smooth="yes"/>
      <point x="271" y="410"/>
      <point x="297" y="437"/>
    </contour>
    <contour>
      <point x="348" y="36" type="line"/>
      <point x="345" y="-32"/>
      <point x="305" y="-66"/>
      <point x="240" y="-66" type="curve" smooth="yes"/>
      <point x="179" y="-66"/>
      <point x="137" y="-38"/>
      <point x="137" y="20" type="curve" smooth="yes"/>
      <point x="137" y="141"/>
      <point x="276" y="141"/>
      <point x="276" y="303" type="curve"/>
      <point x="188" y="303" type="line"/>
      <point x="188" y="168"/>
      <point x="31" y="161"/>
      <point x="31" y="2" type="curve" smooth="yes"/>
      <point x="31" y="-106"/>
      <point x="111" y="-164"/>
      <point x="230" y="-164" type="curve" smooth="yes"/>
      <point x="355" y="-164"/>
      <point x="434" y="-92"/>
      <point x="438" y="35" type="curve"/>
    </contour>
  </outline>
</glyph>
<glyph name="Aring" format="1">
  <advance width="738"/>
  <unicode hex="00C5"/>
  <outline>
    <contour>
      <point x="440" y="774" type="curve" smooth="yes"/>
      <point x="440" y="738"/>
      <point x="409" y="709"/>
      <point x="371" y="709" type="curve" smooth="yes"/>
      <point x="333" y="709"/>
      <point x="302" y="738"/>
      <point x="302" y="774" type="curve" smooth="yes"/>
      <point x="302" y="810"/>
      <point x="333" y="840"/>
      <point x="371" y="840" type="curve" smooth="yes"/>
      <point x="409" y="840"/>
      <point x="440" y="810"/>
    </contour>
    <contour>
      <point x="368.0" y="574" type="line"/>
      <point x="499.66028" y="263" type="line"/>
      <point x="235.79791" y="263" type="line"/>
    </contour>
    <contour>
      <point x="611" y="0" type="line"/>
      <point x="738.0" y="0" type="line"/>
      <point x="442.57252" y="675.81449" type="line"/>
      <point x="473.723748248" y="697.908406651"/>
      <point x="494.0" y="733.92657815"/>
      <point x="494.0" y="774.0" type="curve" smooth="yes"/>
      <point x="494" y="841"/>
      <point x="439" y="896"/>
      <point x="371" y="896" type="curve" smooth="yes"/>
      <point x="304" y="896"/>
      <point x="249" y="841"/>
      <point x="249" y="774" type="curve" smooth="yes"/>
      <point x="249.0" y="734.21408612"/>
      <point x="268.986350294" y="698.425442299"/>
      <point x="299.53962" y="676.30334" type="curve"/>
      <point x="1" y="0" type="line"/>
      <point x="124.0" y="0" type="line"/>
      <point x="191.16376" y="158" type="line"/>
      <point x="544.1115" y="158" type="line"/>
    </contour>
  </outline>
</glyph>
<glyph name="AE" format="1">
  <advance width="1051"/>
  <unicode hex="00C6"/>
  <outline>
    <contour>
      <point x="727" y="0" type="move" name="blwm"/>
    </contour>
    <contour>
      <point x="996" y="10" type="move" name="ogonek"/>
    </contour>
    <contour>
      <point x="626" y="700" type="move" name="abvm"/>
    </contour>
    <contour>
      <point x="464.0" y="602" type="line"/>
      <point x="488.0" y="602" type="line"/>
      <point x="488.0" y="265" type="line"/>
      <point x="274.22757" y="265" type="line"/>
    </contour>
    <contour>
      <point x="488.0" y="0" type="line"/>
      <point x="999.0" y="0" type="line"/>
      <point x="999.0" y="106.0" type="line"/>
      <point x="605" y="106.0" type="line"/>
      <point x="605" y="299" type="line"/>
      <point x="948.0" y="299" type="line"/>
      <point x="948.0" y="404.0" type="line"/>
      <point x="605" y="404.0" type="line"/>
      <point x="605" y="594" type="line"/>
      <point x="987.0" y="594" type="line"/>
      <point x="987.0" y="700.0" type="line"/>
      <point x="408.0" y="700.0" type="line"/>
      <point x="1" y="0" type="line"/>
      <point x="125.0" y="0" type="line"/>
      <point x="222.42027" y="173" type="line"/>
      <point x="488.0" y="173" type="line"/>
    </contour>
  </outline>
</glyph>
<glyph name="Eth" format="1">
  <advance width="795"/>
  <unicode hex="00D0"/>
  <outline>
    <contour>
      <point x="396.0" y="0" type="line" smooth="yes"/>
      <point x="608" y="0"/>
      <point x="761" y="148"/>
      <point x="761" y="350" type="curve" smooth="yes"/>
      <point x="761" y="553"/>
      <point x="609" y="700"/>
      <point x="399" y="700" type="curve" smooth="yes"/>
      <point x="112.0" y="699.995" type="line"/>
      <point x="112.0" y="386.0" type="line"/>
      <point x="0" y="386.0" type="line"/>
      <point x="0" y="317" type="line"/>
      <point x="112.0" y="317" type="line"/>
      <point x="112.0" y="0" type="line"/>
    </contour>
    <contour>
      <point x="230.0" y="106.0" type="line"/>
      <point x="230.0" y="317" type="line"/>
      <point x="428.0" y="317" type="line"/>
      <point x="428.0" y="386.0" type="line"/>
      <point x="230.0" y="386.0" type="line"/>
      <point x="230.0" y="594" type="line"/>
      <point x="398.0" y="594" type="line" smooth="yes"/>
      <point x="536" y="594"/>
      <point x="642" y="492"/>
      <point x="642" y="349" type="curve" smooth="yes"/>
      <point x="642" y="207"/>
      <point x="538" y="106"/>
      <point x="403" y="106" type="curve" smooth="yes"/>
    </contour>
  </outline>
</glyph>
<glyph name="multiply" format="1">
  <advance width="498"/>
  <unicode hex="00D7"/>
  <outline>
    <contour>
      <point x="374.0" y="145" type="line"/>
      <point x="427.0" y="201.0" type="line"/>
      <point x="303.90759" y="324.5" type="line"/>
      <point x="427.0" y="448.0" type="line"/>
      <point x="374.0" y="504.0" type="line"/>
      <point x="249.5" y="379.08775" type="line"/>
      <point x="125.0" y="504.0" type="line"/>
      <point x="72" y="448.0" type="line"/>
      <point x="195.09241" y="324.5" type="line"/>
      <point x="72" y="201.0" type="line"/>
      <point x="125.0" y="145" type="line"/>
      <point x="249.5" y="269.91225" type="line"/>
    </contour>
  </outline>
</glyph>
<glyph name="Oslash" format="1">
  <advance width="810"/>
  <unicode hex="00D8"/>
  <outline>
    <contour>
      <point x="397" y="700" type="move" name="abvm"/>
    </contour>
    <contour>
      <point x="154.0" y="350.0" type="curve" smooth="yes"/>
      <point x="154" y="489"/>
      <point x="268" y="597"/>
      <point x="406" y="597" type="curve" smooth="yes"/>
      <point x="418.769045348" y="597.0"/>
      <point x="431.320912744" y="596.061791248"/>
      <point x="443.58516" y="594.24035" type="curve"/>
      <point x="286.64575" y="130.87178" type="line"/>
      <point x="208.263058091" y="172.72126424"/>
      <point x="154.0" y="254.518768274"/>
    </contour>
    <contour>
      <point x="406" y="101" type="curve" smooth="yes"/>
      <point x="386.124592545" y="101.0"/>
      <point x="366.712219886" y="103.315173976"/>
      <point x="348.04685" y="107.70887" type="curve"/>
      <point x="507.17027" y="576.04372" type="line"/>
      <point x="594.093891132" y="538.147889161"/>
      <point x="655.0" y="452.502915004"/>
      <point x="655.0" y="350.0" type="curve" smooth="yes"/>
      <point x="655" y="211"/>
      <point x="543" y="101"/>
    </contour>
    <contour>
      <point x="405.0" y="-5.0" type="curve" smooth="yes"/>
      <point x="614" y="-5"/>
      <point x="776" y="150"/>
      <point x="776" y="350" type="curve" smooth="yes"/>
      <point x="776.0" y="503.298382579"/>
      <point x="680.823403889" y="628.983802089"/>
      <point x="542.25719" y="679.31218" type="curve"/>
      <point x="587" y="811.0" type="line"/>
      <point x="517" y="811.0" type="line"/>
      <point x="478.22833" y="696.52541" type="line"/>
      <point x="454.633572036" y="700.783202429"/>
      <point x="430.157274534" y="703.0"/>
      <point x="405.0" y="703.0" type="curve" smooth="yes"/>
      <point x="196" y="703"/>
      <point x="34" y="551"/>
      <point x="34" y="350" type="curve" smooth="yes"/>
      <point x="34.0" y="202.963722427"/>
      <point x="121.559651036" y="80.2495701421"/>
      <point x="250.98262" y="25.57525" type="curve"/>
      <point x="201.0" y="-122.0" type="line"/>
      <point x="270" y="-122.0" type="line"/>
      <point x="313.28072" y="5.38457" type="line"/>
      <point x="342.496072241" y="-1.41259594132"/>
      <point x="373.204139376" y="-5.0"/>
    </contour>
  </outline>
</glyph>
<glyph name="Thorn" format="1">
  <advance width="679"/>
  <unicode hex="00DE"/>
  <outline>
    <contour>
      <point x="352.0" y="503.0" type="line" smooth="yes"/>
      <point x="471" y="503"/>
      <point x="533" y="455"/>
      <point x="533" y="364" type="curve" smooth="yes"/>
      <point x="533" y="269"/>
      <point x="471" y="220"/>
      <point x="352" y="220" type="curve" smooth="yes"/>
      <point x="210.0" y="220.0" type="line"/>
      <point x="210.0" y="503.0" type="line"/>
    </contour>
    <contour>
      <point x="357.0" y="122.0" type="line" smooth="yes"/>
      <point x="547" y="122"/>
      <point x="654" y="211"/>
      <point x="654" y="367" type="curve" smooth="yes"/>
      <point x="654" y="516"/>
      <point x="547" y="601"/>
      <point x="357" y="601" type="curve" smooth="yes"/>
      <point x="210.0" y="601" type="line"/>
      <point x="210.0" y="700.0" type="line"/>
      <point x="92.0" y="699.995" type="line"/>
      <point x="92.0" y="0" type="line"/>
      <point x="210.0" y="0" type="line"/>
      <point x="210.0" y="122.0" type="line"/>
    </contour>
  </outline>
</glyph>
<glyph name="ae" format="1">
  <advance width="975"/>
  <unicode hex="00E6"/>
  <outline>
    <contour>
      <point x="488" y="532" type="move" name="abvm"/>
    </contour>
    <contour>
      <point x="678.0" y="452.0" type="curve" smooth="yes"/>
      <point x="765" y="452"/>
      <point x="823" y="390"/>
      <point x="826" y="303" type="curve"/>
      <point x="521.02178" y="303" type="line"/>
      <point x="532.585692886" y="390.119921866"/>
      <point x="592.836467078" y="452.0"/>
    </contour>
    <contour>
      <point x="253" y="76" type="curve" smooth="yes"/>
      <point x="190" y="76"/>
      <point x="149" y="112"/>
      <point x="149" y="165" type="curve" smooth="yes"/>
      <point x="149" y="216"/>
      <point x="191" y="244"/>
      <point x="265" y="244" type="curve" smooth="yes"/>
      <point x="405.67647" y="244.0" type="line"/>
      <point x="406.0" y="200.0" type="line"/>
      <point x="429.01558" y="194.70438" type="line"/>
      <point x="430.954947865" y="185.401316317"/>
      <point x="433.287254952" y="176.393474467"/>
      <point x="436.00106" y="167.69295" type="curve"/>
      <point x="414.0" y="187.0" type="line"/>
      <point x="381" y="106"/>
      <point x="324" y="76"/>
    </contour>
    <contour>
      <point x="680.0" y="-4.0" type="curve" smooth="yes"/>
      <point x="772" y="-4"/>
      <point x="848" y="29"/>
      <point x="901" y="86" type="curve"/>
      <point x="839.0" y="151" type="line"/>
      <point x="800" y="111"/>
      <point x="747" y="89"/>
      <point x="689" y="89" type="curve" smooth="yes"/>
      <point x="598.584277416" y="89.0"/>
      <point x="532.693563504" y="147.042520521"/>
      <point x="520.89381" y="241.0" type="curve"/>
      <point x="941.0" y="241.0" type="line"/>
      <point x="947" y="417"/>
      <point x="843" y="536"/>
      <point x="677" y="536" type="curve" smooth="yes"/>
      <point x="597.961562221" y="536.0"/>
      <point x="532.533308857" y="506.644700281"/>
      <point x="487.74614" y="456.0528" type="curve"/>
      <point x="453.027998577" y="507.344190243"/>
      <point x="389.295060613" y="536.0"/>
      <point x="301.0" y="536.0" type="curve" smooth="yes"/>
      <point x="224" y="536"/>
      <point x="147" y="513"/>
      <point x="72" y="472" type="curve"/>
      <point x="101.0" y="389.0" type="line"/>
      <point x="160" y="424"/>
      <point x="220" y="443"/>
      <point x="277" y="443" type="curve" smooth="yes"/>
      <point x="361" y="443"/>
      <point x="405" y="403"/>
      <point x="405" y="336" type="curve"/>
      <point x="405.22059" y="306" type="line"/>
      <point x="243.0" y="306" type="line" smooth="yes"/>
      <point x="116" y="305"/>
      <point x="41" y="251"/>
      <point x="41" y="155" type="curve" smooth="yes"/>
      <point x="41" y="61"/>
      <point x="113" y="-5"/>
      <point x="227" y="-5" type="curve" smooth="yes"/>
      <point x="332.057454129" y="-5.0"/>
      <point x="411.183977094" y="38.218218608"/>
      <point x="453.93264" y="123.87793" type="curve"/>
      <point x="495.309634393" y="44.3236557782"/>
      <point x="574.798064742" y="-4.0"/>
    </contour>
  </outline>
</glyph>
<glyph name="eth" format="1">
  <advance width="589"/>
  <unicode hex="00F0"/>
  <outline>
    <contour>
      <point x="282" y="-5" type="curve" smooth="yes"/>
      <point x="448" y="-5"/>
      <point x="555" y="101"/>
      <point x="555" y="265" type="curve" smooth="yes"/>
      <point x="555.0" y="386.85433215"/>
      <point x="499.765996468" y="506.736021317"/>
      <point x="404.90998" y="603.58042" type="curve"/>
      <point x="503.0" y="636" type="line"/>
      <point x="484.0" y="696.0" type="line"/>
      <point x="351.63434" y="652.12809" type="line"/>
      <point x="306.469731396" y="688.916568264"/>
      <point x="254.880085351" y="721.05009931"/>
      <point x="198.0" y="747.0" type="curve"/>
      <point x="122.0" y="694" type="line"/>
      <point x="166.132390575" y="672.506952642"/>
      <point x="207.965291305" y="646.414925597"/>
      <point x="246.11015" y="617.15266" type="curve"/>
      <point x="131" y="579" type="line"/>
      <point x="149" y="519" type="line"/>
      <point x="301.99125" y="569.5649" type="line"/>
      <point x="369.044624853" y="506.140915137"/>
      <point x="418.940056334" y="433.270587229"/>
      <point x="441.0" y="362.0" type="curve"/>
      <point x="409" y="411"/>
      <point x="339" y="443"/>
      <point x="263" y="443" type="curve" smooth="yes"/>
      <point x="125" y="443"/>
      <point x="36" y="357"/>
      <point x="36" y="224" type="curve" smooth="yes"/>
      <point x="36" y="85"/>
      <point x="133" y="-5"/>
    </contour>
    <contour>
      <point x="433" y="226" type="curve" smooth="yes"/>
      <point x="433" y="148"/>
      <point x="377" y="97"/>
      <point x="288" y="97" type="curve" smooth="yes"/>
      <point x="202" y="97"/>
      <point x="146" y="149"/>
      <point x="146" y="231" type="curve" smooth="yes"/>
      <point x="146" y="309"/>
      <point x="202" y="359"/>
      <point x="288" y="359" type="curve" smooth="yes"/>
      <point x="377" y="359"/>
      <point x="433" y="307"/>
    </contour>
  </outline>
</glyph>
<glyph name="divide" format="1">
  <advance width="498"/>
  <unicode hex="00F7"/>
  <outline>
    <contour>
      <point x="182.064" y="508.072" type="curve" smooth="yes"/>
      <point x="182.064" y="471.752"/>
      <point x="207.488" y="445.42"/>
      <point x="242.9" y="445.42" type="curve" smooth="yes"/>
      <point x="277.404" y="445.42"/>
      <point x="302.828" y="471.752"/>
      <point x="302.828" y="508.072" type="curve" smooth="yes"/>
      <point x="302.828" y="545.3"/>
      <point x="277.404" y="571.632"/>
      <point x="242.9" y="571.632" type="curve" smooth="yes"/>
      <point x="207.488" y="571.632"/>
      <point x="182.064" y="545.3"/>
    </contour>
    <contour>
      <point x="35" y="364" type="line"/>
      <point x="35" y="285" type="line"/>
      <point x="463" y="285" type="line"/>
      <point x="463" y="364" type="line"/>
    </contour>
    <contour>
      <point x="182.064" y="153.072" type="curve" smooth="yes"/>
      <point x="182.064" y="116.752"/>
      <point x="207.488" y="90.42"/>
      <point x="242.9" y="90.42" type="curve" smooth="yes"/>
      <point x="277.404" y="90.42"/>
      <point x="302.828" y="116.752"/>
      <point x="302.828" y="153.072" type="curve" smooth="yes"/>
      <point x="302.828" y="190.3"/>
      <point x="277.404" y="216.632"/>
      <point x="242.9" y="216.632" type="curve" smooth="yes"/>
      <point x="207.488" y="216.632"/>
      <point x="182.064" y="190.3"/>
    </contour>
  </outline>
</glyph>
<glyph name="oslash" format="1">
  <advance width="625"/>
  <unicode hex="00F8"/>
  <outline>
    <contour>
      <point x="313" y="532" type="move" name="abvm"/>
    </contour>
    <contour>
      <point x="144.0" y="265.0" type="curve" smooth="yes"/>
      <point x="144" y="373"/>
      <point x="214" y="447"/>
      <point x="313" y="447" type="curve" smooth="yes"/>
      <point x="323.963841679" y="447.0"/>
      <point x="334.555045302" y="446.1104769"/>
      <point x="344.72353" y="444.3694" type="curve"/>
      <point x="233.86181" y="101.20582" type="line"/>
      <point x="178.730036575" y="129.307529426"/>
      <point x="144.0" y="188.223183879"/>
    </contour>
    <contour>
      <point x="313" y="83" type="curve" smooth="yes"/>
      <point x="301.901302058" y="83.0"/>
      <point x="291.167082413" y="83.9174798498"/>
      <point x="280.85511" y="85.70799" type="curve"/>
      <point x="391.7664" y="429.025" type="line"/>
      <point x="447.430190953" y="400.855113917"/>
      <point x="482.0" y="341.444756289"/>
      <point x="482.0" y="265.0" type="curve" smooth="yes"/>
      <point x="482" y="156"/>
      <point x="413" y="83"/>
    </contour>
    <contour>
      <point x="313.0" y="-4.0" type="curve" smooth="yes"/>
      <point x="477" y="-4"/>
      <point x="591" y="106"/>
      <point x="591" y="266" type="curve" smooth="yes"/>
      <point x="591.0" y="388.735168594"/>
      <point x="524.749197041" y="481.25067268"/>
      <point x="420.60127" y="518.28103" type="curve"/>
      <point x="468.0" y="665" type="line"/>
      <point x="416.0" y="665" type="line"/>
      <point x="372.67103" y="530.87866" type="line"/>
      <point x="353.665960672" y="534.258021255"/>
      <point x="333.732516745" y="536.0"/>
      <point x="313.0" y="536.0" type="curve" smooth="yes"/>
      <point x="148" y="536"/>
      <point x="35" y="427"/>
      <point x="35" y="266" type="curve" smooth="yes"/>
      <point x="35.0" y="143.798234558"/>
      <point x="100.916393629" y="50.7630149701"/>
      <point x="205.57213" y="13.63741" type="curve"/>
      <point x="154" y="-146" type="line"/>
      <point x="206.0" y="-146" type="line"/>
      <point x="253.51443" y="1.07712" type="line"/>
      <point x="272.445515823" y="-2.27108593362"/>
      <point x="292.314105496" y="-4.0"/>
    </contour>
  </outline>
</glyph>
<glyph name="thorn" format="1">
  <advance width="679"/>
  <unicode hex="00FE"/>
  <outline>
    <contour>
      <point x="148" y="0" type="move" name="blwm"/>
    </contour>
    <contour>
      <point x="148" y="742" type="move" name="abvm"/>
    </contour>
    <contour>
      <point x="266" y="532" type="move" name="topright"/>
    </contour>
    <contour>
      <point x="529" y="268" type="curve" smooth="yes"/>
      <point x="529" y="166"/>
      <point x="462" y="94"/>
      <point x="367" y="94" type="curve" smooth="yes"/>
      <point x="272" y="94"/>
      <point x="205" y="165"/>
      <point x="205" y="268" type="curve" smooth="yes"/>
      <point x="205" y="368"/>
      <point x="272" y="440"/>
      <point x="367" y="440" type="curve" smooth="yes"/>
      <point x="462" y="440"/>
      <point x="529" y="367"/>
    </contour>
    <contour>
      <point x="205.0" y="-194.0" type="line"/>
      <point x="205.0" y="91.75793" type="line"/>
      <point x="243.719352997" y="30.2104914891"/>
      <point x="308.028785504" y="-4.0"/>
      <point x="393.0" y="-4.0" type="curve" smooth="yes"/>
      <point x="545" y="-4"/>
      <point x="645" y="105"/>
      <point x="645" y="264" type="curve" smooth="yes"/>
      <point x="645" y="426"/>
      <point x="542" y="536"/>
      <point x="391" y="536" type="curve" smooth="yes"/>
      <point x="307.660683481" y="536.0"/>
      <point x="243.68124645" y="502.035299145"/>
      <point x="205.0" y="439.63075" type="curve"/>
      <point x="205.0" y="742.0" type="line"/>
      <point x="90.0" y="742.0" type="line"/>
      <point x="90.0" y="-194.0" type="line"/>
    </contour>
  </outline>
</glyph>
<glyph name="gcommaaccent" format="1">
  <advance width="640"/>
  <unicode hex="0123"/>
  <outline>
    <contour>
      <point x="315" y="581" type="curve" smooth="yes"/>
      <point x="350" y="581"/>
      <point x="376" y="608"/>
      <point x="376" y="645" type="curve" smooth="yes"/>
      <point x="376.0" y="665.817130673"/>
      <point x="367.377926144" y="685.13477024"/>
      <point x="349.44521" y="696.68987" type="curve"/>
      <point x="387.0" y="783.0" type="line"/>
      <point x="328" y="783.0" type="line"/>
      <point x="271" y="697.0" type="line" smooth="yes"/>
      <point x="261" y="681"/>
      <point x="254" y="664"/>
      <point x="254" y="645" type="curve" smooth="yes"/>
      <point x="254" y="605"/>
      <point x="282" y="581"/>
    </contour>
    <contour>
      <point x="451" y="280" type="curve" smooth="yes"/>
      <point x="451" y="184"/>
      <point x="388" y="116"/>
      <point x="298" y="116" type="curve" smooth="yes"/>
      <point x="206" y="116"/>
      <point x="144" y="184"/>
      <point x="143" y="280" type="curve" smooth="yes"/>
      <point x="144" y="375"/>
      <point x="207" y="443"/>
      <point x="298" y="443" type="curve" smooth="yes"/>
      <point x="388" y="443"/>
      <point x="451" y="376"/>
    </contour>
    <contour>
      <point x="289" y="-197" type="curve" smooth="yes"/>
      <point x="456" y="-197"/>
      <point x="565" y="-101"/>
      <point x="565" y="52" type="curve" smooth="yes"/>
      <point x="565" y="532" type="line"/>
      <point x="451.0" y="532" type="line"/>
      <point x="451.0" y="445.79728" type="line"/>
      <point x="414.028855621" y="504.279648079"/>
      <point x="352.515493166" y="536.582253523"/>
      <point x="271.0" y="536.0" type="curve" smooth="yes"/>
      <point x="130" y="535"/>
      <point x="35" y="433"/>
      <point x="35" y="283" type="curve" smooth="yes"/>
      <point x="35" y="130"/>
      <point x="131" y="26"/>
      <point x="275" y="26" type="curve" smooth="yes"/>
      <point x="354.687830357" y="26.0"/>
      <point x="414.702332206" y="58.0108396072"/>
      <point x="451.0" y="115.89713" type="curve"/>
      <point x="451.0" y="49.0" type="line" smooth="yes"/>
      <point x="451" y="-43"/>
      <point x="385" y="-102"/>
      <point x="284" y="-102" type="curve" smooth="yes"/>
      <point x="219" y="-102"/>
      <point x="167" y="-81"/>
      <point x="117" y="-44" type="curve"/>
      <point x="68" y="-127.0" type="line"/>
      <point x="133" y="-171"/>
      <point x="206" y="-197"/>
    </contour>
  </outline>
</glyph>
<glyph name="Hbar" format="1">
  <advance width="851"/>
  <unicode hex="0126"/>
  <outline>
    <contour>
      <point x="240.0" y="396.0" type="line"/>
      <point x="240.0" y="515" type="line"/>
      <point x="611" y="515" type="line"/>
      <point x="611" y="396.0" type="line"/>
    </contour>
    <contour>
      <point x="240.0" y="290" type="line"/>
      <point x="611" y="290" type="line"/>
      <point x="611" y="0" type="line"/>
      <point x="729.0" y="0" type="line"/>
      <point x="729.0" y="515" type="line"/>
      <point x="819.0" y="515" type="line"/>
      <point x="819.0" y="598" type="line"/>
      <point x="729.0" y="598" type="line"/>
      <point x="729.0" y="700.0" type="line"/>
      <point x="611" y="700.0" type="line"/>
      <point x="611" y="598" type="line"/>
      <point x="240.0" y="598" type="line"/>
      <point x="240.0" y="700.0" type="line"/>
      <point x="122.0" y="699.995" type="line"/>
      <point x="122.0" y="598" type="line"/>
      <point x="32" y="598" type="line"/>
      <point x="32" y="515" type="line"/>
      <point x="122.0" y="515" type="line"/>
      <point x="122.0" y="0" type="line"/>
      <point x="240.0" y="0" type="line"/>
    </contour>
  </outline>
</glyph>
<glyph name="hbar" format="1">
  <advance width="815"/>
  <unicode hex="0127"/>
  <outline>
    <contour>
      <point x="205.0" y="262" type="line"/>
      <point x="205" y="356"/>
      <point x="262" y="427"/>
      <point x="357" y="428" type="curve" smooth="yes"/>
      <point x="437" y="428"/>
      <point x="485" y="379"/>
      <point x="485" y="299" type="curve" smooth="yes"/>
      <point x="485.0" y="0" type="line"/>
      <point x="600" y="0" type="line"/>
      <point x="600" y="331" type="line" smooth="yes"/>
      <point x="600" y="458"/>
      <point x="526" y="536"/>
      <point x="402" y="536" type="curve" smooth="yes"/>
      <point x="311.293453408" y="536.0"/>
      <point x="242.520758862" y="503.306145064"/>
      <point x="205.0" y="428.03611" type="curve"/>
      <point x="205.0" y="589" type="line"/>
      <point x="346" y="589" type="line"/>
      <point x="346" y="658" type="line"/>
      <point x="205.0" y="658" type="line"/>
      <point x="205.0" y="742.0" type="line"/>
      <point x="90.0" y="742.0" type="line"/>
      <point x="90.0" y="658" type="line"/>
      <point x="6.0" y="658" type="line"/>
      <point x="6.0" y="589" type="line"/>
      <point x="90.0" y="589" type="line"/>
      <point x="90.0" y="0" type="line"/>
      <point x="205.0" y="0" type="line"/>
    </contour>
  </outline>
</glyph>
<glyph name="idotless" format="1">
  <advance width="284"/>
  <unicode hex="0131"/>
  <outline>
    <contour>
      <point x="249" y="10" type="move" name="ogonek"/>
    </contour>
    <contour>
      <point x="142" y="532" type="move" name="abvm"/>
    </contour>
    <contour>
      <point x="85" y="532" type="line"/>
      <point x="85" y="0" type="line"/>
      <point x="199" y="0" type="line"/>
      <point x="199" y="532" type="line"/>
    </contour>
  </outline>
</glyph>
<glyph name="kgreenlandic" format="1">
  <advance width="590"/>
  <unicode hex="0138"/>
  <outline>
    <contour>
      <point x="293" y="0" type="move" name="blwm"/>
    </contour>
    <contour>
      <point x="249" y="10" type="move" name="ogonek"/>
    </contour>
    <contour>
      <point x="142" y="532" type="move" name="abvm"/>
    </contour>
    <contour>
      <point x="446.0" y="0" type="line"/>
      <point x="582" y="0" type="line"/>
      <point x="369.79218" y="326.40036" type="line"/>
      <point x="567" y="532" type="line"/>
      <point x="435.0" y="532" type="line"/>
      <point x="199.0" y="294.06557" type="line"/>
      <point x="199.0" y="532" type="line"/>
      <point x="85" y="532" type="line"/>
      <point x="85" y="0" type="line"/>
      <point x="199.0" y="0" type="line"/>
      <point x="199.0" y="148.34043" type="line"/>
      <point x="290.63964" y="243.87963" type="line"/>
    </contour>
  </outline>
</glyph>
<glyph name="ldot" format="1">
  <advance width="330"/>
  <unicode hex="0140"/>
  <outline>
    <contour>
      <point x="90" y="742" type="line"/>
      <point x="90" y="0" type="line"/>
      <point x="205" y="0" type="line"/>
      <point x="205" y="742" type="line"/>
    </contour>
    <contour>
      <point x="239" y="309" type="curve" smooth="yes"/>
      <point x="239" y="273"/>
      <point x="265" y="246"/>
      <point x="301" y="246" type="curve" smooth="yes"/>
      <point x="336" y="246"/>
      <point x="362" y="273"/>
      <point x="362" y="309" type="curve" smooth="yes"/>
      <point x="362" y="347"/>
      <point x="336" y="374"/>
      <point x="301" y="374" type="curve" smooth="yes"/>
      <point x="265" y="374"/>
      <point x="239" y="347"/>
    </contour>
  </outline>
</glyph>
<glyph name="Lslash" format="1">
  <advance width="551"/>
  <unicode hex="0141"/>
  <outline>
    <contour>
      <point x="530" y="0" type="line"/>
      <point x="530" y="107.0" type="line"/>
      <point x="227.0" y="107.0" type="line"/>
      <point x="227.0" y="402.71316" type="line"/>
      <point x="406.0" y="455.0" type="line"/>
      <point x="386.0" y="532" type="line"/>
      <point x="227.0" y="485.13684" type="line"/>
      <point x="227.0" y="700.0" type="line"/>
      <point x="109.0" y="699.995" type="line"/>
      <point x="109.0" y="450.35789" type="line"/>
      <point x="6.0" y="420.0" type="line"/>
      <point x="26.0" y="344" type="line"/>
      <point x="109.0" y="368.24474" type="line"/>
      <point x="109.0" y="0" type="line"/>
    </contour>
  </outline>
</glyph>
<glyph name="lslash" format="1">
  <advance width="357"/>
  <unicode hex="0142"/>
  <outline>
    <contour>
      <point x="245.0" y="0" type="line"/>
      <point x="245.0" y="421.31657" type="line"/>
      <point x="360.0" y="455.0" type="line"/>
      <point x="340" y="532" type="line"/>
      <point x="245.0" y="503.89349" type="line"/>
      <point x="245.0" y="742.0" type="line"/>
      <point x="130" y="742.0" type="line"/>
      <point x="130" y="469.86982" type="line"/>
      <point x="2" y="432.0" type="line"/>
      <point x="22.0" y="356.0" type="line"/>
      <point x="130" y="387.63314" type="line"/>
      <point x="130" y="0" type="line"/>
    </contour>
  </outline>
</glyph>
<glyph name="Eng" format="1">
  <advance width="792"/>
  <unicode hex="014A"/>
  <outline>
    <contour>
      <point x="396" y="0" type="move" name="blwm"/>
    </contour>
    <contour>
      <point x="396" y="700" type="move" name="abvm"/>
    </contour>
    <contour>
      <point x="481" y="-204" type="curve" smooth="yes"/>
      <point x="613.29694684" y="-204.0"/>
      <point x="698.100019359" y="-124.843542797"/>
      <point x="698.99288" y="0" type="curve"/>
      <point x="699.0" y="0" type="line"/>
      <point x="699.0" y="700.0" type="line"/>
      <point x="583" y="700.0" type="line"/>
      <point x="583" y="197.0" type="line"/>
      <point x="208.0" y="700.0" type="line"/>
      <point x="92.0" y="700.0" type="line"/>
      <point x="92.0" y="0" type="line"/>
      <point x="210.0" y="0" type="line"/>
      <point x="210.0" y="502.0" type="line"/>
      <point x="579.27239" y="5.01678" type="line"/>
      <point x="573.602627788" y="-56.8722860203"/>
      <point x="535.220313812" y="-90.0"/>
      <point x="479.0" y="-90.0" type="curve" smooth="yes"/>
      <point x="437" y="-90"/>
      <point x="385" y="-72"/>
      <point x="341" y="-35" type="curve"/>
      <point x="285" y="-127.0" type="line"/>
      <point x="334" y="-176"/>
      <point x="401" y="-204"/>
    </contour>
  </outline>
</glyph>
<glyph name="eng" format="1">
  <advance width="663"/>
  <unicode hex="014B"/>
  <outline>
    <contour>
      <point x="336" y="0" type="move" name="blwm"/>
    </contour>
    <contour>
      <point x="346" y="532" type="move" name="abvm"/>
    </contour>
    <contour>
      <point x="421" y="-199" type="curve" smooth="yes"/>
      <point x="506" y="-199"/>
      <point x="594" y="-141"/>
      <point x="594" y="-16" type="curve" smooth="yes"/>
      <point x="594" y="331" type="line" smooth="yes"/>
      <point x="594" y="458"/>
      <point x="520" y="536"/>
      <point x="396" y="536" type="curve" smooth="yes"/>
      <point x="306.093416551" y="536.0"/>
      <point x="237.735511168" y="503.880272318"/>
      <point x="200.0" y="430.03586" type="curve"/>
      <point x="200.0" y="532" type="line"/>
      <point x="85" y="532" type="line"/>
      <point x="85" y="0" type="line"/>
      <point x="200.0" y="0" type="line"/>
      <point x="200.0" y="283.04078" type="line"/>
      <point x="207.979368576" y="366.492762033"/>
      <point x="263.296028108" y="427.076800296"/>
      <point x="351.0" y="428.0" type="curve" smooth="yes"/>
      <point x="431" y="428"/>
      <point x="479" y="379"/>
      <point x="479" y="299" type="curve" smooth="yes"/>
      <point x="479.0" y="-26.0" type="line" smooth="yes"/>
      <point x="479" y="-77"/>
      <point x="451" y="-98"/>
      <point x="416" y="-98" type="curve"/>
      <point x="394" y="-98"/>
      <point x="369" y="-89"/>
      <point x="348" y="-74" type="curve"/>
      <point x="310" y="-163" type="line"/>
      <point x="341" y="-186"/>
      <point x="381" y="-199"/>
    </contour>
  </outline>
</glyph>
<glyph name="OE" format="1">
  <advance width="1097"/>
  <unicode hex="0152"/>
  <outline>
    <contour>
      <point x="772" y="0" type="move" name="blwm"/>
    </contour>
    <contour>
      <point x="1041" y="10" type="move" name="ogonek"/>
    </contour>
    <contour>
      <point x="551" y="700" type="move" name="abvm"/>
    </contour>
    <contour>
      <point x="405.0" y="106.0" type="line"/>
      <point x="264" y="106"/>
      <point x="154" y="210"/>
      <point x="154" y="349" type="curve" smooth="yes"/>
      <point x="154" y="488"/>
      <point x="264" y="593"/>
      <point x="405" y="593" type="curve"/>
      <point x="533" y="593" type="line"/>
      <point x="533" y="106.0" type="line"/>
    </contour>
    <contour>
      <point x="404" y="0" type="curve"/>
      <point x="1045" y="0" type="line"/>
      <point x="1045" y="106.0" type="line"/>
      <point x="651" y="106.0" type="line"/>
      <point x="651" y="299" type="line"/>
      <point x="993.0" y="299" type="line"/>
      <point x="993.0" y="404.0" type="line"/>
      <point x="651" y="404.0" type="line"/>
      <point x="651" y="594" type="line"/>
      <point x="1033" y="594" type="line"/>
      <point x="1033" y="700.0" type="line"/>
      <point x="404.0" y="700.0" type="line"/>
      <point x="195" y="700"/>
      <point x="34" y="546"/>
      <point x="34" y="350" type="curve" smooth="yes"/>
      <point x="34" y="152"/>
      <point x="196" y="0"/>
    </contour>
  </outline>
</glyph>
<glyph name="oe" format="1">
  <advance width="1041"/>
  <unicode hex="0153"/>
  <outline>
    <contour>
      <point x="523" y="532" type="move" name="abvm"/>
    </contour>
    <contour>
      <point x="743.0" y="451.0" type="curve" smooth="yes"/>
      <point x="830" y="451"/>
      <point x="889" y="390"/>
      <point x="892" y="303" type="curve"/>
      <point x="584.12383" y="303" type="line"/>
      <point x="596.037345431" y="390.967929233"/>
      <point x="657.112044757" y="451.0"/>
    </contour>
    <contour>
      <point x="474" y="265" type="curve" smooth="yes"/>
      <point x="474" y="162"/>
      <point x="407" y="92"/>
      <point x="312" y="92" type="curve" smooth="yes"/>
      <point x="217" y="92"/>
      <point x="150" y="162"/>
      <point x="150" y="265" type="curve" smooth="yes"/>
      <point x="150" y="367"/>
      <point x="217" y="437"/>
      <point x="312" y="437" type="curve" smooth="yes"/>
      <point x="407" y="437"/>
      <point x="474" y="367"/>
    </contour>
    <contour>
      <point x="967" y="86" type="curve"/>
      <point x="905.0" y="151" type="line"/>
      <point x="865" y="111"/>
      <point x="812" y="89"/>
      <point x="754" y="89" type="curve" smooth="yes"/>
      <point x="662.449372733" y="89.0"/>
      <point x="595.547850513" y="147.336215279"/>
      <point x="583.83084" y="241.0" type="curve"/>
      <point x="1007.0" y="241.0" type="line"/>
      <point x="1012" y="417"/>
      <point x="908" y="536"/>
      <point x="742" y="536" type="curve" smooth="yes"/>
      <point x="645.921723059" y="536.0"/>
      <point x="571.705465599" y="491.466256612"/>
      <point x="530.428" y="417.57127" type="curve"/>
      <point x="488.516789432" y="491.591668305"/>
      <point x="412.573455442" y="536.0"/>
      <point x="313.0" y="536.0" type="curve" smooth="yes"/>
      <point x="148" y="536"/>
      <point x="35" y="427"/>
      <point x="35" y="266" type="curve" smooth="yes"/>
      <point x="35" y="106"/>
      <point x="148" y="-4"/>
      <point x="313" y="-4" type="curve" smooth="yes"/>
      <point x="412.12369862" y="-4.0"/>
      <point x="487.830260389" y="40.4118112713"/>
      <point x="529.858" y="113.84501" type="curve"/>
      <point x="570.923264801" y="40.279010261"/>
      <point x="645.571634116" y="-4.0"/>
      <point x="745.0" y="-4.0" type="curve" smooth="yes"/>
      <point x="837" y="-4"/>
      <point x="913" y="29"/>
    </contour>
  </outline>
</glyph>
<glyph name="Uogonek" format="1">
  <advance width="765"/>
  <unicode hex="0172"/>
  <outline>
    <contour>
      <point x="448" y="-201" type="curve" smooth="yes"/>
      <point x="485" y="-201"/>
      <point x="520" y="-180"/>
      <point x="543" y="-144" type="curve"/>
      <point x="510.0" y="-105.0" type="line"/>
      <point x="495" y="-124"/>
      <point x="479" y="-137"/>
      <point x="460" y="-137" type="curve" smooth="yes"/>
      <point x="443" y="-137"/>
      <point x="431" y="-125"/>
      <point x="431" y="-105" type="curve" smooth="yes"/>
      <point x="431.0" y="-80.9823614372"/>
      <point x="447.613192509" y="-44.966306062"/>
      <point x="484.38633" y="7.46891" type="curve"/>
      <point x="611.807850372" y="41.3511405532"/>
      <point x="687.0" y="142.664179658"/>
      <point x="687.0" y="290.0" type="curve" smooth="yes"/>
      <point x="687" y="700.0" type="line"/>
      <point x="569" y="700.0" type="line"/>
      <point x="569" y="290" type="line" smooth="yes"/>
      <point x="569" y="171"/>
      <point x="498" y="101"/>
      <point x="384" y="101" type="curve" smooth="yes"/>
      <point x="269" y="101"/>
      <point x="195" y="172"/>
      <point x="195" y="290" type="curve" smooth="yes"/>
      <point x="195.0" y="700.0" type="line"/>
      <point x="78" y="700.0" type="line"/>
      <point x="78" y="290" type="line" smooth="yes"/>
      <point x="78" y="107"/>
      <point x="194" y="-5"/>
      <point x="383" y="-5" type="curve" smooth="yes"/>
      <point x="394.753697829" y="-5.0"/>
      <point x="406.225968607" y="-4.56222458641"/>
      <point x="417.40606" y="-3.68709" type="curve"/>
      <point x="386.297288131" y="-48.9188815545"/>
      <point x="369.0" y="-87.5319215164"/>
      <point x="369.0" y="-123.0" type="curve" smooth="yes"/>
      <point x="369" y="-178"/>
      <point x="409" y="-201"/>
    </contour>
  </outline>
</glyph>
<glyph name="uogonek" format="1">
  <advance width="647"/>
  <unicode hex="0173"/>
  <outline>
    <contour>
      <point x="452" y="532" type="line"/>
      <point x="452" y="249" type="line" smooth="yes"/>
      <point x="444" y="167"/>
      <point x="391" y="106"/>
      <point x="307" y="104" type="curve" smooth="yes"/>
      <point x="230" y="104"/>
      <point x="182" y="153"/>
      <point x="182" y="233" type="curve" smooth="yes"/>
      <point x="182" y="532" type="line"/>
      <point x="68" y="532" type="line"/>
      <point x="68" y="201" type="line" smooth="yes"/>
      <point x="68" y="74"/>
      <point x="140" y="-4"/>
      <point x="262" y="-4" type="curve" smooth="yes"/>
      <point x="349" y="-3"/>
      <point x="415" y="29"/>
      <point x="452" y="99" type="curve"/>
      <point x="452" y="0" type="line"/>
      <point x="481" y="0" type="line"/>
      <point x="448" y="-47"/>
      <point x="429" y="-86"/>
      <point x="429" y="-123" type="curve" smooth="yes"/>
      <point x="429" y="-178"/>
      <point x="470" y="-201"/>
      <point x="508" y="-201" type="curve" smooth="yes"/>
      <point x="545" y="-201"/>
      <point x="580" y="-180"/>
      <point x="603" y="-144" type="curve"/>
      <point x="570" y="-105" type="line"/>
      <point x="555" y="-124"/>
      <point x="539" y="-137"/>
      <point x="521" y="-137" type="curve" smooth="yes"/>
      <point x="503" y="-137"/>
      <point x="491" y="-125"/>
      <point x="491" y="-105" type="curve" smooth="yes"/>
      <point x="491" y="-82"/>
      <point x="505" y="-48"/>
      <point x="541" y="0" type="curve"/>
      <point x="566" y="0" type="line"/>
      <point x="566" y="532" type="line"/>
    </contour>
  </outline>
</glyph>
<glyph name="florin" format="1">
  <advance width="372"/>
  <unicode hex="0192"/>
  <note>
    florin
  </note>
  <outline>
    <contour>
      <point x="405" y="629" type="curve"/>
      <point x="446" y="714" type="line"/>
      <point x="414" y="736"/>
      <point x="364" y="751"/>
      <point x="318" y="752" type="curve" smooth="yes"/>
      <point x="216" y="753"/>
      <point x="142" y="687"/>
      <point x="129" y="583" type="curve" smooth="yes"/>
      <point x="114" y="464" type="line"/>
      <point x="45" y="464" type="line"/>
      <point x="36" y="384" type="line"/>
      <point x="105" y="384" type="line"/>
      <point x="56" y="-13" type="line" smooth="yes"/>
      <point x="49" y="-68"/>
      <point x="25" y="-104"/>
      <point x="-22" y="-103" type="curve" smooth="yes"/>
      <point x="-43" y="-102"/>
      <point x="-69" y="-92"/>
      <point x="-87" y="-76" type="curve"/>
      <point x="-119" y="-161" type="line"/>
      <point x="-92" y="-183"/>
      <point x="-48" y="-198"/>
      <point x="-10" y="-199" type="curve" smooth="yes"/>
      <point x="92" y="-200"/>
      <point x="155" y="-134"/>
      <point x="168" y="-30" type="curve" smooth="yes"/>
      <point x="219" y="384" type="line"/>
      <point x="359" y="384" type="line"/>
      <point x="368" y="464" type="line"/>
      <point x="228" y="464" type="line"/>
      <point x="241" y="567" type="line" smooth="yes"/>
      <point x="248" y="622"/>
      <point x="285" y="656"/>
      <point x="334" y="655" type="curve" smooth="yes"/>
      <point x="357" y="655"/>
      <point x="385" y="645"/>
    </contour>
  </outline>
</glyph>
<glyph name="commaaccentcomb" format="1">
  <advance width="213"/>
  <unicode hex="0326"/>
  <outline>
    <contour>
      <point x="103" y="0" type="move" name="_blwm"/>
    </contour>
    <contour>
      <point x="95.0" y="-251.0" type="line"/>
      <point x="152" y="-165" type="line" smooth="yes"/>
      <point x="162" y="-149"/>
      <point x="169" y="-132"/>
      <point x="169" y="-113" type="curve" smooth="yes"/>
      <point x="169" y="-73"/>
      <point x="141" y="-49"/>
      <point x="108" y="-49" type="curve" smooth="yes"/>
      <point x="73" y="-49"/>
      <point x="47" y="-76"/>
      <point x="47" y="-113" type="curve" smooth="yes"/>
      <point x="47.0" y="-133.817130673"/>
      <point x="55.6220738558" y="-153.13477024"/>
      <point x="73.55479" y="-164.68987" type="curve"/>
      <point x="36" y="-251.0" type="line"/>
    </contour>
  </outline>
</glyph>
<glyph name="Delta" format="1">
  <advance width="738"/>
  <unicode hex="0394"/>
  <outline>
    <contour>
      <point x="368.0" y="574" type="line"/>
      <point x="571.62892" y="93.0" type="line"/>
      <point x="163.5331" y="93.0" type="line"/>
    </contour>
    <contour>
      <point x="1" y="0" type="line"/>
      <point x="738.0" y="0" type="line"/>
      <point x="432.0" y="700.0" type="line"/>
      <point x="310" y="700.0" type="line"/>
    </contour>
  </outline>
</glyph>
<glyph name="Omega" format="1">
  <advance width="882"/>
  <unicode hex="03A9"/>
  <outline>
    <contour>
      <point x="20" y="700" type="move" name="topleft"/>
    </contour>
    <contour>
      <point x="82" y="372" type="curve" smooth="yes"/>
      <point x="82" y="271"/>
      <point x="139" y="160"/>
      <point x="219" y="100" type="curve"/>
      <point x="9" y="100" type="line"/>
      <point x="9" y="0" type="line"/>
      <point x="342" y="0" type="line"/>
      <point x="342" y="92" type="line"/>
      <point x="252" y="146"/>
      <point x="187" y="259"/>
      <point x="187" y="362" type="curve" smooth="yes"/>
      <point x="187" y="501"/>
      <point x="294" y="601"/>
      <point x="441" y="601" type="curve" smooth="yes"/>
      <point x="588" y="601"/>
      <point x="696" y="501"/>
      <point x="696" y="362" type="curve" smooth="yes"/>
      <point x="696" y="259"/>
      <point x="631" y="146"/>
      <point x="541" y="93" type="curve"/>
      <point x="541" y="0" type="line"/>
      <point x="873" y="0" type="line"/>
      <point x="873" y="100" type="line"/>
      <point x="664" y="100" type="line"/>
      <point x="744" y="160"/>
      <point x="801" y="272"/>
      <point x="801" y="372" type="curve" smooth="yes"/>
      <point x="801" y="564"/>
      <point x="648" y="706"/>
      <point x="441" y="706" type="curve" smooth="yes"/>
      <point x="234" y="706"/>
      <point x="82" y="564"/>
    </contour>
  </outline>
</glyph>
<glyph name="pi" format="1">
  <advance width="725"/>
  <unicode hex="03C0"/>
  <outline>
    <contour>
      <point x="275" y="0" type="line"/>
      <point x="324.97403" y="444.0" type="line"/>
      <point x="472.0" y="444.0" type="line"/>
      <point x="472.0" y="0" type="line"/>
      <point x="568" y="0" type="line"/>
      <point x="568" y="444.0" type="line"/>
      <point x="715.0" y="444.0" type="line"/>
      <point x="715.0" y="532" type="line"/>
      <point x="163" y="532" type="line"/>
      <point x="63" y="532"/>
      <point x="-11" y="466"/>
      <point x="-10" y="380" type="curve"/>
      <point x="-9" y="338"/>
      <point x="5" y="289"/>
      <point x="27" y="253" type="curve"/>
      <point x="107.0" y="284" type="line"/>
      <point x="91" y="308"/>
      <point x="81" y="337"/>
      <point x="81" y="360" type="curve"/>
      <point x="80" y="409"/>
      <point x="121" y="444"/>
      <point x="177" y="444" type="curve"/>
      <point x="228.01299" y="444.0" type="line"/>
      <point x="179.0" y="0" type="line"/>
    </contour>
  </outline>
</glyph>
<glyph name="uni0964" format="1">
  <advance width="277"/>
  <unicode hex="0964"/>
  <outline>
    <contour>
      <point x="245" y="-30" type="line"/>
      <point x="245" y="680" type="line"/>
      <point x="136" y="680" type="line"/>
      <point x="136" y="-30" type="line"/>
    </contour>
  </outline>
</glyph>
<glyph name="uni0A01" format="1">
  <advance width="0"/>
  <unicode hex="0A01"/>
  <outline>
    <contour>
      <point x="0" y="691" type="move" name="_abvm_candra"/>
    </contour>
    <contour>
      <point x="0" y="849" type="move" name="abvm_bindu"/>
    </contour>
    <contour>
      <point x="48" y="900" type="curve" smooth="yes"/>
      <point x="48" y="930"/>
      <point x="28" y="951"/>
      <point x="0" y="951" type="curve" smooth="yes"/>
      <point x="-28" y="951"/>
      <point x="-49" y="930"/>
      <point x="-49" y="900" type="curve" smooth="yes"/>
      <point x="-49" y="871"/>
      <point x="-28" y="850"/>
      <point x="0" y="850" type="curve" smooth="yes"/>
      <point x="28" y="850"/>
      <point x="48" y="871"/>
    </contour>
    <contour>
      <point x="179" y="894" type="curve"/>
      <point x="114" y="909" type="line"/>
      <point x="101" y="850"/>
      <point x="66" y="807"/>
      <point x="0" y="807" type="curve" smooth="yes"/>
      <point x="-68" y="807"/>
      <point x="-101" y="851"/>
      <point x="-114" y="908" type="curve"/>
      <point x="-179" y="894" type="line"/>
      <point x="-169" y="803"/>
      <point x="-95" y="735"/>
      <point x="1" y="735" type="curve" smooth="yes"/>
      <point x="97" y="735"/>
      <point x="169" y="803"/>
    </contour>
  </outline>
</glyph>
<glyph name="uni0A06" format="1">
  <advance width="1129"/>
  <unicode hex="0A06"/>
  <outline>
    <contour>
      <point x="973" y="688" type="move" name="abvm_bindu"/>
    </contour>
    <contour>
      <point x="973" y="698" type="move" name="abvm_candra"/>
    </contour>
    <contour>
      <point x="973" y="678" type="move" name="abvm"/>
    </contour>
    <component base="uni0A05"/>
    <component base="uni0A3E" xOffset="852"/>
  </outline>
</glyph>
<glyph name="uni0A09" format="1">
  <advance width="654"/>
  <unicode hex="0A09"/>
  <outline>
    <contour>
      <point x="671" y="680" type="move" name="abvm_bindu"/>
    </contour>
    <contour>
      <point x="765" y="676" type="move" name="abvm_candra"/>
    </contour>
    <component base="uni0A73"/>
    <component base="uni0A41" xOffset="381"/>
  </outline>
</glyph>
<glyph name="uni0A0A" format="1">
  <advance width="654"/>
  <unicode hex="0A0A"/>
  <outline>
    <contour>
      <point x="671" y="680" type="move" name="abvm_bindu"/>
    </contour>
    <contour>
      <point x="765" y="676" type="move" name="abvm_candra"/>
    </contour>
    <component base="uni0A73"/>
    <component base="uni0A42" xOffset="381"/>
  </outline>
</glyph>
<glyph name="uni0A0F" format="1">
  <advance width="630"/>
  <unicode hex="0A0F"/>
  <outline>
    <contour>
      <point x="472" y="670" type="move" name="_abvm"/>
    </contour>
    <contour>
      <point x="621" y="680" type="move" name="abvm_bindu"/>
    </contour>
    <contour>
      <point x="380" y="2" type="move" name="blwm"/>
    </contour>
    <contour>
      <point x="704" y="690" type="move" name="abvm_candra"/>
    </contour>
    <contour>
      <point x="377" y="30" type="move" name="blwm_caret_1"/>
    </contour>
    <contour>
      <point x="102" y="-35" type="move" name="blwm_nukta"/>
    </contour>
    <contour>
      <point x="513" y="670" type="move" name="abvm"/>
    </contour>
    <contour>
      <point x="413.0" y="405.0" type="line"/>
      <point x="274.994294282" y="405.0"/>
      <point x="180.175833032" y="483.442137913"/>
      <point x="169.08942" y="590" type="curve"/>
      <point x="431.0" y="590" type="line"/>
      <point x="431.0" y="405.0" type="line"/>
    </contour>
    <contour>
      <point x="564" y="29" type="curve"/>
      <point x="540" y="121.0" type="line"/>
      <point x="490" y="101"/>
      <point x="430" y="89"/>
      <point x="371" y="89" type="curve" smooth="yes"/>
      <point x="251.392539531" y="89.0"/>
      <point x="174.173063062" y="141.592498666"/>
      <point x="145.60073" y="189.77464" type="curve"/>
      <point x="179.796063195" y="238.160227934"/>
      <point x="265.442387714" y="307.233975571"/>
      <point x="448.0" y="310.0" type="curve" smooth="yes"/>
      <point x="544" y="310" type="line"/>
      <point x="544" y="590" type="line"/>
      <point x="630" y="590" type="line"/>
      <point x="630" y="688" type="line"/>
      <point x="514.03868" y="688" type="line"/>
      <point x="499.096471267" y="843.25892864"/>
      <point x="399.230234971" y="938.0"/>
      <point x="230.0" y="938.0" type="curve" smooth="yes"/>
      <point x="185" y="938"/>
      <point x="140" y="931"/>
      <point x="101" y="917" type="curve"/>
      <point x="124.0" y="827.0" type="line"/>
      <point x="161" y="836"/>
      <point x="203" y="842"/>
      <point x="242" y="842" type="curve" smooth="yes"/>
      <point x="361.563796421" y="842.0"/>
      <point x="412.339767047" y="784.805627991"/>
      <point x="426.26389" y="688" type="curve"/>
      <point x="-12.0" y="688" type="line"/>
      <point x="-12.0" y="590" type="line"/>
      <point x="56.34509" y="590" type="line"/>
      <point x="66.5866263357" y="495.043198746"/>
      <point x="134.555886794" y="412.54656487"/>
      <point x="234.24304" y="369.04721" type="curve"/>
      <point x="120.841814592" y="336.435013204"/>
      <point x="59.6732940303" y="265.346588061"/>
      <point x="35.0" y="216.0" type="curve"/>
      <point x="66" y="91"/>
      <point x="204" y="-10"/>
      <point x="380" y="-10" type="curve" smooth="yes"/>
      <point x="448" y="-10"/>
      <point x="514" y="5"/>
    </contour>
  </outline>
</glyph>
<glyph name="uni0A14" format="1">
  <advance width="852"/>
  <unicode hex="0A14"/>
  <outline>
    <contour>
      <point x="696" y="680" type="move" name="abvm_bindu"/>
    </contour>
    <contour>
      <point x="696" y="690" type="move" name="abvm_candra"/>
    </contour>
    <contour>
      <point x="696" y="670" type="move" name="abvm"/>
    </contour>
    <component base="uni0A05"/>
    <component base="uni0A4C" xOffset="696"/>
  </outline>
</glyph>
<glyph name="uni0A15" format="1">
  <advance width="684"/>
  <unicode hex="0A15"/>
  <outline>
    <contour>
      <point x="542" y="681" type="move" name="abvm_bindu"/>
    </contour>
    <contour>
      <point x="566" y="0" type="move" name="blwm"/>
    </contour>
    <contour>
      <point x="542" y="691" type="move" name="abvm_candra"/>
    </contour>
    <contour>
      <point x="316" y="11" type="move" name="blwm_caret_1"/>
    </contour>
    <contour>
      <point x="107" y="-26" type="move" name="blwm_nukta"/>
    </contour>
    <contour>
      <point x="546" y="671" type="move" name="abvm"/>
    </contour>
    <contour>
      <point x="622" y="0" type="line"/>
      <point x="622" y="20" type="line" smooth="yes"/>
      <point x="622.0" y="111.220540342"/>
      <point x="595.680563576" y="209.233193309"/>
      <point x="547.73548" y="293.69168" type="curve"/>
      <point x="582.947281632" y="377.056823948"/>
      <point x="599.0" y="473.597691459"/>
      <point x="599.0" y="560.0" type="curve" smooth="yes"/>
      <point x="599" y="590" type="line"/>
      <point x="685" y="590" type="line"/>
      <point x="685" y="688" type="line"/>
      <point x="0" y="688" type="line"/>
      <point x="0" y="590" type="line"/>
      <point x="492.0" y="590" type="line"/>
      <point x="492.0" y="565" type="line" smooth="yes"/>
      <point x="492" y="503"/>
      <point x="484" y="445"/>
      <point x="468" y="393" type="curve"/>
      <point x="411" y="457"/>
      <point x="332" y="493"/>
      <point x="247" y="493" type="curve" smooth="yes"/>
      <point x="108" y="493"/>
      <point x="31" y="396"/>
      <point x="31" y="291" type="curve" smooth="yes"/>
      <point x="31" y="173"/>
      <point x="131" y="74"/>
      <point x="271" y="74" type="curve" smooth="yes"/>
      <point x="361.588772911" y="74.0"/>
      <point x="431.670276074" y="115.869009069"/>
      <point x="482.03436" y="188.56881" type="curve"/>
      <point x="500.011453333" y="137.457351759"/>
      <point x="509.0" y="80.8522442128"/>
      <point x="509.0" y="22.0" type="curve" smooth="yes"/>
      <point x="509.0" y="0" type="line"/>
    </contour>
    <contour>
      <point x="270.0" y="173.0" type="curve" smooth="yes"/>
      <point x="194" y="173"/>
      <point x="145" y="221"/>
      <point x="145" y="283" type="curve" smooth="yes"/>
      <point x="145" y="346"/>
      <point x="191" y="394"/>
      <point x="269" y="394" type="curve" smooth="yes"/>
      <point x="335.610067883" y="394.0"/>
      <point x="395.559372181" y="358.198395728"/>
      <point x="438.97161" y="294.94036" type="curve"/>
      <point x="401.001938227" y="215.686370061"/>
      <point x="341.359882651" y="173.0"/>
    </contour>
  </outline>
</glyph>
<glyph name="uni0A17" format="1">
  <advance width="821"/>
  <unicode hex="0A17"/>
  <outline>
    <contour>
      <point x="665" y="681" type="move" name="abvm_bindu"/>
    </contour>
    <contour>
      <point x="680" y="0" type="move" name="blwm"/>
    </contour>
    <contour>
      <point x="665" y="690" type="move" name="abvm_candra"/>
    </contour>
    <contour>
      <point x="444" y="30" type="move" name="blwm_caret_1"/>
    </contour>
    <contour>
      <point x="64" y="-17" type="move" name="blwm_nukta"/>
    </contour>
    <contour>
      <point x="675" y="671" type="move" name="abvm"/>
    </contour>
    <contour>
      <point x="499" y="143" type="curve" smooth="yes"/>
      <point x="499.90121" y="590" type="line"/>
      <point x="623" y="590" type="line"/>
      <point x="623" y="0" type="line"/>
      <point x="736.0" y="0" type="line"/>
      <point x="736.0" y="590" type="line"/>
      <point x="822.0" y="590" type="line"/>
      <point x="822.0" y="688" type="line"/>
      <point x="0" y="688" type="line"/>
      <point x="0" y="590" type="line"/>
      <point x="387.0" y="590" type="line"/>
      <point x="387.0" y="446.0" type="line"/>
      <point x="212.0" y="446.0" type="line" smooth="yes"/>
      <point x="103" y="446"/>
      <point x="35" y="382"/>
      <point x="35" y="273" type="curve" smooth="yes"/>
      <point x="35" y="111"/>
      <point x="209" y="-10"/>
      <point x="343" y="-10" type="curve" smooth="yes"/>
      <point x="430" y="-10"/>
      <point x="499" y="36"/>
    </contour>
    <contour>
      <point x="328" y="89" type="curve" smooth="yes"/>
      <point x="239" y="89"/>
      <point x="149" y="169"/>
      <point x="149" y="258" type="curve" smooth="yes"/>
      <point x="149" y="310"/>
      <point x="177" y="349"/>
      <point x="236" y="349" type="curve" smooth="yes"/>
      <point x="387.0" y="349.0" type="line"/>
      <point x="387.0" y="159" type="line" smooth="yes"/>
      <point x="387" y="118"/>
      <point x="379" y="89"/>
    </contour>
  </outline>
</glyph>
<glyph name="uni0A18" format="1">
  <advance width="857"/>
  <unicode hex="0A18"/>
  <outline>
    <contour>
      <point x="701" y="680" type="move" name="abvm_bindu"/>
    </contour>
    <contour>
      <point x="716" y="0" type="move" name="blwm"/>
    </contour>
    <contour>
      <point x="701" y="690" type="move" name="abvm_candra"/>
    </contour>
    <contour>
      <point x="435" y="30" type="move" name="blwm_caret_1"/>
    </contour>
    <contour>
      <point x="109" y="0" type="move" name="blwm_nukta"/>
    </contour>
    <contour>
      <point x="701" y="670" type="move" name="abvm"/>
    </contour>
    <contour>
      <point x="772.0" y="0" type="line"/>
      <point x="772.0" y="590" type="line"/>
      <point x="858.0" y="590" type="line"/>
      <point x="858.0" y="688" type="line"/>
      <point x="659" y="688" type="line"/>
      <point x="659" y="253.18133" type="line"/>
      <point x="629.815224875" y="219.010143706"/>
      <point x="591.84642149" y="209.0"/>
      <point x="565.0" y="209.0" type="curve" smooth="yes"/>
      <point x="514.933520935" y="209.0"/>
      <point x="484.450263166" y="232.867050955"/>
      <point x="468.76281" y="264.8425" type="curve"/>
      <point x="493.670770839" y="337.621484179"/>
      <point x="504.0" y="405.386244491"/>
      <point x="504.0" y="466.0" type="curve" smooth="yes"/>
      <point x="504" y="524"/>
      <point x="497" y="582"/>
      <point x="485" y="639" type="curve"/>
      <point x="383.0" y="639" type="line"/>
      <point x="383.0" y="286" type="line"/>
      <point x="361" y="223"/>
      <point x="305" y="209"/>
      <point x="267" y="209" type="curve" smooth="yes"/>
      <point x="204.426448374" y="209.0"/>
      <point x="169.043517325" y="239.967095657"/>
      <point x="155.59993" y="279.65428" type="curve"/>
      <point x="210.176236839" y="316.471051929"/>
      <point x="252.0" y="378.943109911"/>
      <point x="252.0" y="464.0" type="curve" smooth="yes"/>
      <point x="252" y="569"/>
      <point x="175" y="688"/>
      <point x="26" y="688" type="curve" smooth="yes"/>
      <point x="0" y="688" type="line"/>
      <point x="0" y="590" type="line"/>
      <point x="31.0" y="590" type="line" smooth="yes"/>
      <point x="108" y="590"/>
      <point x="141" y="537"/>
      <point x="141" y="475" type="curve" smooth="yes"/>
      <point x="141" y="411"/>
      <point x="107" y="360"/>
      <point x="46" y="321" type="curve"/>
      <point x="65" y="185"/>
      <point x="164" y="111"/>
      <point x="268" y="111" type="curve" smooth="yes"/>
      <point x="332.019751162" y="111.0"/>
      <point x="391.66773855" y="129.215682395"/>
      <point x="423.93167" y="176.88284" type="curve"/>
      <point x="459.385123157" y="134.925384404"/>
      <point x="508.118591031" y="111.0"/>
      <point x="566.0" y="111.0" type="curve" smooth="yes"/>
      <point x="600.914605221" y="111.0"/>
      <point x="632.205459972" y="116.435625703"/>
      <point x="659" y="127.97618" type="curve"/>
      <point x="659" y="0" type="line"/>
    </contour>
  </outline>
</glyph>
<glyph name="uni0A19" format="1">
  <advance width="645"/>
  <unicode hex="0A19"/>
  <outline>
    <contour>
      <point x="483" y="680" type="move" name="abvm_bindu"/>
    </contour>
    <contour>
      <point x="304" y="0" type="move" name="blwm"/>
    </contour>
    <contour>
      <point x="483" y="690" type="move" name="abvm_candra"/>
    </contour>
    <contour>
      <point x="311" y="30" type="move" name="blwm_caret_1"/>
    </contour>
    <contour>
      <point x="82" y="-59" type="move" name="blwm_nukta"/>
    </contour>
    <contour>
      <point x="483" y="670" type="move" name="abvm"/>
    </contour>
    <contour>
      <point x="297" y="-10" type="curve" smooth="yes"/>
      <point x="491" y="-10"/>
      <point x="597" y="108"/>
      <point x="597" y="236" type="curve" smooth="yes"/>
      <point x="597" y="354"/>
      <point x="508" y="467"/>
      <point x="325" y="467" type="curve" smooth="yes"/>
      <point x="214.0" y="467.0" type="line"/>
      <point x="214.0" y="590" type="line"/>
      <point x="645" y="590" type="line"/>
      <point x="645" y="688" type="line"/>
      <point x="0" y="688" type="line"/>
      <point x="0" y="590" type="line"/>
      <point x="101.0" y="590" type="line"/>
      <point x="101.0" y="370.0" type="line"/>
      <point x="330" y="370.0" type="line" smooth="yes"/>
      <point x="445" y="370"/>
      <point x="488" y="306"/>
      <point x="488" y="241" type="curve" smooth="yes"/>
      <point x="488.0" y="217.397026664"/>
      <point x="482.28317606" y="193.711200807"/>
      <point x="470.96877" y="171.97094" type="curve"/>
      <point x="412.746078381" y="234.940099092"/>
      <point x="323.190471241" y="274.0"/>
      <point x="222.0" y="274.0" type="curve" smooth="yes"/>
      <point x="119" y="274"/>
      <point x="52" y="230"/>
      <point x="52" y="153" type="curve" smooth="yes"/>
      <point x="52" y="59"/>
      <point x="149" y="-10"/>
    </contour>
    <contour>
      <point x="286.0" y="76.0" type="curve" smooth="yes"/>
      <point x="205" y="76"/>
      <point x="154" y="106"/>
      <point x="154" y="147" type="curve" smooth="yes"/>
      <point x="154" y="178"/>
      <point x="186" y="197"/>
      <point x="242" y="197" type="curve" smooth="yes"/>
      <point x="309.754463733" y="197.0"/>
      <point x="378.445798356" y="167.020131554"/>
      <point x="422.68313" y="116.10388" type="curve"/>
      <point x="389.471952859" y="91.6618880534"/>
      <point x="343.774294715" y="76.0"/>
    </contour>
  </outline>
</glyph>
<glyph name="uni0A1A" format="1">
  <advance width="701"/>
  <unicode hex="0A1A"/>
  <outline>
    <contour>
      <point x="544" y="680" type="move" name="abvm_bindu"/>
    </contour>
    <contour>
      <point x="455" y="1" type="move" name="blwm"/>
    </contour>
    <contour>
      <point x="544" y="690" type="move" name="abvm_candra"/>
    </contour>
    <contour>
      <point x="427" y="30" type="move" name="blwm_caret_1"/>
    </contour>
    <contour>
      <point x="121" y="0" type="move" name="blwm_nukta"/>
    </contour>
    <contour>
      <point x="554" y="670" type="move" name="abvm"/>
    </contour>
    <contour>
      <point x="455.0" y="-10.0" type="curve" smooth="yes"/>
      <point x="541" y="-10"/>
      <point x="616" y="37"/>
      <point x="616" y="149" type="curve"/>
      <point x="616" y="590" type="line"/>
      <point x="702.0" y="590" type="line"/>
      <point x="702.0" y="688" type="line"/>
      <point x="0" y="688" type="line"/>
      <point x="0" y="590" type="line"/>
      <point x="504.0" y="590" type="line"/>
      <point x="504.0" y="405.0" type="line"/>
      <point x="219.31956" y="405.0" type="line"/>
      <point x="181.571822203" y="437.755585523"/>
      <point x="111.168565807" y="438.988765851"/>
      <point x="38.0" y="434.0" type="curve"/>
      <point x="20" y="341" type="line"/>
      <point x="49.794851921" y="321.757491468"/>
      <point x="86.1398186063" y="311.376902911"/>
      <point x="122.57741" y="308.43621" type="curve"/>
      <point x="134.06622639" y="122.999772433"/>
      <point x="314.670402683" y="-10.0"/>
    </contour>
    <contour>
      <point x="440" y="89" type="curve" smooth="yes"/>
      <point x="337.662157824" y="89.0"/>
      <point x="240.165769948" y="190.670540295"/>
      <point x="237.07548" y="307" type="curve"/>
      <point x="504.0" y="307" type="line"/>
      <point x="504.0" y="166" type="line"/>
      <point x="504" y="120"/>
      <point x="496" y="89"/>
    </contour>
  </outline>
</glyph>
<glyph name="uni0A1B" format="1">
  <advance width="662"/>
  <unicode hex="0A1B"/>
  <outline>
    <contour>
      <point x="491" y="680" type="move" name="abvm_bindu"/>
    </contour>
    <contour>
      <point x="331" y="2" type="move" name="blwm"/>
    </contour>
    <contour>
      <point x="491" y="690" type="move" name="abvm_candra"/>
    </contour>
    <contour>
      <point x="330" y="30" type="move" name="blwm_caret_1"/>
    </contour>
    <contour>
      <point x="82" y="-59" type="move" name="blwm_nukta"/>
    </contour>
    <contour>
      <point x="501" y="670" type="move" name="abvm"/>
    </contour>
    <contour>
      <point x="625" y="149" type="curve" smooth="yes"/>
      <point x="625" y="255"/>
      <point x="494" y="304"/>
      <point x="327" y="304" type="curve" smooth="yes"/>
      <point x="304" y="304"/>
      <point x="282" y="303"/>
      <point x="260" y="303" type="curve" smooth="yes"/>
      <point x="218" y="302"/>
      <point x="181" y="321"/>
      <point x="181" y="356" type="curve" smooth="yes"/>
      <point x="181" y="378"/>
      <point x="196" y="406"/>
      <point x="253" y="406" type="curve" smooth="yes"/>
      <point x="562" y="406.0" type="line"/>
      <point x="562" y="590" type="line"/>
      <point x="662" y="590" type="line"/>
      <point x="662" y="688" type="line"/>
      <point x="0" y="688" type="line"/>
      <point x="0" y="590" type="line"/>
      <point x="449.0" y="590" type="line"/>
      <point x="449.0" y="499.0" type="line"/>
      <point x="226.0" y="499.0" type="line" smooth="yes"/>
      <point x="122" y="499"/>
      <point x="67" y="448"/>
      <point x="67" y="387" type="curve" smooth="yes"/>
      <point x="67.0" y="334.998722043"/>
      <point x="95.0705838316" y="297.617539833"/>
      <point x="137.34812" y="275.32436" type="curve"/>
      <point x="70.3891569684" y="251.00878933"/>
      <point x="35.0" y="209.017033978"/>
      <point x="35.0" y="151.0" type="curve" smooth="yes"/>
      <point x="35" y="45"/>
      <point x="154" y="-10"/>
      <point x="332" y="-10" type="curve" smooth="yes"/>
      <point x="512" y="-10"/>
      <point x="625" y="44"/>
    </contour>
    <contour>
      <point x="144.0" y="148.993" type="curve" smooth="yes"/>
      <point x="144.0" y="195.896476307"/>
      <point x="197.127798804" y="213.481651643"/>
      <point x="299" y="214.90448" type="curve"/>
      <point x="299" y="79.44835" type="line"/>
      <point x="197.934166016" y="82.4770578901"/>
      <point x="144.0" y="101.632074288"/>
    </contour>
    <contour>
      <point x="516.0" y="147.0" type="curve" smooth="yes"/>
      <point x="516.0" y="102.071901051"/>
      <point x="461.354137908" y="82.3649692223"/>
      <point x="359.0" y="79.40841" type="curve"/>
      <point x="359.0" y="214.23558" type="line"/>
      <point x="459.433957158" y="210.628705661"/>
      <point x="516.0" y="193.338066533"/>
    </contour>
  </outline>
</glyph>
<glyph name="uni0A1C" format="1">
  <advance width="696"/>
  <unicode hex="0A1C"/>
  <outline>
    <contour>
      <point x="539" y="680" type="move" name="abvm_bindu"/>
    </contour>
    <contour>
      <point x="555" y="0" type="move" name="blwm"/>
    </contour>
    <contour>
      <point x="539" y="690" type="move" name="abvm_candra"/>
    </contour>
    <contour>
      <point x="370" y="30" type="move" name="blwm_caret_1"/>
    </contour>
    <contour>
      <point x="370" y="-71" type="move" name="blwm_nukta"/>
    </contour>
    <contour>
      <point x="549" y="670" type="move" name="abvm"/>
    </contour>
    <contour>
      <point x="611" y="0" type="line"/>
      <point x="611" y="590" type="line"/>
      <point x="697.0" y="590" type="line"/>
      <point x="697.0" y="688" type="line"/>
      <point x="0" y="688" type="line"/>
      <point x="0" y="590" type="line"/>
      <point x="498.0" y="590" type="line"/>
      <point x="498.0" y="374.0" type="line"/>
      <point x="213.0" y="374.0" type="line"/>
      <point x="177" y="405"/>
      <point x="126" y="417"/>
      <point x="57" y="429" type="curve"/>
      <point x="21" y="341" type="line"/>
      <point x="49" y="316"/>
      <point x="92" y="293"/>
      <point x="140" y="283" type="curve"/>
      <point x="144" y="251"/>
      <point x="144" y="219"/>
      <point x="142" y="185" type="curve" smooth="yes"/>
      <point x="139" y="128"/>
      <point x="130" y="68"/>
      <point x="119" y="13" type="curve"/>
      <point x="118.0" y="2" type="line"/>
      <point x="231.0" y="0" type="line"/>
      <point x="241" y="55"/>
      <point x="249" y="114"/>
      <point x="252" y="172" type="curve" smooth="yes"/>
      <point x="253" y="208"/>
      <point x="253" y="242"/>
      <point x="249" y="276" type="curve"/>
      <point x="498.0" y="276" type="line"/>
      <point x="498.0" y="0" type="line"/>
    </contour>
  </outline>
</glyph>
<glyph name="uni0A1D" format="1">
  <advance width="650"/>
  <unicode hex="0A1D"/>
  <outline>
    <contour>
      <point x="525" y="680" type="move" name="abvm_bindu"/>
    </contour>
    <contour>
      <point x="221" y="-64" type="move" name="blwm"/>
    </contour>
    <contour>
      <point x="525" y="690" type="move" name="abvm_candra"/>
    </contour>
    <contour>
      <point x="326" y="-13" type="move" name="blwm_caret_1"/>
    </contour>
    <contour>
      <point x="74" y="-23" type="move" name="blwm_nukta"/>
    </contour>
    <contour>
      <point x="539" y="670" type="move" name="abvm"/>
    </contour>
    <contour>
      <point x="322.0" y="435.0" type="curve" smooth="yes"/>
      <point x="251.126177717" y="435.0"/>
      <point x="182.9313414" y="478.756770767"/>
      <point x="176.48615" y="590" type="curve"/>
      <point x="485.1983" y="590" type="line"/>
      <point x="470.757261785" y="481.775310753"/>
      <point x="395.029343082" y="435.0"/>
    </contour>
    <contour>
      <point x="314.0" y="38.0" type="curve" smooth="yes"/>
      <point x="498" y="38"/>
      <point x="595" y="121"/>
      <point x="595" y="227" type="curve" smooth="yes"/>
      <point x="595.0" y="291.721241087"/>
      <point x="558.968495288" y="352.909981712"/>
      <point x="469.68417" y="392.73412" type="curve"/>
      <point x="545.671767198" y="428.727989562"/>
      <point x="590.497112906" y="498.942247566"/>
      <point x="596.38475" y="590" type="curve"/>
      <point x="650" y="590" type="line"/>
      <point x="650" y="688" type="line"/>
      <point x="0" y="688" type="line"/>
      <point x="0" y="590" type="line"/>
      <point x="63.71973" y="590" type="line"/>
      <point x="69.3923662971" y="518.882861056"/>
      <point x="105.309550221" y="468.522598208"/>
      <point x="152.84937" y="436.0" type="curve"/>
      <point x="80" y="436.0" type="line"/>
      <point x="82" y="354.0" type="line"/>
      <point x="310" y="354.0" type="line" smooth="yes"/>
      <point x="440" y="354"/>
      <point x="485" y="299"/>
      <point x="485" y="246" type="curve" smooth="yes"/>
      <point x="485" y="187"/>
      <point x="433" y="130"/>
      <point x="299" y="130" type="curve" smooth="yes"/>
      <point x="288.063941556" y="130.0"/>
      <point x="277.127883112" y="130.353838385"/>
      <point x="266.26624" y="131.14026" type="curve"/>
      <point x="239.570645085" y="158.916480411"/>
      <point x="203.117784023" y="174.570368478"/>
      <point x="172.0" y="184.0" type="curve" smooth="yes"/>
      <point x="144" y="193"/>
      <point x="114" y="199"/>
      <point x="83" y="202" type="curve"/>
      <point x="49.0" y="120.0" type="line"/>
      <point x="80" y="90"/>
      <point x="126" y="66"/>
      <point x="173" y="53" type="curve"/>
      <point x="165" y="-52.0" type="line"/>
      <point x="165" y="-64" type="line"/>
      <point x="278" y="-64" type="line"/>
      <point x="286.19485" y="38.80809" type="line"/>
      <point x="295.815549993" y="38.2693531741"/>
      <point x="305.177128171" y="38.0"/>
    </contour>
  </outline>
</glyph>
<glyph name="uni0A1F" format="1">
  <advance width="602"/>
  <unicode hex="0A1F"/>
  <outline>
    <contour>
      <point x="474" y="680" type="move" name="abvm_bindu"/>
    </contour>
    <contour>
      <point x="374" y="1" type="move" name="blwm"/>
    </contour>
    <contour>
      <point x="474" y="690" type="move" name="abvm_candra"/>
    </contour>
    <contour>
      <point x="369" y="30" type="move" name="blwm_caret_1"/>
    </contour>
    <contour>
      <point x="91" y="-26" type="move" name="blwm_nukta"/>
    </contour>
    <contour>
      <point x="464" y="670" type="move" name="abvm"/>
    </contour>
    <contour>
      <point x="564" y="29" type="curve"/>
      <point x="540" y="121.0" type="line"/>
      <point x="490" y="101"/>
      <point x="429" y="89"/>
      <point x="373" y="89" type="curve" smooth="yes"/>
      <point x="251.313888588" y="89.0"/>
      <point x="173.57139535" y="153.053409542"/>
      <point x="143.62923" y="215.59908" type="curve"/>
      <point x="180.252433526" y="277.909767093"/>
      <point x="267.921063936" y="359.112640435"/>
      <point x="480.0" y="360.0" type="curve"/>
      <point x="517" y="360.0" type="line"/>
      <point x="517" y="590" type="line"/>
      <point x="603" y="590" type="line"/>
      <point x="603" y="688" type="line"/>
      <point x="0" y="688" type="line"/>
      <point x="0" y="590" type="line"/>
      <point x="404.0" y="590" type="line"/>
      <point x="404.0" y="456.52752" type="line"/>
      <point x="184.677411669" y="442.413949355"/>
      <point x="76.4919495028" y="330.812895563"/>
      <point x="35.0" y="245.0" type="curve"/>
      <point x="67" y="103"/>
      <point x="204" y="-10"/>
      <point x="382" y="-10" type="curve" smooth="yes"/>
      <point x="447" y="-10"/>
      <point x="514" y="5"/>
    </contour>
  </outline>
</glyph>
<glyph name="uni0A20" format="1">
  <advance width="656"/>
  <unicode hex="0A20"/>
  <outline>
    <contour>
      <point x="497" y="680" type="move" name="abvm_bindu"/>
    </contour>
    <contour>
      <point x="328" y="2" type="move" name="blwm"/>
    </contour>
    <contour>
      <point x="328" y="690" type="move" name="abvm_candra"/>
    </contour>
    <contour>
      <point x="328" y="30" type="move" name="blwm_caret_1"/>
    </contour>
    <contour>
      <point x="56" y="-26" type="move" name="blwm_nukta"/>
    </contour>
    <contour>
      <point x="497" y="670" type="move" name="abvm"/>
    </contour>
    <contour>
      <point x="621" y="227" type="curve" smooth="yes"/>
      <point x="621.0" y="355.380907965"/>
      <point x="516.617199918" y="438.142666265"/>
      <point x="384.0" y="456.23919" type="curve"/>
      <point x="384.0" y="590" type="line"/>
      <point x="656" y="590" type="line"/>
      <point x="656" y="688" type="line"/>
      <point x="0" y="688" type="line"/>
      <point x="0" y="590" type="line"/>
      <point x="272" y="590" type="line"/>
      <point x="272" y="456.42438" type="line"/>
      <point x="136.211679514" y="438.713299761"/>
      <point x="35.0" y="355.823915617"/>
      <point x="35.0" y="227.0" type="curve" smooth="yes"/>
      <point x="35" y="80"/>
      <point x="171" y="-10"/>
      <point x="329" y="-10" type="curve" smooth="yes"/>
      <point x="492" y="-10"/>
      <point x="621" y="80"/>
    </contour>
    <contour>
      <point x="149" y="226" type="curve" smooth="yes"/>
      <point x="149" y="307"/>
      <point x="224" y="361"/>
      <point x="327" y="361" type="curve" smooth="yes"/>
      <point x="431" y="361"/>
      <point x="507" y="307"/>
      <point x="507" y="225" type="curve" smooth="yes"/>
      <point x="507" y="145"/>
      <point x="433" y="89"/>
      <point x="328" y="89" type="curve" smooth="yes"/>
      <point x="223" y="89"/>
      <point x="149" y="145"/>
    </contour>
  </outline>
</glyph>
<glyph name="uni0A21" format="1">
  <advance width="599"/>
  <unicode hex="0A21"/>
  <outline>
    <contour>
      <point x="494" y="680" type="move" name="abvm_bindu"/>
    </contour>
    <contour>
      <point x="287" y="2" type="move" name="blwm"/>
    </contour>
    <contour>
      <point x="494" y="690" type="move" name="abvm_candra"/>
    </contour>
    <contour>
      <point x="283" y="30" type="move" name="blwm_caret_1"/>
    </contour>
    <contour>
      <point x="65" y="-49" type="move" name="blwm_nukta"/>
    </contour>
    <contour>
      <point x="484" y="670" type="move" name="abvm"/>
    </contour>
    <contour>
      <point x="280" y="-10" type="curve" smooth="yes"/>
      <point x="455" y="-10"/>
      <point x="555" y="94"/>
      <point x="555" y="208" type="curve" smooth="yes"/>
      <point x="555.0" y="282.344258878"/>
      <point x="515.392827489" y="361.919653748"/>
      <point x="421.96601" y="400.19613" type="curve"/>
      <point x="489.061947541" y="437.327633578"/>
      <point x="528.809208142" y="501.411718035"/>
      <point x="536.58844" y="590" type="curve"/>
      <point x="599" y="590" type="line"/>
      <point x="599" y="688" type="line"/>
      <point x="0" y="688" type="line"/>
      <point x="0" y="590" type="line"/>
      <point x="423.31701" y="590" type="line"/>
      <point x="416.408488297" y="524.217181892"/>
      <point x="387.365643005" y="475.246712245"/>
      <point x="320.37276" y="456.80538" type="curve"/>
      <point x="286.544087779" y="467.886332755"/>
      <point x="242.400821474" y="472.0"/>
      <point x="201.0" y="472.0" type="curve" smooth="yes"/>
      <point x="166" y="472"/>
      <point x="126" y="468"/>
      <point x="94" y="459" type="curve"/>
      <point x="100.0" y="363.0" type="line"/>
      <point x="135" y="354"/>
      <point x="172" y="349"/>
      <point x="213" y="349" type="curve" smooth="yes"/>
      <point x="248.845315962" y="349.0"/>
      <point x="291.639721574" y="353.16945379"/>
      <point x="327.48039" y="360.35686" type="curve"/>
      <point x="414.994705" y="341.592666552"/>
      <point x="444.0" y="281.193293981"/>
      <point x="444.0" y="226.0" type="curve" smooth="yes"/>
      <point x="444.0" y="210.084049038"/>
      <point x="441.479215347" y="194.33899873"/>
      <point x="436.46414" y="179.38095" type="curve"/>
      <point x="380.920706965" y="235.196860848"/>
      <point x="295.40654651" y="274.0"/>
      <point x="201.0" y="274.0" type="curve" smooth="yes"/>
      <point x="110" y="274"/>
      <point x="37" y="233"/>
      <point x="37" y="153" type="curve" smooth="yes"/>
      <point x="37" y="58.993"/>
      <point x="139" y="-10"/>
    </contour>
    <contour>
      <point x="270.0" y="76.0" type="curve" smooth="yes"/>
      <point x="192" y="76"/>
      <point x="139" y="107"/>
      <point x="139" y="147" type="curve" smooth="yes"/>
      <point x="139" y="179"/>
      <point x="174" y="197"/>
      <point x="224" y="197" type="curve" smooth="yes"/>
      <point x="284.479772431" y="197.0"/>
      <point x="351.210672818" y="166.637378494"/>
      <point x="397.18793" y="119.39788" type="curve"/>
      <point x="368.107180469" y="93.0627355581"/>
      <point x="325.598201133" y="76.0"/>
    </contour>
  </outline>
</glyph>
<glyph name="uni0A23" format="1">
  <advance width="620"/>
  <unicode hex="0A23"/>
  <outline>
    <contour>
      <point x="443" y="680" type="move" name="abvm_bindu"/>
    </contour>
    <contour>
      <point x="387" y="1" type="move" name="blwm"/>
    </contour>
    <contour>
      <point x="443" y="690" type="move" name="abvm_candra"/>
    </contour>
    <contour>
      <point x="366" y="30" type="move" name="blwm_caret_1"/>
    </contour>
    <contour>
      <point x="93" y="-30" type="move" name="blwm_nukta"/>
    </contour>
    <contour>
      <point x="443" y="670" type="move" name="abvm"/>
    </contour>
    <contour>
      <point x="569" y="30" type="curve"/>
      <point x="543" y="123.0" type="line"/>
      <point x="491" y="103"/>
      <point x="427" y="89"/>
      <point x="366" y="89" type="curve" smooth="yes"/>
      <point x="252.800735159" y="89.0"/>
      <point x="176.609139181" y="138.119269582"/>
      <point x="144.60046" y="191.11776" type="curve"/>
      <point x="178.819860729" y="229.635163407"/>
      <point x="254.518000888" y="277.983933363"/>
      <point x="405.0" y="283.0" type="curve"/>
      <point x="405.0" y="382.72869" type="line"/>
      <point x="451.516420157" y="368.32996409"/>
      <point x="501.753362353" y="360.004836032"/>
      <point x="553.0" y="359.0" type="curve"/>
      <point x="558" y="455.0" type="line"/>
      <point x="388.328592067" y="462.791034038"/>
      <point x="295.09448735" y="512.547646311"/>
      <point x="273.10792" y="590" type="curve"/>
      <point x="620" y="590" type="line"/>
      <point x="620" y="688" type="line"/>
      <point x="0" y="688" type="line"/>
      <point x="0" y="590" type="line"/>
      <point x="166.79749" y="590" type="line"/>
      <point x="183.397395656" y="528.279915844"/>
      <point x="229.264185019" y="474.510699288"/>
      <point x="292" y="434.4132" type="curve"/>
      <point x="292" y="369.90577" type="line"/>
      <point x="150.092759729" y="353.554492186"/>
      <point x="63.9333128127" y="277.058293575"/>
      <point x="35.0" y="221.0" type="curve"/>
      <point x="65" y="91"/>
      <point x="204" y="-10"/>
      <point x="381" y="-10" type="curve" smooth="yes"/>
      <point x="450" y="-10"/>
      <point x="519" y="6"/>
    </contour>
  </outline>
</glyph>
<glyph name="uni0A24" format="1">
  <advance width="594"/>
  <unicode hex="0A24"/>
  <outline>
    <contour>
      <point x="489" y="680" type="move" name="abvm_bindu"/>
    </contour>
    <contour>
      <point x="276" y="1" type="move" name="blwm"/>
    </contour>
    <contour>
      <point x="489" y="690" type="move" name="abvm_candra"/>
    </contour>
    <contour>
      <point x="266" y="30" type="move" name="blwm_caret_1"/>
    </contour>
    <contour>
      <point x="64" y="-78" type="move" name="blwm_nukta"/>
    </contour>
    <contour>
      <point x="479" y="670" type="move" name="abvm"/>
    </contour>
    <contour>
      <point x="262" y="-10" type="curve" smooth="yes"/>
      <point x="445" y="-10"/>
      <point x="547" y="90"/>
      <point x="547" y="195" type="curve" smooth="yes"/>
      <point x="547.0" y="265.042284846"/>
      <point x="505.412026326" y="336.543796838"/>
      <point x="409.14852" y="367.11915" type="curve"/>
      <point x="486.554419022" y="404.062319536"/>
      <point x="532.388200823" y="482.340173464"/>
      <point x="532.99392" y="590" type="curve"/>
      <point x="594" y="590" type="line"/>
      <point x="594" y="688" type="line"/>
      <point x="0" y="688" type="line"/>
      <point x="0" y="590" type="line"/>
      <point x="419.90346" y="590" type="line"/>
      <point x="418.045055001" y="508.686536429"/>
      <point x="389.112507702" y="443.0216127"/>
      <point x="312.07993" y="418.97114" type="curve"/>
      <point x="285.833130305" y="424.324847915"/>
      <point x="249.254141195" y="427.0"/>
      <point x="210.0" y="427.0" type="curve" smooth="yes"/>
      <point x="173" y="427"/>
      <point x="128" y="423"/>
      <point x="89" y="416" type="curve"/>
      <point x="95.0" y="320" type="line"/>
      <point x="130" y="311"/>
      <point x="168" y="307"/>
      <point x="207" y="307" type="curve" smooth="yes"/>
      <point x="242.035609908" y="307.0"/>
      <point x="281.054434403" y="311.647083684"/>
      <point x="315.40194" y="317.15723" type="curve"/>
      <point x="403.671620917" y="305.241634101"/>
      <point x="434.0" y="258.037660655"/>
      <point x="434.0" y="213.0" type="curve" smooth="yes"/>
      <point x="434" y="147"/>
      <point x="369" y="89"/>
      <point x="252" y="89" type="curve" smooth="yes"/>
      <point x="192" y="89"/>
      <point x="113" y="105"/>
      <point x="61" y="126" type="curve"/>
      <point x="37" y="33" type="line"/>
      <point x="97" y="9"/>
      <point x="184" y="-10"/>
    </contour>
  </outline>
</glyph>
<glyph name="uni0A28" format="1">
  <advance width="656"/>
  <unicode hex="0A28"/>
  <outline>
    <contour>
      <point x="497" y="680" type="move" name="abvm_bindu"/>
    </contour>
    <contour>
      <point x="414" y="9" type="move" name="blwm"/>
    </contour>
    <contour>
      <point x="328" y="690" type="move" name="abvm_candra"/>
    </contour>
    <contour>
      <point x="328" y="30" type="move" name="blwm_caret_1"/>
    </contour>
    <contour>
      <point x="52" y="-26" type="move" name="blwm_nukta"/>
    </contour>
    <contour>
      <point x="497" y="670" type="move" name="abvm"/>
    </contour>
    <contour>
      <point x="621" y="225" type="curve" smooth="yes"/>
      <point x="621.0" y="356.766726449"/>
      <point x="517.596844147" y="438.375205657"/>
      <point x="384.0" y="456.26094" type="curve"/>
      <point x="384.0" y="590" type="line"/>
      <point x="656" y="590" type="line"/>
      <point x="656" y="688" type="line"/>
      <point x="0" y="688" type="line"/>
      <point x="0" y="590" type="line"/>
      <point x="272" y="590" type="line"/>
      <point x="272" y="456.51441" type="line"/>
      <point x="137.838993398" y="439.170439606"/>
      <point x="35.0" y="357.515884869"/>
      <point x="35.0" y="226.0" type="curve" smooth="yes"/>
      <point x="35" y="97"/>
      <point x="136" y="15"/>
      <point x="262" y="-6" type="curve"/>
      <point x="273" y="93.0" type="line"/>
      <point x="199" y="106"/>
      <point x="149" y="156"/>
      <point x="149" y="225" type="curve" smooth="yes"/>
      <point x="149" y="311"/>
      <point x="224" y="361"/>
      <point x="328" y="361" type="curve" smooth="yes"/>
      <point x="432" y="361"/>
      <point x="507" y="311"/>
      <point x="507" y="225" type="curve" smooth="yes"/>
      <point x="507" y="158"/>
      <point x="459" y="107"/>
      <point x="385" y="93" type="curve"/>
      <point x="396.0" y="-6.0" type="line"/>
      <point x="525" y="12"/>
      <point x="621" y="99"/>
    </contour>
  </outline>
</glyph>
<glyph name="uni0A2B" format="1">
  <advance width="619"/>
  <unicode hex="0A2B"/>
  <outline>
    <contour>
      <point x="475" y="680" type="move" name="abvm_bindu"/>
    </contour>
    <contour>
      <point x="356" y="1" type="move" name="blwm"/>
    </contour>
    <contour>
      <point x="475" y="690" type="move" name="abvm_candra"/>
    </contour>
    <contour>
      <point x="337" y="30" type="move" name="blwm_caret_1"/>
    </contour>
    <contour>
      <point x="67" y="-26" type="move" name="blwm_nukta"/>
    </contour>
    <contour>
      <point x="465" y="670" type="move" name="abvm"/>
    </contour>
    <contour>
      <point x="582" y="144" type="curve" smooth="yes"/>
      <point x="582" y="229"/>
      <point x="499" y="276"/>
      <point x="391" y="276" type="curve" smooth="yes"/>
      <point x="288.218024685" y="276.0"/>
      <point x="195.363969598" y="238.770299144"/>
      <point x="146.30104" y="171.05997" type="curve"/>
      <point x="137.078257782" y="189.237480029"/>
      <point x="132.0" y="209.680366294"/>
      <point x="132.0" y="232.0" type="curve" smooth="yes"/>
      <point x="132" y="302"/>
      <point x="182" y="372"/>
      <point x="312" y="372" type="curve" smooth="yes"/>
      <point x="519" y="372.0" type="line"/>
      <point x="519" y="590" type="line"/>
      <point x="619" y="590" type="line"/>
      <point x="619" y="688" type="line"/>
      <point x="0" y="688" type="line"/>
      <point x="0" y="590" type="line"/>
      <point x="406.0" y="590" type="line"/>
      <point x="406.0" y="470.0" type="line"/>
      <point x="299" y="470.0" type="line" smooth="yes"/>
      <point x="116" y="470"/>
      <point x="36" y="361"/>
      <point x="36" y="246" type="curve" smooth="yes"/>
      <point x="36" y="114"/>
      <point x="147" y="-9"/>
      <point x="349" y="-9" type="curve" smooth="yes"/>
      <point x="503" y="-9"/>
      <point x="582" y="63"/>
    </contour>
    <contour>
      <point x="336" y="76" type="curve" smooth="yes"/>
      <point x="281.346687157" y="76.0"/>
      <point x="231.455785993" y="90.5253556191"/>
      <point x="194.69349" y="116.45828" type="curve"/>
      <point x="232" y="166"/>
      <point x="310" y="200"/>
      <point x="384" y="200" type="curve" smooth="yes"/>
      <point x="443" y="200"/>
      <point x="480" y="180"/>
      <point x="480" y="146" type="curve" smooth="yes"/>
      <point x="480" y="106"/>
      <point x="429" y="76"/>
    </contour>
  </outline>
</glyph>
<glyph name="uni0A2C" format="1">
  <advance width="674"/>
  <unicode hex="0A2C"/>
  <outline>
    <contour>
      <point x="517" y="680" type="move" name="abvm_bindu"/>
    </contour>
    <contour>
      <point x="533" y="0" type="move" name="blwm"/>
    </contour>
    <contour>
      <point x="517" y="690" type="move" name="abvm_candra"/>
    </contour>
    <contour>
      <point x="332" y="30" type="move" name="blwm_caret_1"/>
    </contour>
    <contour>
      <point x="105" y="-32" type="move" name="blwm_nukta"/>
    </contour>
    <contour>
      <point x="527" y="670" type="move" name="abvm"/>
    </contour>
    <contour>
      <point x="675" y="590" type="line"/>
      <point x="675" y="688" type="line"/>
      <point x="0" y="688" type="line"/>
      <point x="0" y="590" type="line"/>
      <point x="77.38514" y="590" type="line"/>
      <point x="90.1263976496" y="504.610231519"/>
      <point x="153.022072059" y="429.680031747"/>
      <point x="244.51762" y="388.64238" type="curve"/>
      <point x="129.340318707" y="355.827594653"/>
      <point x="67.5001122903" y="287.36228193"/>
      <point x="42.0" y="239.0" type="curve"/>
      <point x="81" y="103"/>
      <point x="206" y="32"/>
      <point x="324" y="32" type="curve" smooth="yes"/>
      <point x="372.586559947" y="32.0"/>
      <point x="428.386228749" y="44.459006206"/>
      <point x="476.0" y="69.38326" type="curve"/>
      <point x="476.0" y="0" type="line"/>
      <point x="589" y="0" type="line"/>
      <point x="589" y="590" type="line"/>
    </contour>
    <contour>
      <point x="430.0" y="420.0" type="line" smooth="yes"/>
      <point x="296.952088129" y="420.917571806"/>
      <point x="204.317201178" y="491.715999204"/>
      <point x="189.94973" y="590" type="curve"/>
      <point x="476.0" y="590" type="line"/>
      <point x="476.0" y="420.0" type="line"/>
    </contour>
    <contour>
      <point x="308.0" y="130.0" type="curve" smooth="yes"/>
      <point x="229.242420179" y="130.0"/>
      <point x="170.708777351" y="168.200769876"/>
      <point x="149.90224" y="210.27925" type="curve"/>
      <point x="185.460575005" y="264.569425347"/>
      <point x="270.171864462" y="331.231043621"/>
      <point x="452.0" y="334.0" type="curve" smooth="yes"/>
      <point x="476.0" y="334" type="line"/>
      <point x="476.0" y="195.87547" type="line"/>
      <point x="426.425390114" y="146.125504815"/>
      <point x="361.453586194" y="130.0"/>
    </contour>
  </outline>
</glyph>
<glyph name="uni0A2D" format="1">
  <advance width="591"/>
  <unicode hex="0A2D"/>
  <outline>
    <contour>
      <point x="493" y="680" type="move" name="abvm_bindu"/>
    </contour>
    <contour>
      <point x="273" y="2" type="move" name="blwm"/>
    </contour>
    <contour>
      <point x="493" y="690" type="move" name="abvm_candra"/>
    </contour>
    <contour>
      <point x="269" y="30" type="move" name="blwm_caret_1"/>
    </contour>
    <contour>
      <point x="58" y="-76" type="move" name="blwm_nukta"/>
    </contour>
    <contour>
      <point x="483" y="670" type="move" name="abvm"/>
    </contour>
    <contour>
      <point x="233.0" y="317.0" type="curve" smooth="yes"/>
      <point x="183" y="317"/>
      <point x="146" y="331"/>
      <point x="146" y="360" type="curve" smooth="yes"/>
      <point x="146" y="387"/>
      <point x="180" y="402"/>
      <point x="230" y="402" type="curve" smooth="yes"/>
      <point x="274.693973467" y="402.0"/>
      <point x="320.810197744" y="390.621993511"/>
      <point x="356.95476" y="366.054" type="curve"/>
      <point x="328.60958677" y="333.75308525"/>
      <point x="283.354175923" y="317.0"/>
    </contour>
    <contour>
      <point x="262" y="-10" type="curve" smooth="yes"/>
      <point x="444" y="-10"/>
      <point x="546" y="90"/>
      <point x="546" y="205" type="curve" smooth="yes"/>
      <point x="546.0" y="263.003281774"/>
      <point x="518.967556387" y="318.689496952"/>
      <point x="471.69042" y="365.93967" type="curve"/>
      <point x="515.596859634" y="426.741479651"/>
      <point x="539.0" y="505.353227725"/>
      <point x="539.0" y="588.0" type="curve" smooth="yes"/>
      <point x="539" y="590" type="line"/>
      <point x="591" y="590" type="line"/>
      <point x="591" y="688" type="line"/>
      <point x="0" y="688" type="line"/>
      <point x="0" y="590" type="line"/>
      <point x="428.97728" y="590" type="line"/>
      <point x="429.0" y="524.80499897"/>
      <point x="417.030129581" y="474.31292047"/>
      <point x="391.79624" y="434.12976" type="curve"/>
      <point x="336.643989419" y="464.080977273"/>
      <point x="271.7841413" y="481.0"/>
      <point x="212.0" y="481.0" type="curve" smooth="yes"/>
      <point x="126" y="481"/>
      <point x="50" y="442"/>
      <point x="50" y="360" type="curve" smooth="yes"/>
      <point x="50" y="269"/>
      <point x="141" y="229"/>
      <point x="233" y="229" type="curve" smooth="yes"/>
      <point x="308.433365656" y="229.0"/>
      <point x="367.863064472" y="253.894592862"/>
      <point x="416.31914" y="298.65933" type="curve"/>
      <point x="436.280600877" y="276.232227812"/>
      <point x="449.0" y="249.454998024"/>
      <point x="449.0" y="220.0" type="curve" smooth="yes"/>
      <point x="449" y="146"/>
      <point x="378" y="89"/>
      <point x="254" y="89" type="curve" smooth="yes"/>
      <point x="188" y="89"/>
      <point x="112" y="105"/>
      <point x="61" y="126" type="curve"/>
      <point x="37" y="33" type="line"/>
      <point x="97" y="9"/>
      <point x="184" y="-10"/>
    </contour>
  </outline>
</glyph>
<glyph name="uni0A30" format="1">
  <advance width="614"/>
  <unicode hex="0A30"/>
  <outline>
    <contour>
      <point x="457" y="680" type="move" name="abvm_bindu"/>
    </contour>
    <contour>
      <point x="372" y="1" type="move" name="blwm"/>
    </contour>
    <contour>
      <point x="457" y="690" type="move" name="abvm_candra"/>
    </contour>
    <contour>
      <point x="340" y="30" type="move" name="blwm_caret_1"/>
    </contour>
    <contour>
      <point x="72" y="-19" type="move" name="blwm_nukta"/>
    </contour>
    <contour>
      <point x="471" y="670" type="move" name="abvm"/>
    </contour>
    <contour>
      <point x="372" y="-10" type="curve" smooth="yes"/>
      <point x="460" y="-10"/>
      <point x="529" y="35"/>
      <point x="529" y="143" type="curve" smooth="yes"/>
      <point x="529" y="590" type="line"/>
      <point x="615" y="590" type="line"/>
      <point x="615" y="688" type="line"/>
      <point x="0" y="688" type="line"/>
      <point x="0" y="590" type="line"/>
      <point x="416.0" y="590" type="line"/>
      <point x="416.0" y="447.0" type="line"/>
      <point x="212.0" y="447.0" type="line" smooth="yes"/>
      <point x="103" y="447"/>
      <point x="35" y="382"/>
      <point x="35" y="273" type="curve" smooth="yes"/>
      <point x="35" y="110"/>
      <point x="225" y="-10"/>
    </contour>
    <contour>
      <point x="357" y="88" type="curve" smooth="yes"/>
      <point x="254" y="88"/>
      <point x="149" y="168"/>
      <point x="149" y="259" type="curve" smooth="yes"/>
      <point x="149" y="310"/>
      <point x="177" y="350"/>
      <point x="236" y="350" type="curve" smooth="yes"/>
      <point x="417.0" y="350.0" type="line"/>
      <point x="417.0" y="159" type="line" smooth="yes"/>
      <point x="417" y="117"/>
      <point x="409" y="88"/>
    </contour>
  </outline>
</glyph>
<glyph name="uni0A32" format="1">
  <advance width="729"/>
  <unicode hex="0A32"/>
  <outline>
    <contour>
      <point x="588" y="680" type="move" name="abvm_bindu"/>
    </contour>
    <contour>
      <point x="518" y="22" type="move" name="blwm"/>
    </contour>
    <contour>
      <point x="365" y="690" type="move" name="abvm_candra"/>
    </contour>
    <contour>
      <point x="364" y="30" type="move" name="blwm_caret_1"/>
    </contour>
    <contour>
      <point x="366" y="-23" type="move" name="blwm_nukta"/>
    </contour>
    <contour>
      <point x="578" y="670" type="move" name="abvm"/>
    </contour>
    <contour>
      <point x="357.0" y="368.0" type="curve"/>
      <point x="285.875277014" y="402.601216588"/>
      <point x="215.674353556" y="464.916419041"/>
      <point x="211.21431" y="590" type="curve"/>
      <point x="520.69517" y="590" type="line"/>
      <point x="514.811885015" y="474.947102981"/>
      <point x="427.13659564" y="401.627134896"/>
    </contour>
    <contour>
      <point x="685" y="216" type="curve" smooth="yes"/>
      <point x="685" y="298"/>
      <point x="641" y="366"/>
      <point x="569" y="406" type="curve"/>
      <point x="605.725725878" y="454.025949226"/>
      <point x="630.923426618" y="514.466694755"/>
      <point x="634.57239" y="590" type="curve"/>
      <point x="729.0" y="590" type="line"/>
      <point x="729.0" y="688" type="line"/>
      <point x="0" y="688" type="line"/>
      <point x="0" y="590" type="line"/>
      <point x="97.31732" y="590" type="line"/>
      <point x="100.322231939" y="517.813019292"/>
      <point x="124.420450045" y="459.729121561"/>
      <point x="159.0" y="413.0" type="curve"/>
      <point x="90" y="374"/>
      <point x="44" y="310"/>
      <point x="44" y="224" type="curve" smooth="yes"/>
      <point x="44" y="98"/>
      <point x="142" y="15"/>
      <point x="270" y="-6" type="curve"/>
      <point x="280" y="93.0" type="line"/>
      <point x="208" y="106"/>
      <point x="158" y="156"/>
      <point x="158" y="223" type="curve" smooth="yes"/>
      <point x="158" y="276"/>
      <point x="190" y="317"/>
      <point x="240" y="339" type="curve"/>
      <point x="283" y="304"/>
      <point x="330" y="278"/>
      <point x="375" y="258" type="curve"/>
      <point x="414" y="279"/>
      <point x="457" y="304"/>
      <point x="494" y="336" type="curve"/>
      <point x="542" y="314"/>
      <point x="571" y="274"/>
      <point x="571" y="223" type="curve" smooth="yes"/>
      <point x="571" y="158"/>
      <point x="523" y="107"/>
      <point x="451" y="93" type="curve"/>
      <point x="462.0" y="-6.0" type="line"/>
      <point x="589" y="11"/>
      <point x="685" y="96"/>
    </contour>
  </outline>
</glyph>
<glyph name="uni0A33" format="1">
  <advance width="729"/>
  <unicode hex="0A33"/>
  <outline>
    <contour>
      <point x="588" y="680" type="move" name="abvm_bindu"/>
    </contour>
    <contour>
      <point x="413" y="-47" type="move" name="blwm"/>
    </contour>
    <contour>
      <point x="365" y="690" type="move" name="abvm_candra"/>
    </contour>
    <contour>
      <point x="366" y="-9" type="move" name="blwm_caret_1"/>
    </contour>
    <contour>
      <point x="366" y="-23" type="move" name="blwm_nukta"/>
    </contour>
    <contour>
      <point x="578" y="670" type="move" name="abvm"/>
    </contour>
    <component base="uni0A32"/>
    <component base="uni0A3C" xOffset="366" yOffset="63"/>
  </outline>
</glyph>
<glyph name="uni0A38" format="1">
  <advance width="699"/>
  <unicode hex="0A38"/>
  <outline>
    <contour>
      <point x="544" y="680" type="move" name="abvm_bindu"/>
    </contour>
    <contour>
      <point x="558" y="0" type="move" name="blwm"/>
    </contour>
    <contour>
      <point x="544" y="690" type="move" name="abvm_candra"/>
    </contour>
    <contour>
      <point x="351" y="30" type="move" name="blwm_caret_1"/>
    </contour>
    <contour>
      <point x="351" y="31" type="move" name="blwm_nukta"/>
    </contour>
    <contour>
      <point x="554" y="670" type="move" name="abvm"/>
    </contour>
    <contour>
      <point x="700.0" y="590" type="line"/>
      <point x="700.0" y="688" type="line"/>
      <point x="0" y="688" type="line"/>
      <point x="0" y="590" type="line"/>
      <point x="33" y="590" type="line" smooth="yes"/>
      <point x="118" y="590"/>
      <point x="147" y="515"/>
      <point x="147" y="435" type="curve" smooth="yes"/>
      <point x="147.0" y="394.132960178"/>
      <point x="143.911769705" y="357.58944277"/>
      <point x="138.22072" y="326.3565" type="curve"/>
      <point x="82.3566193254" y="267.489408004"/>
      <point x="65.5278586033" y="156.123741742"/>
      <point x="61.0" y="71.0" type="curve"/>
      <point x="155" y="52.0" type="line"/>
      <point x="182.454801217" y="96.0420769518"/>
      <point x="210.563913293" y="163.966500266"/>
      <point x="229.59685" y="241.0" type="curve"/>
      <point x="501.0" y="241.0" type="line"/>
      <point x="501.0" y="0" type="line"/>
      <point x="614" y="0" type="line"/>
      <point x="614" y="590" type="line"/>
    </contour>
    <contour>
      <point x="253.0" y="423.0" type="curve" smooth="yes"/>
      <point x="253.0" y="490.634995035"/>
      <point x="238.565802119" y="546.952266731"/>
      <point x="211.8896" y="590" type="curve"/>
      <point x="501.0" y="590" type="line"/>
      <point x="501.0" y="338" type="line"/>
      <point x="247.59695" y="338" type="line"/>
      <point x="251.067251715" y="366.14477575"/>
      <point x="253.0" y="394.688352772"/>
    </contour>
  </outline>
</glyph>
<glyph name="uni0A39" format="1">
  <advance width="614"/>
  <unicode hex="0A39"/>
  <outline>
    <contour>
      <point x="457" y="680" type="move" name="abvm_bindu"/>
    </contour>
    <contour>
      <point x="372" y="1" type="move" name="blwm"/>
    </contour>
    <contour>
      <point x="457" y="690" type="move" name="abvm_candra"/>
    </contour>
    <contour>
      <point x="336" y="30" type="move" name="blwm_caret_1"/>
    </contour>
    <contour>
      <point x="77" y="-19" type="move" name="blwm_nukta"/>
    </contour>
    <contour>
      <point x="467" y="670" type="move" name="abvm"/>
    </contour>
    <contour>
      <point x="370" y="-10" type="curve" smooth="yes"/>
      <point x="461" y="-10"/>
      <point x="529" y="35"/>
      <point x="529" y="143" type="curve"/>
      <point x="529" y="590" type="line"/>
      <point x="615" y="590" type="line"/>
      <point x="615" y="688" type="line"/>
      <point x="0" y="688" type="line"/>
      <point x="0" y="590" type="line"/>
      <point x="416.10581" y="590" type="line"/>
      <point x="417.0" y="159" type="line"/>
      <point x="417" y="115"/>
      <point x="409" y="88"/>
      <point x="356" y="88" type="curve" smooth="yes"/>
      <point x="263" y="88"/>
      <point x="149" y="160"/>
      <point x="149" y="261" type="curve" smooth="yes"/>
      <point x="149" y="330"/>
      <point x="190" y="350"/>
      <point x="284" y="350" type="curve"/>
      <point x="273" y="447.0" type="line"/>
      <point x="119" y="447"/>
      <point x="35" y="404"/>
      <point x="35" y="277" type="curve" smooth="yes"/>
      <point x="35" y="107"/>
      <point x="227" y="-10"/>
    </contour>
  </outline>
</glyph>
<glyph name="uni0A3F" format="1">
  <advance width="279"/>
  <unicode hex="0A3F"/>
  <outline>
    <contour>
      <point x="567" y="670" type="move" name="abvm_bindu"/>
    </contour>
    <contour>
      <point x="697" y="690" type="move" name="abvm_candra"/>
    </contour>
    <contour>
      <point x="193.0" y="590" type="line"/>
      <point x="279" y="590" type="line"/>
      <point x="279" y="688" type="line"/>
      <point x="193.0" y="688" type="line"/>
      <point x="193.0" y="741.0" type="line" smooth="yes"/>
      <point x="193" y="807"/>
      <point x="226" y="839"/>
      <point x="278" y="839" type="curve" smooth="yes"/>
      <point x="336" y="839"/>
      <point x="374" y="807"/>
      <point x="408" y="753" type="curve"/>
      <point x="482.0" y="797.0" type="line"/>
      <point x="428" y="897"/>
      <point x="347" y="934"/>
      <point x="264" y="934" type="curve" smooth="yes"/>
      <point x="161" y="934"/>
      <point x="84" y="868"/>
      <point x="84" y="750" type="curve" smooth="yes"/>
      <point x="84" y="688" type="line"/>
      <point x="0" y="688" type="line"/>
      <point x="0" y="590" type="line"/>
      <point x="80" y="590" type="line"/>
      <point x="80" y="0" type="line"/>
      <point x="193.0" y="0" type="line"/>
    </contour>
  </outline>
</glyph>
<glyph name="uni0A40" format="1">
  <advance width="268"/>
  <unicode hex="0A40"/>
  <outline>
    <contour>
      <point x="268" y="670" type="move" name="abvm_bindu"/>
    </contour>
    <contour>
      <point x="406" y="690" type="move" name="abvm_candra"/>
    </contour>
    <contour>
      <point x="183.0" y="590" type="line"/>
      <point x="269" y="590" type="line"/>
      <point x="269" y="688" type="line"/>
      <point x="183.0" y="688" type="line"/>
      <point x="183.0" y="723.0" type="line" smooth="yes"/>
      <point x="183" y="844"/>
      <point x="101" y="934"/>
      <point x="-17" y="934" type="curve" smooth="yes"/>
      <point x="-119" y="934"/>
      <point x="-175" y="879"/>
      <point x="-191" y="797" type="curve"/>
      <point x="-97.0" y="755.0" type="line"/>
      <point x="-84" y="798"/>
      <point x="-63" y="839"/>
      <point x="-8" y="839" type="curve" smooth="yes"/>
      <point x="51" y="839"/>
      <point x="74" y="794"/>
      <point x="74" y="732" type="curve" smooth="yes"/>
      <point x="74" y="688" type="line"/>
      <point x="-37" y="688" type="line"/>
      <point x="-37" y="590" type="line"/>
      <point x="70" y="590" type="line"/>
      <point x="70" y="0" type="line"/>
      <point x="183.0" y="0" type="line"/>
    </contour>
  </outline>
</glyph>
<glyph name="uni0A41" format="1">
  <advance width="0"/>
  <unicode hex="0A41"/>
  <outline>
    <contour>
      <point x="0" y="30" type="move" name="_blwm_caret_1"/>
    </contour>
    <contour>
      <point x="209" y="-120" type="curve"/>
      <point x="190" y="-54" type="line"/>
      <point x="134" y="-83"/>
      <point x="66" y="-99"/>
      <point x="0" y="-99" type="curve" smooth="yes"/>
      <point x="-66" y="-99"/>
      <point x="-134" y="-83"/>
      <point x="-191" y="-54" type="curve"/>
      <point x="-209" y="-120" type="line"/>
      <point x="-154" y="-151"/>
      <point x="-77" y="-170"/>
      <point x="0" y="-170" type="curve" smooth="yes"/>
      <point x="77" y="-170"/>
      <point x="154" y="-151"/>
    </contour>
  </outline>
</glyph>
<glyph name="uni0A42" format="1">
  <advance width="0"/>
  <unicode hex="0A42"/>
  <outline>
    <contour>
      <point x="0" y="30" type="move" name="_blwm_caret_1"/>
    </contour>
    <contour>
      <point x="209" y="-120" type="curve"/>
      <point x="190" y="-54" type="line"/>
      <point x="134" y="-83"/>
      <point x="66" y="-99"/>
      <point x="0" y="-99" type="curve" smooth="yes"/>
      <point x="-66" y="-99"/>
      <point x="-134" y="-83"/>
      <point x="-191" y="-54" type="curve"/>
      <point x="-209" y="-120" type="line"/>
      <point x="-154" y="-151"/>
      <point x="-77" y="-170"/>
      <point x="0" y="-170" type="curve" smooth="yes"/>
      <point x="77" y="-170"/>
      <point x="154" y="-151"/>
    </contour>
    <contour>
      <point x="211" y="-244" type="curve"/>
      <point x="192" y="-178" type="line"/>
      <point x="136" y="-207"/>
      <point x="68" y="-223"/>
      <point x="2" y="-223" type="curve" smooth="yes"/>
      <point x="-64" y="-223"/>
      <point x="-132" y="-207"/>
      <point x="-189" y="-178" type="curve"/>
      <point x="-207" y="-244" type="line"/>
      <point x="-152" y="-275"/>
      <point x="-75" y="-294"/>
      <point x="2" y="-294" type="curve" smooth="yes"/>
      <point x="79" y="-294"/>
      <point x="156" y="-275"/>
    </contour>
  </outline>
</glyph>
<glyph name="uni0A48" format="1">
  <advance width="0"/>
  <unicode hex="0A48"/>
  <outline>
    <contour>
      <point x="0" y="678" type="move" name="_abvm"/>
    </contour>
    <contour>
      <point x="167" y="680" type="move" name="abvm_bindu"/>
    </contour>
    <contour>
      <point x="233" y="690" type="move" name="abvm_candra"/>
    </contour>
    <contour>
      <point x="243" y="670" type="move" name="abvm"/>
    </contour>
    <contour>
      <point x="44.0" y="664" type="line"/>
      <point x="42" y="919"/>
      <point x="-79" y="1043"/>
      <point x="-256" y="1043" type="curve"/>
      <point x="-253.0" y="960.0" type="line"/>
      <point x="-141.283143411" y="960.0"/>
      <point x="-57.7513621214" y="908.962160944"/>
      <point x="-27.00425" y="782.25426" type="curve"/>
      <point x="-79.0248462378" y="855.731586987"/>
      <point x="-177.783866358" y="896.0"/>
      <point x="-284.0" y="896.0" type="curve" smooth="yes"/>
      <point x="-338" y="896"/>
      <point x="-389" y="886"/>
      <point x="-432" y="868" type="curve"/>
      <point x="-409.0" y="784.0" type="line"/>
      <point x="-373" y="797.007"/>
      <point x="-322" y="805"/>
      <point x="-270" y="805" type="curve" smooth="yes"/>
      <point x="-154" y="805.007"/>
      <point x="-42" y="769"/>
      <point x="-42" y="664" type="curve"/>
    </contour>
  </outline>
</glyph>
<glyph name="uni0A4B" format="1">
  <advance width="0"/>
  <unicode hex="0A4B"/>
  <outline>
    <contour>
      <point x="0" y="678" type="move" name="_abvm"/>
    </contour>
    <contour>
      <point x="167" y="680" type="move" name="abvm_bindu"/>
    </contour>
    <contour>
      <point x="233" y="690" type="move" name="abvm_candra"/>
    </contour>
    <contour>
      <point x="243" y="670" type="move" name="abvm"/>
    </contour>
    <contour>
      <point x="44" y="662" type="line"/>
      <point x="44" y="670" type="line"/>
      <point x="44" y="822"/>
      <point x="-22" y="932"/>
      <point x="-149" y="932" type="curve" smooth="yes"/>
      <point x="-226" y="932"/>
      <point x="-238" y="888"/>
      <point x="-298" y="888" type="curve" smooth="yes"/>
      <point x="-337" y="888"/>
      <point x="-368" y="907"/>
      <point x="-399" y="945" type="curve"/>
      <point x="-464" y="881" type="line"/>
      <point x="-421" y="822"/>
      <point x="-363" y="792"/>
      <point x="-297" y="792" type="curve" smooth="yes"/>
      <point x="-219" y="792"/>
      <point x="-208" y="835"/>
      <point x="-144" y="835" type="curve" smooth="yes"/>
      <point x="-82" y="835"/>
      <point x="-43" y="796"/>
      <point x="-42" y="668" type="curve"/>
      <point x="-42" y="662" type="line"/>
    </contour>
  </outline>
</glyph>
<glyph name="uni0A4C" format="1">
  <advance width="0"/>
  <unicode hex="0A4C"/>
  <outline>
    <contour>
      <point x="0" y="678" type="move" name="_abvm"/>
    </contour>
    <contour>
      <point x="287" y="680" type="move" name="abvm_bindu"/>
    </contour>
    <contour>
      <point x="353" y="690" type="move" name="abvm_candra"/>
    </contour>
    <contour>
      <point x="363" y="670" type="move" name="abvm"/>
    </contour>
    <contour>
      <point x="-13" y="877" type="curve" smooth="yes"/>
      <point x="75" y="877"/>
      <point x="74" y="781"/>
      <point x="74" y="762" type="curve"/>
      <point x="152" y="762.0" type="line"/>
      <point x="152" y="802"/>
      <point x="141" y="951"/>
      <point x="-15" y="951" type="curve" smooth="yes"/>
      <point x="-134" y="951"/>
      <point x="-166" y="894"/>
      <point x="-254" y="894" type="curve" smooth="yes"/>
      <point x="-295" y="894"/>
      <point x="-322" y="905"/>
      <point x="-357" y="948" type="curve"/>
      <point x="-422.0" y="884.0" type="line"/>
      <point x="-379" y="828"/>
      <point x="-323" y="799"/>
      <point x="-257" y="799" type="curve" smooth="yes"/>
      <point x="-220.906391249" y="799.0"/>
      <point x="-195.597650321" y="808.621793842"/>
      <point x="-174.67886" y="821.62932" type="curve"/>
      <point x="-179.974893949" y="797.589406157"/>
      <point x="-181.0" y="775.736991626"/>
      <point x="-181.0" y="762.0" type="curve"/>
      <point x="-103.0" y="762.0" type="line"/>
      <point x="-103" y="778"/>
      <point x="-103" y="877"/>
    </contour>
  </outline>
</glyph>
<glyph name="uni0A4D" format="1">
  <advance width="0"/>
  <unicode hex="0A4D"/>
  <outline>
    <contour>
      <point x="0" y="0" type="move" name="_blwm"/>
    </contour>
    <contour>
      <point x="249" y="-312" type="line"/>
      <point x="192" y="-167"/>
      <point x="82" y="-84"/>
      <point x="-88" y="-76" type="curve"/>
      <point x="-94" y="-147" type="line"/>
      <point x="49" y="-154"/>
      <point x="134" y="-220"/>
      <point x="187" y="-348" type="curve"/>
    </contour>
  </outline>
</glyph>
<glyph name="uni0A51" format="1">
  <advance width="0"/>
  <unicode hex="0A51"/>
  <outline>
    <contour>
      <point x="0" y="0" type="move" name="_blwm"/>
    </contour>
    <contour>
      <point x="216" y="-277" type="line"/>
      <point x="79" y="-274"/>
      <point x="3" y="-201"/>
      <point x="-21" y="-70" type="curve"/>
      <point x="-95" y="-81" type="line"/>
      <point x="-69" y="-258"/>
      <point x="34" y="-366"/>
      <point x="209" y="-367" type="curve"/>
    </contour>
  </outline>
</glyph>
<glyph name="uni0A59" format="1">
  <advance width="673"/>
  <unicode hex="0A59"/>
  <outline>
    <contour>
      <point x="516" y="680" type="move" name="abvm_bindu"/>
    </contour>
    <contour>
      <point x="532" y="0" type="move" name="blwm"/>
    </contour>
    <contour>
      <point x="516" y="690" type="move" name="abvm_candra"/>
    </contour>
    <contour>
      <point x="285" y="30" type="move" name="blwm_caret_1"/>
    </contour>
    <contour>
      <point x="111" y="57" type="move" name="blwm_nukta"/>
    </contour>
    <contour>
      <point x="516" y="670" type="move" name="abvm"/>
    </contour>
    <component base="uni0A16"/>
    <component base="uni0A3C" xOffset="106" yOffset="115"/>
  </outline>
</glyph>
<glyph name="uni0A5A" format="1">
  <advance width="821"/>
  <unicode hex="0A5A"/>
  <outline>
    <contour>
      <point x="665" y="681" type="move" name="abvm_bindu"/>
    </contour>
    <contour>
      <point x="680" y="0" type="move" name="blwm"/>
    </contour>
    <contour>
      <point x="665" y="690" type="move" name="abvm_candra"/>
    </contour>
    <contour>
      <point x="444" y="30" type="move" name="blwm_caret_1"/>
    </contour>
    <contour>
      <point x="64" y="-17" type="move" name="blwm_nukta"/>
    </contour>
    <contour>
      <point x="675" y="671" type="move" name="abvm"/>
    </contour>
    <component base="uni0A17"/>
    <component base="uni0A3C" xOffset="64" yOffset="69"/>
  </outline>
</glyph>
<glyph name="uni0A5B" format="1">
  <advance width="696"/>
  <unicode hex="0A5B"/>
  <outline>
    <contour>
      <point x="539" y="680" type="move" name="abvm_bindu"/>
    </contour>
    <contour>
      <point x="555" y="0" type="move" name="blwm"/>
    </contour>
    <contour>
      <point x="539" y="690" type="move" name="abvm_candra"/>
    </contour>
    <contour>
      <point x="366" y="11" type="move" name="blwm_caret_1"/>
    </contour>
    <contour>
      <point x="366" y="1" type="move" name="blwm_nukta"/>
    </contour>
    <contour>
      <point x="549" y="670" type="move" name="abvm"/>
    </contour>
    <component base="uni0A1C"/>
    <component base="uni0A3C" xOffset="370" yOffset="15"/>
  </outline>
</glyph>
<glyph name="uni0A5C" format="1">
  <advance width="610"/>
  <unicode hex="0A5C"/>
  <outline>
    <contour>
      <point x="497" y="680" type="move" name="abvm_bindu"/>
    </contour>
    <contour>
      <point x="315" y="30" type="move" name="blwm"/>
    </contour>
    <contour>
      <point x="497" y="690" type="move" name="abvm_candra"/>
    </contour>
    <contour>
      <point x="315" y="49" type="move" name="blwm_caret_1"/>
    </contour>
    <contour>
      <point x="487" y="670" type="move" name="abvm"/>
    </contour>
    <contour>
      <point x="137" y="40" type="line" smooth="yes"/>
      <point x="137" y="64"/>
      <point x="148" y="76"/>
      <point x="170" y="76" type="curve" smooth="yes"/>
      <point x="210" y="76"/>
      <point x="225" y="33"/>
      <point x="323" y="33" type="curve" smooth="yes"/>
      <point x="363.400791053" y="33.0"/>
      <point x="400.42921864" y="39.7447269327"/>
      <point x="427.11815" y="53.2429" type="curve"/>
      <point x="461.0" y="0" type="line"/>
      <point x="557" y="0" type="line"/>
      <point x="557" y="13.0" type="line"/>
      <point x="501.45402" y="94.06711" type="line"/>
      <point x="536.99674449" y="126.725746158"/>
      <point x="557.0" y="169.381150449"/>
      <point x="557.0" y="215.0" type="curve" smooth="yes"/>
      <point x="557.0" y="281.428675881"/>
      <point x="520.73464021" y="350.758580545"/>
      <point x="435.23206" y="383.44355" type="curve"/>
      <point x="500.653647374" y="423.024793246"/>
      <point x="540.718901709" y="491.356052153"/>
      <point x="542.90562" y="590" type="curve"/>
      <point x="610" y="590" type="line"/>
      <point x="610" y="688" type="line"/>
      <point x="0" y="688" type="line"/>
      <point x="0" y="590" type="line"/>
      <point x="429.88676" y="590" type="line"/>
      <point x="428.045922476" y="514.01612089"/>
      <point x="403.368744136" y="455.427118117"/>
      <point x="327.25138" y="434.8042" type="curve"/>
      <point x="292.981505294" y="446.177534984"/>
      <point x="248.990752647" y="451.0"/>
      <point x="205.0" y="451.0" type="curve" smooth="yes"/>
      <point x="171" y="451"/>
      <point x="131" y="446"/>
      <point x="99" y="437" type="curve"/>
      <point x="105.0" y="341" type="line"/>
      <point x="140" y="332"/>
      <point x="177" y="327"/>
      <point x="218" y="327" type="curve" smooth="yes"/>
      <point x="256.219589448" y="327.0"/>
      <point x="299.488640191" y="330.606758068"/>
      <point x="338.00457" y="339.05322" type="curve"/>
      <point x="418.425473419" y="323.286204142"/>
      <point x="448.0" y="272.474402795"/>
      <point x="448.0" y="228.0" type="curve" smooth="yes"/>
      <point x="448" y="171"/>
      <point x="397" y="126"/>
      <point x="308" y="126" type="curve" smooth="yes"/>
      <point x="223" y="126"/>
      <point x="213" y="172"/>
      <point x="147" y="172" type="curve" smooth="yes"/>
      <point x="82" y="172"/>
      <point x="37" y="128"/>
      <point x="37" y="47" type="curve" smooth="yes"/>
      <point x="37" y="0" type="line"/>
      <point x="137" y="0" type="line"/>
    </contour>
  </outline>
</glyph>
<glyph name="uni0A66" format="1">
  <advance width="749"/>
  <unicode hex="0A66"/>
  <outline>
    <contour>
      <point x="689" y="341" type="curve" smooth="yes"/>
      <point x="689" y="506"/>
      <point x="568" y="646"/>
      <point x="371" y="646" type="curve" smooth="yes"/>
      <point x="177" y="646"/>
      <point x="60" y="510"/>
      <point x="60" y="348" type="curve" smooth="yes"/>
      <point x="60" y="183"/>
      <point x="181" y="42"/>
      <point x="379" y="42" type="curve" smooth="yes"/>
      <point x="571" y="42"/>
      <point x="689" y="179"/>
    </contour>
    <contour>
      <point x="174" y="341" type="curve" smooth="yes"/>
      <point x="174" y="467"/>
      <point x="265" y="548"/>
      <point x="378" y="548" type="curve" smooth="yes"/>
      <point x="488" y="548"/>
      <point x="575" y="470"/>
      <point x="575" y="346" type="curve" smooth="yes"/>
      <point x="575" y="220"/>
      <point x="485" y="141"/>
      <point x="373" y="141" type="curve" smooth="yes"/>
      <point x="262" y="141"/>
      <point x="174" y="218"/>
    </contour>
  </outline>
</glyph>
<glyph name="uni0A67" format="1">
  <advance width="635"/>
  <unicode hex="0A67"/>
  <outline>
    <contour>
      <point x="551" y="0" type="line"/>
      <point x="551" y="410.0" type="line" smooth="yes"/>
      <point x="551" y="588"/>
      <point x="437" y="699"/>
      <point x="278" y="699" type="curve" smooth="yes"/>
      <point x="149" y="699"/>
      <point x="50" y="619"/>
      <point x="50" y="486" type="curve" smooth="yes"/>
      <point x="50" y="350"/>
      <point x="161" y="259"/>
      <point x="292" y="259" type="curve" smooth="yes"/>
      <point x="346.680203729" y="259.0"/>
      <point x="398.529709536" y="273.153489609"/>
      <point x="441.0" y="306.23657" type="curve"/>
      <point x="441.0" y="0" type="line"/>
    </contour>
    <contour>
      <point x="291.0" y="358.0" type="curve" smooth="yes"/>
      <point x="211" y="358"/>
      <point x="156" y="407"/>
      <point x="156" y="477" type="curve" smooth="yes"/>
      <point x="156" y="548"/>
      <point x="212" y="599"/>
      <point x="292" y="599" type="curve" smooth="yes"/>
      <point x="376.653923854" y="599.0"/>
      <point x="436.173671368" y="547.208363904"/>
      <point x="445.96532" y="454.74977" type="curve"/>
      <point x="419.968335236" y="392.218953343"/>
      <point x="358.145641767" y="358.0"/>
    </contour>
  </outline>
</glyph>
<glyph name="uni0A69" format="1">
  <advance width="638"/>
  <unicode hex="0A69"/>
  <outline>
    <contour>
      <point x="301.0" y="-9.0" type="curve" smooth="yes"/>
      <point x="475" y="-9"/>
      <point x="574" y="77"/>
      <point x="574" y="183" type="curve" smooth="yes"/>
      <point x="574.0" y="253.169707908"/>
      <point x="535.836384381" y="317.887470728"/>
      <point x="453.32066" y="351.82907" type="curve"/>
      <point x="533.009164524" y="382.510427363"/>
      <point x="569.0" y="437.315295087"/>
      <point x="569.0" y="502.0" type="curve" smooth="yes"/>
      <point x="569" y="629"/>
      <point x="440" y="700"/>
      <point x="288" y="700" type="curve" smooth="yes"/>
      <point x="206" y="700"/>
      <point x="121" y="679"/>
      <point x="62" y="638" type="curve"/>
      <point x="106.0" y="552" type="line"/>
      <point x="154" y="580"/>
      <point x="226" y="599"/>
      <point x="298" y="599" type="curve" smooth="yes"/>
      <point x="394" y="599"/>
      <point x="459" y="566"/>
      <point x="459" y="502" type="curve" smooth="yes"/>
      <point x="459.0" y="458.161674689"/>
      <point x="427.967493973" y="415.062218569"/>
      <point x="330.97124" y="405.11201" type="curve"/>
      <point x="293.074924174" y="414.864199236"/>
      <point x="251.596721858" y="418.0"/>
      <point x="212.0" y="418.0" type="curve" smooth="yes"/>
      <point x="184" y="418"/>
      <point x="153" y="415"/>
      <point x="123" y="409" type="curve"/>
      <point x="129" y="313" type="line"/>
      <point x="162" y="304"/>
      <point x="198" y="300"/>
      <point x="236" y="300" type="curve" smooth="yes"/>
      <point x="272.758083749" y="300.0"/>
      <point x="314.401548204" y="304.187469176"/>
      <point x="350.43562" y="311.40305" type="curve"/>
      <point x="434.363023421" y="297.913567997"/>
      <point x="463.0" y="248.382897377"/>
      <point x="463.0" y="201.0" type="curve" smooth="yes"/>
      <point x="463" y="122"/>
      <point x="386" y="83"/>
      <point x="290" y="83" type="curve" smooth="yes"/>
      <point x="282.052950194" y="83.0"/>
      <point x="274.26378939" y="83.3157780031"/>
      <point x="266.56978" y="83.89407" type="curve"/>
      <point x="225.891066177" y="128.299991567"/>
      <point x="161.743806406" y="145.846789087"/>
      <point x="92.0" y="153.0" type="curve"/>
      <point x="64" y="72" type="line"/>
      <point x="92" y="43"/>
      <point x="133" y="20"/>
      <point x="176" y="7" type="curve"/>
      <point x="166" y="-105.0" type="line"/>
      <point x="166" y="-119.0" type="line"/>
      <point x="279" y="-119.0" type="line"/>
      <point x="288.94753" y="-8.74823" type="line"/>
      <point x="293.166532147" y="-8.93618944058"/>
      <point x="297.210887192" y="-9.0"/>
    </contour>
  </outline>
</glyph>
